<svg width="24" height="24" viewBox="0 0 24 24" fill="none" xmlns="http://www.w3.org/2000/svg">
<path d="M20.0313 20.7896C20.4913 21.2496 21.2013 20.5396 20.7413 20.0896L16.9913 16.3296C18.3071 14.8743 19.0343 12.9815 19.0313 11.0196C19.0313 6.62957 15.4613 3.05957 11.0713 3.05957C6.68133 3.05957 3.11133 6.62957 3.11133 11.0196C3.11133 15.4096 6.68133 18.9796 11.0713 18.9796C13.0513 18.9796 14.8813 18.2496 16.2813 17.0396L20.0313 20.7896ZM4.11033 11.0196C4.11033 7.17957 7.24033 4.05957 11.0703 4.05957C14.9103 4.05957 18.0303 7.17957 18.0303 11.0196C18.0303 14.8596 14.9103 17.9796 11.0703 17.9796C7.24033 17.9796 4.11033 14.8596 4.11033 11.0196Z" fill="#353535"/>
</svg>
