<svg width="260" height="44" viewBox="0 0 260 44" fill="none" xmlns="http://www.w3.org/2000/svg">
<path d="M33 13L34.3155 18.824L39.364 15.636L36.176 20.6845L42 22L36.176 23.3155L39.364 28.364L34.3155 25.176L33 31L31.6845 25.176L26.636 28.364L29.824 23.3155L24 22L29.824 20.6845L26.636 15.636L31.6845 18.824L33 13Z" fill="#C4A195"/>
<path d="M59.032 17.876H55.056V28.5H54.232V17.876H50.232V17.18H59.032V17.876ZM63.143 24.652C62.3857 24.6787 61.7323 24.74 61.183 24.836C60.639 24.9267 60.1883 25.052 59.831 25.212C59.479 25.372 59.2177 25.564 59.047 25.788C58.8763 26.0067 58.791 26.2573 58.791 26.54C58.791 26.8067 58.8337 27.0387 58.919 27.236C59.0097 27.428 59.127 27.588 59.271 27.716C59.4203 27.8387 59.591 27.9293 59.783 27.988C59.975 28.0467 60.175 28.076 60.383 28.076C60.6923 28.076 60.975 28.044 61.231 27.98C61.4923 27.9107 61.7323 27.8173 61.951 27.7C62.175 27.5773 62.383 27.4333 62.575 27.268C62.767 27.1027 62.9563 26.924 63.143 26.732V24.652ZM58.463 21.668C58.879 21.252 59.3163 20.9373 59.775 20.724C60.2337 20.5107 60.7537 20.404 61.335 20.404C61.7617 20.404 62.135 20.4733 62.455 20.612C62.775 20.7453 63.039 20.94 63.247 21.196C63.4603 21.4467 63.6203 21.7533 63.727 22.116C63.8337 22.4733 63.887 22.8733 63.887 23.316V28.5H63.583C63.423 28.5 63.3243 28.4253 63.287 28.276L63.175 27.252C62.9563 27.4653 62.7377 27.6573 62.519 27.828C62.3057 27.9987 62.0817 28.1427 61.847 28.26C61.6123 28.3773 61.359 28.468 61.087 28.532C60.815 28.596 60.5163 28.628 60.191 28.628C59.919 28.628 59.655 28.588 59.399 28.508C59.143 28.428 58.9137 28.3053 58.711 28.14C58.5137 27.9747 58.3537 27.764 58.231 27.508C58.1137 27.2467 58.055 26.9347 58.055 26.572C58.055 26.236 58.151 25.924 58.343 25.636C58.535 25.348 58.8363 25.0973 59.247 24.884C59.6577 24.6707 60.183 24.5 60.823 24.372C61.4683 24.244 62.2417 24.1693 63.143 24.148V23.316C63.143 22.58 62.983 22.0147 62.663 21.62C62.3483 21.22 61.879 21.02 61.255 21.02C60.871 21.02 60.543 21.0733 60.271 21.18C60.0043 21.2867 59.7777 21.404 59.591 21.532C59.4043 21.66 59.2523 21.7773 59.135 21.884C59.0177 21.9907 58.919 22.044 58.839 22.044C58.7803 22.044 58.7323 22.0307 58.695 22.004C58.6577 21.9773 58.6257 21.9427 58.599 21.9L58.463 21.668ZM67.285 20.54V28.5H66.525V20.54H67.285ZM67.613 17.796C67.613 17.892 67.5917 17.9827 67.549 18.068C67.5117 18.148 67.461 18.22 67.397 18.284C67.333 18.348 67.2583 18.3987 67.173 18.436C67.0877 18.4733 66.997 18.492 66.901 18.492C66.805 18.492 66.7143 18.4733 66.629 18.436C66.5437 18.3987 66.469 18.348 66.405 18.284C66.341 18.22 66.2903 18.148 66.253 18.068C66.2157 17.9827 66.197 17.892 66.197 17.796C66.197 17.7 66.2157 17.6093 66.253 17.524C66.2903 17.4333 66.341 17.356 66.405 17.292C66.469 17.228 66.5437 17.1773 66.629 17.14C66.7143 17.1027 66.805 17.084 66.901 17.084C66.997 17.084 67.0877 17.1027 67.173 17.14C67.2583 17.1773 67.333 17.228 67.397 17.292C67.461 17.356 67.5117 17.4333 67.549 17.524C67.5917 17.6093 67.613 17.7 67.613 17.796ZM70.8395 16.86V28.5H70.0715V16.86H70.8395ZM76.6828 20.412C77.2534 20.412 77.7628 20.5107 78.2108 20.708C78.6641 20.9 79.0454 21.1747 79.3548 21.532C79.6641 21.8893 79.8988 22.3213 80.0588 22.828C80.2241 23.3293 80.3068 23.892 80.3068 24.516C80.3068 25.14 80.2241 25.7027 80.0588 26.204C79.8988 26.7053 79.6641 27.1347 79.3548 27.492C79.0454 27.8493 78.6641 28.124 78.2108 28.316C77.7628 28.508 77.2534 28.604 76.6828 28.604C76.1121 28.604 75.6001 28.508 75.1468 28.316C74.6988 28.124 74.3174 27.8493 74.0028 27.492C73.6934 27.1347 73.4561 26.7053 73.2908 26.204C73.1308 25.7027 73.0508 25.14 73.0508 24.516C73.0508 23.892 73.1308 23.3293 73.2908 22.828C73.4561 22.3213 73.6934 21.8893 74.0028 21.532C74.3174 21.1747 74.6988 20.9 75.1468 20.708C75.6001 20.5107 76.1121 20.412 76.6828 20.412ZM76.6828 28.004C77.1574 28.004 77.5708 27.924 77.9228 27.764C78.2801 27.5987 78.5761 27.364 78.8108 27.06C79.0508 26.756 79.2294 26.3907 79.3468 25.964C79.4641 25.532 79.5228 25.0493 79.5228 24.516C79.5228 23.988 79.4641 23.508 79.3468 23.076C79.2294 22.644 79.0508 22.276 78.8108 21.972C78.5761 21.6627 78.2801 21.4253 77.9228 21.26C77.5708 21.0947 77.1574 21.012 76.6828 21.012C76.2081 21.012 75.7921 21.0947 75.4348 21.26C75.0828 21.4253 74.7868 21.6627 74.5468 21.972C74.3121 22.276 74.1334 22.644 74.0108 23.076C73.8934 23.508 73.8348 23.988 73.8348 24.516C73.8348 25.0493 73.8934 25.532 74.0108 25.964C74.1334 26.3907 74.3121 26.756 74.5468 27.06C74.7868 27.364 75.0828 27.5987 75.4348 27.764C75.7921 27.924 76.2081 28.004 76.6828 28.004ZM83.1806 22.46C83.3033 22.1347 83.442 21.8467 83.5966 21.596C83.7566 21.34 83.938 21.124 84.1406 20.948C84.3486 20.772 84.578 20.6387 84.8286 20.548C85.0846 20.452 85.3673 20.404 85.6766 20.404C85.842 20.404 86.0046 20.42 86.1646 20.452C86.3246 20.4787 86.466 20.5293 86.5886 20.604L86.5246 21.132C86.498 21.2173 86.4473 21.26 86.3726 21.26C86.3086 21.26 86.21 21.2413 86.0766 21.204C85.9486 21.1667 85.778 21.148 85.5646 21.148C85.2553 21.148 84.9806 21.196 84.7406 21.292C84.506 21.3827 84.2926 21.5213 84.1006 21.708C83.914 21.8947 83.7486 22.1267 83.6046 22.404C83.466 22.676 83.338 22.9907 83.2206 23.348V28.5H82.4526V20.54H82.8606C82.9513 20.54 83.0153 20.5587 83.0526 20.596C83.09 20.6333 83.114 20.6973 83.1246 20.788L83.1806 22.46ZM93.2398 23.716C93.2398 23.2893 93.1784 22.908 93.0558 22.572C92.9384 22.2307 92.7704 21.9427 92.5518 21.708C92.3331 21.4733 92.0718 21.2947 91.7678 21.172C91.4691 21.044 91.1384 20.98 90.7758 20.98C90.3651 20.98 89.9971 21.044 89.6718 21.172C89.3464 21.3 89.0638 21.484 88.8238 21.724C88.5891 21.964 88.3998 22.252 88.2558 22.588C88.1118 22.924 88.0158 23.3 87.9678 23.716H93.2398ZM87.9278 24.204V24.356C87.9278 24.9533 87.9971 25.4787 88.1358 25.932C88.2744 26.3853 88.4718 26.7667 88.7278 27.076C88.9838 27.38 89.2931 27.6093 89.6558 27.764C90.0184 27.9187 90.4238 27.996 90.8718 27.996C91.2718 27.996 91.6184 27.9533 91.9118 27.868C92.2051 27.7773 92.4504 27.6787 92.6478 27.572C92.8504 27.46 93.0104 27.3613 93.1278 27.276C93.2451 27.1853 93.3304 27.14 93.3838 27.14C93.4531 27.14 93.5064 27.1667 93.5438 27.22L93.7518 27.476C93.6238 27.636 93.4531 27.7853 93.2398 27.924C93.0318 28.0627 92.7971 28.1827 92.5358 28.284C92.2798 28.38 92.0024 28.4573 91.7038 28.516C91.4104 28.5747 91.1144 28.604 90.8158 28.604C90.2718 28.604 89.7758 28.5107 89.3278 28.324C88.8798 28.132 88.4958 27.8547 88.1758 27.492C87.8558 27.1293 87.6078 26.6867 87.4318 26.164C87.2611 25.636 87.1758 25.0333 87.1758 24.356C87.1758 23.7853 87.2558 23.26 87.4158 22.78C87.5811 22.2947 87.8158 21.8787 88.1198 21.532C88.4291 21.18 88.8051 20.9053 89.2478 20.708C89.6958 20.5107 90.2024 20.412 90.7678 20.412C91.2158 20.412 91.6318 20.4893 92.0158 20.644C92.3998 20.7987 92.7331 21.0253 93.0158 21.324C93.2984 21.6173 93.5198 21.98 93.6798 22.412C93.8451 22.844 93.9278 23.34 93.9278 23.9C93.9278 24.0173 93.9118 24.0973 93.8798 24.14C93.8478 24.1827 93.7944 24.204 93.7198 24.204H87.9278ZM101.432 22.252C101.128 21.7933 100.789 21.4707 100.416 21.284C100.048 21.0973 99.6262 21.004 99.1515 21.004C98.6822 21.004 98.2715 21.0893 97.9195 21.26C97.5675 21.4307 97.2715 21.6733 97.0315 21.988C96.7968 22.2973 96.6182 22.6707 96.4955 23.108C96.3782 23.54 96.3195 24.0173 96.3195 24.54C96.3195 25.724 96.5355 26.596 96.9675 27.156C97.4048 27.7107 98.0342 27.988 98.8555 27.988C99.3782 27.988 99.8555 27.852 100.288 27.58C100.72 27.308 101.101 26.9267 101.432 26.436V22.252ZM102.192 16.86V28.5H101.776C101.637 28.5 101.557 28.4307 101.536 28.292L101.456 27.036C101.104 27.516 100.693 27.8973 100.224 28.18C99.7542 28.4627 99.2262 28.604 98.6395 28.604C97.6582 28.604 96.8955 28.2653 96.3515 27.588C95.8075 26.9107 95.5355 25.8947 95.5355 24.54C95.5355 23.9587 95.6102 23.4173 95.7595 22.916C95.9142 22.4093 96.1382 21.972 96.4315 21.604C96.7248 21.2307 97.0848 20.9373 97.5115 20.724C97.9435 20.5107 98.4395 20.404 98.9995 20.404C99.5382 20.404 100.005 20.5027 100.4 20.7C100.794 20.8973 101.138 21.1907 101.432 21.58V16.86H102.192ZM115.012 18.556C114.964 18.6467 114.894 18.692 114.804 18.692C114.734 18.692 114.644 18.644 114.532 18.548C114.425 18.4467 114.278 18.3373 114.092 18.22C113.905 18.0973 113.67 17.9853 113.388 17.884C113.11 17.7827 112.766 17.732 112.356 17.732C111.945 17.732 111.582 17.7907 111.268 17.908C110.958 18.0253 110.697 18.1853 110.484 18.388C110.276 18.5907 110.116 18.8253 110.004 19.092C109.897 19.3587 109.844 19.6387 109.844 19.932C109.844 20.316 109.924 20.6333 110.084 20.884C110.249 21.1347 110.465 21.348 110.732 21.524C110.998 21.7 111.3 21.8493 111.636 21.972C111.977 22.0893 112.326 22.2067 112.684 22.324C113.041 22.4413 113.388 22.572 113.724 22.716C114.065 22.8547 114.369 23.0307 114.636 23.244C114.902 23.4573 115.116 23.7213 115.276 24.036C115.441 24.3453 115.524 24.732 115.524 25.196C115.524 25.6707 115.441 26.1187 115.276 26.54C115.116 26.956 114.881 27.3187 114.572 27.628C114.262 27.9373 113.884 28.1827 113.436 28.364C112.988 28.54 112.476 28.628 111.9 28.628C111.153 28.628 110.51 28.4973 109.972 28.236C109.433 27.9693 108.961 27.6067 108.556 27.148L108.78 26.796C108.844 26.716 108.918 26.676 109.004 26.676C109.052 26.676 109.113 26.708 109.188 26.772C109.262 26.836 109.353 26.916 109.46 27.012C109.566 27.1027 109.694 27.204 109.844 27.316C109.993 27.4227 110.166 27.524 110.364 27.62C110.561 27.7107 110.788 27.788 111.044 27.852C111.3 27.916 111.59 27.948 111.916 27.948C112.364 27.948 112.764 27.8813 113.116 27.748C113.468 27.6093 113.764 27.4227 114.004 27.188C114.249 26.9533 114.436 26.676 114.564 26.356C114.692 26.0307 114.756 25.684 114.756 25.316C114.756 24.916 114.673 24.588 114.508 24.332C114.348 24.0707 114.134 23.8547 113.868 23.684C113.601 23.508 113.297 23.3613 112.956 23.244C112.62 23.1267 112.273 23.012 111.916 22.9C111.558 22.788 111.209 22.6627 110.868 22.524C110.532 22.3853 110.23 22.2093 109.964 21.996C109.697 21.7773 109.481 21.508 109.316 21.188C109.156 20.8627 109.076 20.4573 109.076 19.972C109.076 19.5933 109.148 19.228 109.292 18.876C109.436 18.524 109.646 18.2147 109.924 17.948C110.201 17.676 110.542 17.46 110.948 17.3C111.358 17.1347 111.825 17.052 112.348 17.052C112.934 17.052 113.46 17.1453 113.924 17.332C114.393 17.5187 114.82 17.804 115.204 18.188L115.012 18.556ZM118.314 21.884C118.682 21.436 119.101 21.0787 119.57 20.812C120.045 20.5453 120.576 20.412 121.162 20.412C121.6 20.412 121.984 20.4813 122.314 20.62C122.65 20.7587 122.928 20.9587 123.146 21.22C123.365 21.4813 123.53 21.796 123.642 22.164C123.754 22.532 123.81 22.948 123.81 23.412V28.5H123.042V23.412C123.042 22.6653 122.872 22.0813 122.53 21.66C122.189 21.2333 121.669 21.02 120.97 21.02C120.453 21.02 119.968 21.1533 119.514 21.42C119.066 21.6813 118.666 22.0467 118.314 22.516V28.5H117.546V16.86H118.314V21.884ZM129.495 20.412C130.066 20.412 130.575 20.5107 131.023 20.708C131.477 20.9 131.858 21.1747 132.167 21.532C132.477 21.8893 132.711 22.3213 132.871 22.828C133.037 23.3293 133.119 23.892 133.119 24.516C133.119 25.14 133.037 25.7027 132.871 26.204C132.711 26.7053 132.477 27.1347 132.167 27.492C131.858 27.8493 131.477 28.124 131.023 28.316C130.575 28.508 130.066 28.604 129.495 28.604C128.925 28.604 128.413 28.508 127.959 28.316C127.511 28.124 127.13 27.8493 126.815 27.492C126.506 27.1347 126.269 26.7053 126.103 26.204C125.943 25.7027 125.863 25.14 125.863 24.516C125.863 23.892 125.943 23.3293 126.103 22.828C126.269 22.3213 126.506 21.8893 126.815 21.532C127.13 21.1747 127.511 20.9 127.959 20.708C128.413 20.5107 128.925 20.412 129.495 20.412ZM129.495 28.004C129.97 28.004 130.383 27.924 130.735 27.764C131.093 27.5987 131.389 27.364 131.623 27.06C131.863 26.756 132.042 26.3907 132.159 25.964C132.277 25.532 132.335 25.0493 132.335 24.516C132.335 23.988 132.277 23.508 132.159 23.076C132.042 22.644 131.863 22.276 131.623 21.972C131.389 21.6627 131.093 21.4253 130.735 21.26C130.383 21.0947 129.97 21.012 129.495 21.012C129.021 21.012 128.605 21.0947 128.247 21.26C127.895 21.4253 127.599 21.6627 127.359 21.972C127.125 22.276 126.946 22.644 126.823 23.076C126.706 23.508 126.647 23.988 126.647 24.516C126.647 25.0493 126.706 25.532 126.823 25.964C126.946 26.3907 127.125 26.756 127.359 27.06C127.599 27.364 127.895 27.5987 128.247 27.764C128.605 27.924 129.021 28.004 129.495 28.004ZM138.417 20.412C138.988 20.412 139.497 20.5107 139.945 20.708C140.398 20.9 140.78 21.1747 141.089 21.532C141.398 21.8893 141.633 22.3213 141.793 22.828C141.958 23.3293 142.041 23.892 142.041 24.516C142.041 25.14 141.958 25.7027 141.793 26.204C141.633 26.7053 141.398 27.1347 141.089 27.492C140.78 27.8493 140.398 28.124 139.945 28.316C139.497 28.508 138.988 28.604 138.417 28.604C137.846 28.604 137.334 28.508 136.881 28.316C136.433 28.124 136.052 27.8493 135.737 27.492C135.428 27.1347 135.19 26.7053 135.025 26.204C134.865 25.7027 134.785 25.14 134.785 24.516C134.785 23.892 134.865 23.3293 135.025 22.828C135.19 22.3213 135.428 21.8893 135.737 21.532C136.052 21.1747 136.433 20.9 136.881 20.708C137.334 20.5107 137.846 20.412 138.417 20.412ZM138.417 28.004C138.892 28.004 139.305 27.924 139.657 27.764C140.014 27.5987 140.31 27.364 140.545 27.06C140.785 26.756 140.964 26.3907 141.081 25.964C141.198 25.532 141.257 25.0493 141.257 24.516C141.257 23.988 141.198 23.508 141.081 23.076C140.964 22.644 140.785 22.276 140.545 21.972C140.31 21.6627 140.014 21.4253 139.657 21.26C139.305 21.0947 138.892 21.012 138.417 21.012C137.942 21.012 137.526 21.0947 137.169 21.26C136.817 21.4253 136.521 21.6627 136.281 21.972C136.046 22.276 135.868 22.644 135.745 23.076C135.628 23.508 135.569 23.988 135.569 24.516C135.569 25.0493 135.628 25.532 135.745 25.964C135.868 26.3907 136.046 26.756 136.281 27.06C136.521 27.364 136.817 27.5987 137.169 27.764C137.526 27.924 137.942 28.004 138.417 28.004ZM146.222 28.628C145.684 28.628 145.262 28.4787 144.958 28.18C144.66 27.8813 144.51 27.42 144.51 26.796V21.356H143.366C143.308 21.356 143.26 21.34 143.222 21.308C143.185 21.276 143.166 21.2307 143.166 21.172V20.876L144.526 20.78L144.718 17.932C144.729 17.884 144.75 17.8413 144.782 17.804C144.814 17.7667 144.86 17.748 144.918 17.748H145.278V20.788H147.79V21.356H145.278V26.756C145.278 26.9747 145.305 27.164 145.358 27.324C145.417 27.4787 145.494 27.6067 145.59 27.708C145.692 27.8093 145.809 27.884 145.942 27.932C146.076 27.98 146.22 28.004 146.374 28.004C146.566 28.004 146.732 27.9773 146.87 27.924C147.009 27.8653 147.129 27.804 147.23 27.74C147.332 27.6707 147.414 27.6093 147.478 27.556C147.542 27.4973 147.593 27.468 147.63 27.468C147.673 27.468 147.716 27.4947 147.758 27.548L147.966 27.884C147.764 28.108 147.505 28.2893 147.19 28.428C146.881 28.5613 146.558 28.628 146.222 28.628ZM161.035 27.82L161.019 28.5H154.235V17.18H161.019V17.86H155.059V22.436H160.019V23.1H155.059V27.82H161.035ZM168.996 28.5H168.268C168.193 28.5 168.134 28.4787 168.092 28.436C168.049 28.388 168.014 28.3427 167.988 28.3L165.572 24.772C165.55 24.868 165.51 24.9613 165.452 25.052L163.148 28.3C163.11 28.348 163.07 28.3933 163.028 28.436C162.99 28.4787 162.94 28.5 162.876 28.5H162.188L165.084 24.428L162.3 20.54H163.028C163.102 20.54 163.158 20.556 163.196 20.588C163.233 20.62 163.265 20.6573 163.292 20.7L165.628 24.068C165.638 24.0253 165.654 23.98 165.676 23.932C165.702 23.884 165.729 23.836 165.756 23.788L167.94 20.708C167.972 20.66 168.006 20.62 168.044 20.588C168.081 20.556 168.129 20.54 168.188 20.54H168.884L166.108 24.38L168.996 28.5ZM171.424 26.764C171.578 26.9933 171.738 27.188 171.904 27.348C172.074 27.5027 172.253 27.6307 172.44 27.732C172.626 27.828 172.824 27.8973 173.032 27.94C173.245 27.9827 173.469 28.004 173.704 28.004C174.173 28.004 174.584 27.9187 174.936 27.748C175.288 27.5773 175.581 27.3373 175.816 27.028C176.056 26.7133 176.234 26.34 176.352 25.908C176.474 25.4707 176.536 24.9907 176.536 24.468C176.536 23.284 176.317 22.4147 175.88 21.86C175.442 21.3 174.816 21.02 174 21.02C173.472 21.02 172.994 21.156 172.568 21.428C172.141 21.7 171.76 22.0787 171.424 22.564V26.764ZM171.392 21.972C171.744 21.492 172.154 21.1107 172.624 20.828C173.098 20.5453 173.629 20.404 174.216 20.404C175.192 20.404 175.952 20.7427 176.496 21.42C177.045 22.0973 177.32 23.1133 177.32 24.468C177.32 25.0493 177.242 25.5933 177.088 26.1C176.938 26.6013 176.714 27.0387 176.416 27.412C176.122 27.78 175.76 28.0707 175.328 28.284C174.901 28.4973 174.408 28.604 173.848 28.604C173.309 28.604 172.842 28.5053 172.448 28.308C172.053 28.1107 171.712 27.82 171.424 27.436V31.316H170.656V20.54H171.08C171.213 20.54 171.29 20.6067 171.312 20.74L171.392 21.972ZM185.068 23.716C185.068 23.2893 185.007 22.908 184.884 22.572C184.767 22.2307 184.599 21.9427 184.38 21.708C184.161 21.4733 183.9 21.2947 183.596 21.172C183.297 21.044 182.967 20.98 182.604 20.98C182.193 20.98 181.825 21.044 181.5 21.172C181.175 21.3 180.892 21.484 180.652 21.724C180.417 21.964 180.228 22.252 180.084 22.588C179.94 22.924 179.844 23.3 179.796 23.716H185.068ZM179.756 24.204V24.356C179.756 24.9533 179.825 25.4787 179.964 25.932C180.103 26.3853 180.3 26.7667 180.556 27.076C180.812 27.38 181.121 27.6093 181.484 27.764C181.847 27.9187 182.252 27.996 182.7 27.996C183.1 27.996 183.447 27.9533 183.74 27.868C184.033 27.7773 184.279 27.6787 184.476 27.572C184.679 27.46 184.839 27.3613 184.956 27.276C185.073 27.1853 185.159 27.14 185.212 27.14C185.281 27.14 185.335 27.1667 185.372 27.22L185.58 27.476C185.452 27.636 185.281 27.7853 185.068 27.924C184.86 28.0627 184.625 28.1827 184.364 28.284C184.108 28.38 183.831 28.4573 183.532 28.516C183.239 28.5747 182.943 28.604 182.644 28.604C182.1 28.604 181.604 28.5107 181.156 28.324C180.708 28.132 180.324 27.8547 180.004 27.492C179.684 27.1293 179.436 26.6867 179.26 26.164C179.089 25.636 179.004 25.0333 179.004 24.356C179.004 23.7853 179.084 23.26 179.244 22.78C179.409 22.2947 179.644 21.8787 179.948 21.532C180.257 21.18 180.633 20.9053 181.076 20.708C181.524 20.5107 182.031 20.412 182.596 20.412C183.044 20.412 183.46 20.4893 183.844 20.644C184.228 20.7987 184.561 21.0253 184.844 21.324C185.127 21.6173 185.348 21.98 185.508 22.412C185.673 22.844 185.756 23.34 185.756 23.9C185.756 24.0173 185.74 24.0973 185.708 24.14C185.676 24.1827 185.623 24.204 185.548 24.204H179.756ZM188.556 22.46C188.678 22.1347 188.817 21.8467 188.972 21.596C189.132 21.34 189.313 21.124 189.516 20.948C189.724 20.772 189.953 20.6387 190.204 20.548C190.46 20.452 190.742 20.404 191.052 20.404C191.217 20.404 191.38 20.42 191.54 20.452C191.7 20.4787 191.841 20.5293 191.964 20.604L191.9 21.132C191.873 21.2173 191.822 21.26 191.748 21.26C191.684 21.26 191.585 21.2413 191.452 21.204C191.324 21.1667 191.153 21.148 190.94 21.148C190.63 21.148 190.356 21.196 190.116 21.292C189.881 21.3827 189.668 21.5213 189.476 21.708C189.289 21.8947 189.124 22.1267 188.98 22.404C188.841 22.676 188.713 22.9907 188.596 23.348V28.5H187.828V20.54H188.236C188.326 20.54 188.39 20.5587 188.428 20.596C188.465 20.6333 188.489 20.6973 188.5 20.788L188.556 22.46ZM194.332 20.54V28.5H193.572V20.54H194.332ZM194.66 17.796C194.66 17.892 194.639 17.9827 194.596 18.068C194.559 18.148 194.508 18.22 194.444 18.284C194.38 18.348 194.305 18.3987 194.22 18.436C194.135 18.4733 194.044 18.492 193.948 18.492C193.852 18.492 193.761 18.4733 193.676 18.436C193.591 18.3987 193.516 18.348 193.452 18.284C193.388 18.22 193.337 18.148 193.3 18.068C193.263 17.9827 193.244 17.892 193.244 17.796C193.244 17.7 193.263 17.6093 193.3 17.524C193.337 17.4333 193.388 17.356 193.452 17.292C193.516 17.228 193.591 17.1773 193.676 17.14C193.761 17.1027 193.852 17.084 193.948 17.084C194.044 17.084 194.135 17.1027 194.22 17.14C194.305 17.1773 194.38 17.228 194.444 17.292C194.508 17.356 194.559 17.4333 194.596 17.524C194.639 17.6093 194.66 17.7 194.66 17.796ZM202.63 23.716C202.63 23.2893 202.569 22.908 202.446 22.572C202.329 22.2307 202.161 21.9427 201.942 21.708C201.724 21.4733 201.462 21.2947 201.158 21.172C200.86 21.044 200.529 20.98 200.166 20.98C199.756 20.98 199.388 21.044 199.062 21.172C198.737 21.3 198.454 21.484 198.214 21.724C197.98 21.964 197.79 22.252 197.646 22.588C197.502 22.924 197.406 23.3 197.358 23.716H202.63ZM197.318 24.204V24.356C197.318 24.9533 197.388 25.4787 197.526 25.932C197.665 26.3853 197.862 26.7667 198.118 27.076C198.374 27.38 198.684 27.6093 199.046 27.764C199.409 27.9187 199.814 27.996 200.262 27.996C200.662 27.996 201.009 27.9533 201.302 27.868C201.596 27.7773 201.841 27.6787 202.038 27.572C202.241 27.46 202.401 27.3613 202.518 27.276C202.636 27.1853 202.721 27.14 202.774 27.14C202.844 27.14 202.897 27.1667 202.934 27.22L203.142 27.476C203.014 27.636 202.844 27.7853 202.63 27.924C202.422 28.0627 202.188 28.1827 201.926 28.284C201.67 28.38 201.393 28.4573 201.094 28.516C200.801 28.5747 200.505 28.604 200.206 28.604C199.662 28.604 199.166 28.5107 198.718 28.324C198.27 28.132 197.886 27.8547 197.566 27.492C197.246 27.1293 196.998 26.6867 196.822 26.164C196.652 25.636 196.566 25.0333 196.566 24.356C196.566 23.7853 196.646 23.26 196.806 22.78C196.972 22.2947 197.206 21.8787 197.51 21.532C197.82 21.18 198.196 20.9053 198.638 20.708C199.086 20.5107 199.593 20.412 200.158 20.412C200.606 20.412 201.022 20.4893 201.406 20.644C201.79 20.7987 202.124 21.0253 202.406 21.324C202.689 21.6173 202.91 21.98 203.07 22.412C203.236 22.844 203.318 23.34 203.318 23.9C203.318 24.0173 203.302 24.0973 203.27 24.14C203.238 24.1827 203.185 24.204 203.11 24.204H197.318ZM206.118 21.932C206.486 21.4733 206.91 21.1053 207.39 20.828C207.875 20.5507 208.414 20.412 209.006 20.412C209.443 20.412 209.827 20.4813 210.158 20.62C210.494 20.7587 210.771 20.9587 210.99 21.22C211.209 21.4813 211.374 21.796 211.486 22.164C211.598 22.532 211.654 22.948 211.654 23.412V28.5H210.886V23.412C210.886 22.6653 210.715 22.0813 210.374 21.66C210.033 21.2333 209.513 21.02 208.814 21.02C208.297 21.02 207.811 21.1533 207.358 21.42C206.91 21.6813 206.51 22.0467 206.158 22.516V28.5H205.39V20.54H205.814C205.947 20.54 206.025 20.6067 206.046 20.74L206.118 21.932ZM219.539 21.604C219.512 21.6307 219.486 21.6547 219.459 21.676C219.438 21.692 219.406 21.7 219.363 21.7C219.31 21.7 219.238 21.6653 219.147 21.596C219.056 21.5213 218.934 21.4413 218.779 21.356C218.624 21.2707 218.43 21.1933 218.195 21.124C217.966 21.0493 217.686 21.012 217.355 21.012C216.896 21.012 216.488 21.0947 216.131 21.26C215.779 21.42 215.48 21.652 215.235 21.956C214.99 22.26 214.803 22.628 214.675 23.06C214.552 23.492 214.491 23.9773 214.491 24.516C214.491 25.076 214.555 25.572 214.683 26.004C214.816 26.436 215.003 26.8013 215.243 27.1C215.483 27.3933 215.774 27.6173 216.115 27.772C216.456 27.9267 216.835 28.004 217.251 28.004C217.635 28.004 217.955 27.9587 218.211 27.868C218.472 27.7773 218.686 27.6787 218.851 27.572C219.022 27.4653 219.155 27.3667 219.251 27.276C219.347 27.1853 219.427 27.14 219.491 27.14C219.555 27.14 219.608 27.1667 219.651 27.22L219.851 27.476C219.728 27.636 219.574 27.7853 219.387 27.924C219.2 28.0627 218.99 28.1827 218.755 28.284C218.52 28.3853 218.264 28.4627 217.987 28.516C217.715 28.5747 217.43 28.604 217.131 28.604C216.624 28.604 216.16 28.5133 215.739 28.332C215.323 28.1453 214.963 27.8787 214.659 27.532C214.36 27.18 214.126 26.7507 213.955 26.244C213.79 25.7373 213.707 25.1613 213.707 24.516C213.707 23.908 213.787 23.3533 213.947 22.852C214.107 22.3507 214.342 21.9187 214.651 21.556C214.96 21.1933 215.336 20.9133 215.779 20.716C216.227 20.5133 216.739 20.412 217.315 20.412C217.832 20.412 218.291 20.4947 218.691 20.66C219.091 20.8253 219.44 21.0493 219.739 21.332L219.539 21.604ZM227.162 23.716C227.162 23.2893 227.1 22.908 226.978 22.572C226.86 22.2307 226.692 21.9427 226.474 21.708C226.255 21.4733 225.994 21.2947 225.69 21.172C225.391 21.044 225.06 20.98 224.698 20.98C224.287 20.98 223.919 21.044 223.594 21.172C223.268 21.3 222.986 21.484 222.746 21.724C222.511 21.964 222.322 22.252 222.178 22.588C222.034 22.924 221.938 23.3 221.89 23.716H227.162ZM221.85 24.204V24.356C221.85 24.9533 221.919 25.4787 222.058 25.932C222.196 26.3853 222.394 26.7667 222.65 27.076C222.906 27.38 223.215 27.6093 223.578 27.764C223.94 27.9187 224.346 27.996 224.794 27.996C225.194 27.996 225.54 27.9533 225.834 27.868C226.127 27.7773 226.372 27.6787 226.57 27.572C226.772 27.46 226.932 27.3613 227.05 27.276C227.167 27.1853 227.252 27.14 227.306 27.14C227.375 27.14 227.428 27.1667 227.466 27.22L227.674 27.476C227.546 27.636 227.375 27.7853 227.162 27.924C226.954 28.0627 226.719 28.1827 226.458 28.284C226.202 28.38 225.924 28.4573 225.626 28.516C225.332 28.5747 225.036 28.604 224.738 28.604C224.194 28.604 223.698 28.5107 223.25 28.324C222.802 28.132 222.418 27.8547 222.098 27.492C221.778 27.1293 221.53 26.6867 221.354 26.164C221.183 25.636 221.098 25.0333 221.098 24.356C221.098 23.7853 221.178 23.26 221.338 22.78C221.503 22.2947 221.738 21.8787 222.042 21.532C222.351 21.18 222.727 20.9053 223.17 20.708C223.618 20.5107 224.124 20.412 224.69 20.412C225.138 20.412 225.554 20.4893 225.938 20.644C226.322 20.7987 226.655 21.0253 226.938 21.324C227.22 21.6173 227.442 21.98 227.602 22.412C227.767 22.844 227.85 23.34 227.85 23.9C227.85 24.0173 227.834 24.0973 227.802 24.14C227.77 24.1827 227.716 24.204 227.642 24.204H221.85ZM234.297 21.524C234.255 21.5987 234.193 21.636 234.113 21.636C234.055 21.636 233.98 21.604 233.889 21.54C233.799 21.4707 233.676 21.396 233.521 21.316C233.372 21.2307 233.185 21.156 232.961 21.092C232.737 21.0227 232.465 20.988 232.145 20.988C231.857 20.988 231.593 21.0307 231.353 21.116C231.119 21.196 230.916 21.3053 230.745 21.444C230.58 21.5827 230.452 21.7453 230.361 21.932C230.271 22.1133 230.225 22.3053 230.225 22.508C230.225 22.7587 230.289 22.9667 230.417 23.132C230.545 23.2973 230.711 23.4387 230.913 23.556C231.121 23.6733 231.359 23.7747 231.625 23.86C231.892 23.9453 232.161 24.0307 232.433 24.116C232.711 24.2013 232.983 24.2973 233.249 24.404C233.516 24.5053 233.751 24.6333 233.953 24.788C234.161 24.9427 234.329 25.132 234.457 25.356C234.585 25.58 234.649 25.852 234.649 26.172C234.649 26.5187 234.588 26.8413 234.465 27.14C234.343 27.4387 234.161 27.6973 233.921 27.916C233.687 28.1347 233.396 28.308 233.049 28.436C232.703 28.564 232.305 28.628 231.857 28.628C231.297 28.628 230.815 28.54 230.409 28.364C230.004 28.1827 229.641 27.948 229.321 27.66L229.497 27.388C229.524 27.3453 229.553 27.3133 229.585 27.292C229.623 27.2707 229.671 27.26 229.729 27.26C229.799 27.26 229.881 27.3027 229.977 27.388C230.079 27.4733 230.212 27.5667 230.377 27.668C230.543 27.764 230.745 27.8547 230.985 27.94C231.231 28.0253 231.532 28.068 231.889 28.068C232.225 28.068 232.521 28.0227 232.777 27.932C233.033 27.836 233.247 27.708 233.417 27.548C233.588 27.388 233.716 27.2013 233.801 26.988C233.892 26.7693 233.937 26.54 233.937 26.3C233.937 26.0333 233.873 25.812 233.745 25.636C233.617 25.46 233.449 25.3107 233.241 25.188C233.033 25.0653 232.796 24.9613 232.529 24.876C232.268 24.7907 231.999 24.7053 231.721 24.62C231.444 24.5347 231.172 24.4413 230.905 24.34C230.644 24.2387 230.409 24.1107 230.201 23.956C229.993 23.8013 229.825 23.6147 229.697 23.396C229.569 23.172 229.505 22.8947 229.505 22.564C229.505 22.2813 229.567 22.0093 229.689 21.748C229.812 21.4867 229.985 21.2573 230.209 21.06C230.439 20.8627 230.716 20.7053 231.041 20.588C231.367 20.4707 231.732 20.412 232.137 20.412C232.623 20.412 233.052 20.4813 233.425 20.62C233.804 20.7587 234.148 20.972 234.457 21.26L234.297 21.524Z" fill="#2D2D2D"/>
</svg>
