<svg width="223" height="44" viewBox="0 0 223 44" fill="none" xmlns="http://www.w3.org/2000/svg">
<path d="M33 13L34.3155 18.824L39.364 15.636L36.176 20.6845L42 22L36.176 23.3155L39.364 28.364L34.3155 25.176L33 31L31.6845 25.176L26.636 28.364L29.824 23.3155L24 22L29.824 20.6845L26.636 15.636L31.6845 18.824L33 13Z" fill="#C4A195"/>
<path d="M58.472 27.82L58.456 28.5H51.672V17.18H58.456V17.86H52.496V22.436H57.456V23.1H52.496V27.82H58.472ZM66.4333 28.5H65.7053C65.6306 28.5 65.5719 28.4787 65.5293 28.436C65.4866 28.388 65.4519 28.3427 65.4253 28.3L63.0093 24.772C62.9879 24.868 62.9479 24.9613 62.8893 25.052L60.5853 28.3C60.5479 28.348 60.5079 28.3933 60.4653 28.436C60.4279 28.4787 60.3773 28.5 60.3133 28.5H59.6253L62.5213 24.428L59.7373 20.54H60.4653C60.5399 20.54 60.5959 20.556 60.6333 20.588C60.6706 20.62 60.7026 20.6573 60.7293 20.7L63.0653 24.068C63.0759 24.0253 63.0919 23.98 63.1133 23.932C63.1399 23.884 63.1666 23.836 63.1933 23.788L65.3773 20.708C65.4093 20.66 65.4439 20.62 65.4813 20.588C65.5186 20.556 65.5666 20.54 65.6253 20.54H66.3213L63.5453 24.38L66.4333 28.5ZM73.1015 21.604C73.0748 21.6307 73.0482 21.6547 73.0215 21.676C73.0002 21.692 72.9682 21.7 72.9255 21.7C72.8722 21.7 72.8002 21.6653 72.7095 21.596C72.6188 21.5213 72.4962 21.4413 72.3415 21.356C72.1868 21.2707 71.9922 21.1933 71.7575 21.124C71.5282 21.0493 71.2482 21.012 70.9175 21.012C70.4588 21.012 70.0508 21.0947 69.6935 21.26C69.3415 21.42 69.0428 21.652 68.7975 21.956C68.5522 22.26 68.3655 22.628 68.2375 23.06C68.1148 23.492 68.0535 23.9773 68.0535 24.516C68.0535 25.076 68.1175 25.572 68.2455 26.004C68.3788 26.436 68.5655 26.8013 68.8055 27.1C69.0455 27.3933 69.3362 27.6173 69.6775 27.772C70.0188 27.9267 70.3975 28.004 70.8135 28.004C71.1975 28.004 71.5175 27.9587 71.7735 27.868C72.0348 27.7773 72.2482 27.6787 72.4135 27.572C72.5842 27.4653 72.7175 27.3667 72.8135 27.276C72.9095 27.1853 72.9895 27.14 73.0535 27.14C73.1175 27.14 73.1708 27.1667 73.2135 27.22L73.4135 27.476C73.2908 27.636 73.1362 27.7853 72.9495 27.924C72.7628 28.0627 72.5522 28.1827 72.3175 28.284C72.0828 28.3853 71.8268 28.4627 71.5495 28.516C71.2775 28.5747 70.9922 28.604 70.6935 28.604C70.1868 28.604 69.7228 28.5133 69.3015 28.332C68.8855 28.1453 68.5255 27.8787 68.2215 27.532C67.9228 27.18 67.6882 26.7507 67.5175 26.244C67.3522 25.7373 67.2695 25.1613 67.2695 24.516C67.2695 23.908 67.3495 23.3533 67.5095 22.852C67.6695 22.3507 67.9042 21.9187 68.2135 21.556C68.5228 21.1933 68.8988 20.9133 69.3415 20.716C69.7895 20.5133 70.3015 20.412 70.8775 20.412C71.3948 20.412 71.8535 20.4947 72.2535 20.66C72.6535 20.8253 73.0028 21.0493 73.3015 21.332L73.1015 21.604ZM76.1364 16.86V28.5H75.3684V16.86H76.1364ZM85.0036 20.54V28.5H84.5796C84.4463 28.5 84.369 28.4307 84.3476 28.292L84.2756 27.108C83.9076 27.5667 83.481 27.9347 82.9956 28.212C82.5156 28.4893 81.9796 28.628 81.3876 28.628C80.945 28.628 80.5583 28.5587 80.2276 28.42C79.897 28.2813 79.6223 28.0813 79.4036 27.82C79.185 27.5587 79.0196 27.244 78.9076 26.876C78.7956 26.508 78.7396 26.092 78.7396 25.628V20.54H79.5076V25.628C79.5076 26.3747 79.6783 26.9613 80.0196 27.388C80.361 27.8093 80.881 28.02 81.5796 28.02C82.097 28.02 82.5796 27.8893 83.0276 27.628C83.481 27.3613 83.8836 26.9933 84.2356 26.524V20.54H85.0036ZM92.0005 21.524C91.9578 21.5987 91.8965 21.636 91.8165 21.636C91.7578 21.636 91.6832 21.604 91.5925 21.54C91.5018 21.4707 91.3792 21.396 91.2245 21.316C91.0752 21.2307 90.8885 21.156 90.6645 21.092C90.4405 21.0227 90.1685 20.988 89.8485 20.988C89.5605 20.988 89.2965 21.0307 89.0565 21.116C88.8218 21.196 88.6192 21.3053 88.4485 21.444C88.2832 21.5827 88.1552 21.7453 88.0645 21.932C87.9738 22.1133 87.9285 22.3053 87.9285 22.508C87.9285 22.7587 87.9925 22.9667 88.1205 23.132C88.2485 23.2973 88.4138 23.4387 88.6165 23.556C88.8245 23.6733 89.0618 23.7747 89.3285 23.86C89.5952 23.9453 89.8645 24.0307 90.1365 24.116C90.4138 24.2013 90.6858 24.2973 90.9525 24.404C91.2192 24.5053 91.4538 24.6333 91.6565 24.788C91.8645 24.9427 92.0325 25.132 92.1605 25.356C92.2885 25.58 92.3525 25.852 92.3525 26.172C92.3525 26.5187 92.2912 26.8413 92.1685 27.14C92.0458 27.4387 91.8645 27.6973 91.6245 27.916C91.3898 28.1347 91.0992 28.308 90.7525 28.436C90.4058 28.564 90.0085 28.628 89.5605 28.628C89.0005 28.628 88.5178 28.54 88.1125 28.364C87.7072 28.1827 87.3445 27.948 87.0245 27.66L87.2005 27.388C87.2272 27.3453 87.2565 27.3133 87.2885 27.292C87.3258 27.2707 87.3738 27.26 87.4325 27.26C87.5018 27.26 87.5845 27.3027 87.6805 27.388C87.7818 27.4733 87.9152 27.5667 88.0805 27.668C88.2458 27.764 88.4485 27.8547 88.6885 27.94C88.9338 28.0253 89.2352 28.068 89.5925 28.068C89.9285 28.068 90.2245 28.0227 90.4805 27.932C90.7365 27.836 90.9498 27.708 91.1205 27.548C91.2912 27.388 91.4192 27.2013 91.5045 26.988C91.5952 26.7693 91.6405 26.54 91.6405 26.3C91.6405 26.0333 91.5765 25.812 91.4485 25.636C91.3205 25.46 91.1525 25.3107 90.9445 25.188C90.7365 25.0653 90.4992 24.9613 90.2325 24.876C89.9712 24.7907 89.7018 24.7053 89.4245 24.62C89.1472 24.5347 88.8752 24.4413 88.6085 24.34C88.3472 24.2387 88.1125 24.1107 87.9045 23.956C87.6965 23.8013 87.5285 23.6147 87.4005 23.396C87.2725 23.172 87.2085 22.8947 87.2085 22.564C87.2085 22.2813 87.2698 22.0093 87.3925 21.748C87.5152 21.4867 87.6885 21.2573 87.9125 21.06C88.1418 20.8627 88.4192 20.7053 88.7445 20.588C89.0698 20.4707 89.4352 20.412 89.8405 20.412C90.3258 20.412 90.7552 20.4813 91.1285 20.62C91.5072 20.7587 91.8512 20.972 92.1605 21.26L92.0005 21.524ZM95.2694 20.54V28.5H94.5094V20.54H95.2694ZM95.5974 17.796C95.5974 17.892 95.576 17.9827 95.5334 18.068C95.496 18.148 95.4454 18.22 95.3814 18.284C95.3174 18.348 95.2427 18.3987 95.1574 18.436C95.072 18.4733 94.9814 18.492 94.8854 18.492C94.7894 18.492 94.6987 18.4733 94.6134 18.436C94.528 18.3987 94.4534 18.348 94.3894 18.284C94.3254 18.22 94.2747 18.148 94.2374 18.068C94.2 17.9827 94.1814 17.892 94.1814 17.796C94.1814 17.7 94.2 17.6093 94.2374 17.524C94.2747 17.4333 94.3254 17.356 94.3894 17.292C94.4534 17.228 94.528 17.1773 94.6134 17.14C94.6987 17.1027 94.7894 17.084 94.8854 17.084C94.9814 17.084 95.072 17.1027 95.1574 17.14C95.2427 17.1773 95.3174 17.228 95.3814 17.292C95.4454 17.356 95.496 17.4333 95.5334 17.524C95.576 17.6093 95.5974 17.7 95.5974 17.796ZM104.376 20.54L101.016 28.5H100.344L96.9839 20.54H97.5839C97.6585 20.54 97.7199 20.5613 97.7679 20.604C97.8159 20.6413 97.8479 20.684 97.8639 20.732L100.496 27.012C100.576 27.2467 100.64 27.4787 100.688 27.708C100.736 27.4787 100.803 27.2467 100.888 27.012L103.528 20.732C103.555 20.6733 103.589 20.628 103.632 20.596C103.68 20.5587 103.736 20.54 103.8 20.54H104.376ZM111.412 23.716C111.412 23.2893 111.35 22.908 111.228 22.572C111.11 22.2307 110.942 21.9427 110.724 21.708C110.505 21.4733 110.244 21.2947 109.94 21.172C109.641 21.044 109.31 20.98 108.948 20.98C108.537 20.98 108.169 21.044 107.844 21.172C107.518 21.3 107.236 21.484 106.996 21.724C106.761 21.964 106.572 22.252 106.428 22.588C106.284 22.924 106.188 23.3 106.14 23.716H111.412ZM106.1 24.204V24.356C106.1 24.9533 106.169 25.4787 106.308 25.932C106.446 26.3853 106.644 26.7667 106.9 27.076C107.156 27.38 107.465 27.6093 107.828 27.764C108.19 27.9187 108.596 27.996 109.044 27.996C109.444 27.996 109.79 27.9533 110.084 27.868C110.377 27.7773 110.622 27.6787 110.82 27.572C111.022 27.46 111.182 27.3613 111.3 27.276C111.417 27.1853 111.502 27.14 111.556 27.14C111.625 27.14 111.678 27.1667 111.716 27.22L111.924 27.476C111.796 27.636 111.625 27.7853 111.412 27.924C111.204 28.0627 110.969 28.1827 110.708 28.284C110.452 28.38 110.174 28.4573 109.876 28.516C109.582 28.5747 109.286 28.604 108.988 28.604C108.444 28.604 107.948 28.5107 107.5 28.324C107.052 28.132 106.668 27.8547 106.348 27.492C106.028 27.1293 105.78 26.6867 105.604 26.164C105.433 25.636 105.348 25.0333 105.348 24.356C105.348 23.7853 105.428 23.26 105.588 22.78C105.753 22.2947 105.988 21.8787 106.292 21.532C106.601 21.18 106.977 20.9053 107.42 20.708C107.868 20.5107 108.374 20.412 108.94 20.412C109.388 20.412 109.804 20.4893 110.188 20.644C110.572 20.7987 110.905 21.0253 111.188 21.324C111.47 21.6173 111.692 21.98 111.852 22.412C112.017 22.844 112.1 23.34 112.1 23.9C112.1 24.0173 112.084 24.0973 112.052 24.14C112.02 24.1827 111.966 24.204 111.892 24.204H106.1ZM124.371 18.556C124.323 18.6467 124.254 18.692 124.163 18.692C124.094 18.692 124.003 18.644 123.891 18.548C123.784 18.4467 123.638 18.3373 123.451 18.22C123.264 18.0973 123.03 17.9853 122.747 17.884C122.47 17.7827 122.126 17.732 121.715 17.732C121.304 17.732 120.942 17.7907 120.627 17.908C120.318 18.0253 120.056 18.1853 119.843 18.388C119.635 18.5907 119.475 18.8253 119.363 19.092C119.256 19.3587 119.203 19.6387 119.203 19.932C119.203 20.316 119.283 20.6333 119.443 20.884C119.608 21.1347 119.824 21.348 120.091 21.524C120.358 21.7 120.659 21.8493 120.995 21.972C121.336 22.0893 121.686 22.2067 122.043 22.324C122.4 22.4413 122.747 22.572 123.083 22.716C123.424 22.8547 123.728 23.0307 123.995 23.244C124.262 23.4573 124.475 23.7213 124.635 24.036C124.8 24.3453 124.883 24.732 124.883 25.196C124.883 25.6707 124.8 26.1187 124.635 26.54C124.475 26.956 124.24 27.3187 123.931 27.628C123.622 27.9373 123.243 28.1827 122.795 28.364C122.347 28.54 121.835 28.628 121.259 28.628C120.512 28.628 119.87 28.4973 119.331 28.236C118.792 27.9693 118.32 27.6067 117.915 27.148L118.139 26.796C118.203 26.716 118.278 26.676 118.363 26.676C118.411 26.676 118.472 26.708 118.547 26.772C118.622 26.836 118.712 26.916 118.819 27.012C118.926 27.1027 119.054 27.204 119.203 27.316C119.352 27.4227 119.526 27.524 119.723 27.62C119.92 27.7107 120.147 27.788 120.403 27.852C120.659 27.916 120.95 27.948 121.275 27.948C121.723 27.948 122.123 27.8813 122.475 27.748C122.827 27.6093 123.123 27.4227 123.363 27.188C123.608 26.9533 123.795 26.676 123.923 26.356C124.051 26.0307 124.115 25.684 124.115 25.316C124.115 24.916 124.032 24.588 123.867 24.332C123.707 24.0707 123.494 23.8547 123.227 23.684C122.96 23.508 122.656 23.3613 122.315 23.244C121.979 23.1267 121.632 23.012 121.275 22.9C120.918 22.788 120.568 22.6627 120.227 22.524C119.891 22.3853 119.59 22.2093 119.323 21.996C119.056 21.7773 118.84 21.508 118.675 21.188C118.515 20.8627 118.435 20.4573 118.435 19.972C118.435 19.5933 118.507 19.228 118.651 18.876C118.795 18.524 119.006 18.2147 119.283 17.948C119.56 17.676 119.902 17.46 120.307 17.3C120.718 17.1347 121.184 17.052 121.707 17.052C122.294 17.052 122.819 17.1453 123.283 17.332C123.752 17.5187 124.179 17.804 124.563 18.188L124.371 18.556ZM132.584 23.716C132.584 23.2893 132.522 22.908 132.4 22.572C132.282 22.2307 132.114 21.9427 131.896 21.708C131.677 21.4733 131.416 21.2947 131.112 21.172C130.813 21.044 130.482 20.98 130.12 20.98C129.709 20.98 129.341 21.044 129.016 21.172C128.69 21.3 128.408 21.484 128.168 21.724C127.933 21.964 127.744 22.252 127.6 22.588C127.456 22.924 127.36 23.3 127.312 23.716H132.584ZM127.272 24.204V24.356C127.272 24.9533 127.341 25.4787 127.48 25.932C127.618 26.3853 127.816 26.7667 128.072 27.076C128.328 27.38 128.637 27.6093 129 27.764C129.362 27.9187 129.768 27.996 130.216 27.996C130.616 27.996 130.962 27.9533 131.256 27.868C131.549 27.7773 131.794 27.6787 131.992 27.572C132.194 27.46 132.354 27.3613 132.472 27.276C132.589 27.1853 132.674 27.14 132.728 27.14C132.797 27.14 132.85 27.1667 132.888 27.22L133.096 27.476C132.968 27.636 132.797 27.7853 132.584 27.924C132.376 28.0627 132.141 28.1827 131.88 28.284C131.624 28.38 131.346 28.4573 131.048 28.516C130.754 28.5747 130.458 28.604 130.16 28.604C129.616 28.604 129.12 28.5107 128.672 28.324C128.224 28.132 127.84 27.8547 127.52 27.492C127.2 27.1293 126.952 26.6867 126.776 26.164C126.605 25.636 126.52 25.0333 126.52 24.356C126.52 23.7853 126.6 23.26 126.76 22.78C126.925 22.2947 127.16 21.8787 127.464 21.532C127.773 21.18 128.149 20.9053 128.592 20.708C129.04 20.5107 129.546 20.412 130.112 20.412C130.56 20.412 130.976 20.4893 131.36 20.644C131.744 20.7987 132.077 21.0253 132.36 21.324C132.642 21.6173 132.864 21.98 133.024 22.412C133.189 22.844 133.272 23.34 133.272 23.9C133.272 24.0173 133.256 24.0973 133.224 24.14C133.192 24.1827 133.138 24.204 133.064 24.204H127.272ZM137.488 28.628C136.949 28.628 136.528 28.4787 136.224 28.18C135.925 27.8813 135.776 27.42 135.776 26.796V21.356H134.632C134.573 21.356 134.525 21.34 134.488 21.308C134.451 21.276 134.432 21.2307 134.432 21.172V20.876L135.792 20.78L135.984 17.932C135.995 17.884 136.016 17.8413 136.048 17.804C136.08 17.7667 136.125 17.748 136.184 17.748H136.544V20.788H139.056V21.356H136.544V26.756C136.544 26.9747 136.571 27.164 136.624 27.324C136.683 27.4787 136.76 27.6067 136.856 27.708C136.957 27.8093 137.075 27.884 137.208 27.932C137.341 27.98 137.485 28.004 137.64 28.004C137.832 28.004 137.997 27.9773 138.136 27.924C138.275 27.8653 138.395 27.804 138.496 27.74C138.597 27.6707 138.68 27.6093 138.744 27.556C138.808 27.4973 138.859 27.468 138.896 27.468C138.939 27.468 138.981 27.4947 139.024 27.548L139.232 27.884C139.029 28.108 138.771 28.2893 138.456 28.428C138.147 28.5613 137.824 28.628 137.488 28.628ZM155.036 22.836C155.036 23.7107 154.905 24.4973 154.644 25.196C154.383 25.8947 154.015 26.4893 153.54 26.98C153.065 27.4707 152.495 27.8467 151.828 28.108C151.167 28.3693 150.436 28.5 149.636 28.5H145.5V17.18H149.636C150.436 17.18 151.167 17.3107 151.828 17.572C152.495 17.8333 153.065 18.2093 153.54 18.7C154.015 19.1907 154.383 19.7853 154.644 20.484C154.905 21.1827 155.036 21.9667 155.036 22.836ZM154.188 22.836C154.188 22.0467 154.079 21.3427 153.86 20.724C153.641 20.1053 153.332 19.5827 152.932 19.156C152.532 18.7293 152.052 18.404 151.492 18.18C150.932 17.956 150.313 17.844 149.636 17.844H146.324V27.836H149.636C150.313 27.836 150.932 27.724 151.492 27.5C152.052 27.276 152.532 26.9507 152.932 26.524C153.332 26.0973 153.641 25.5747 153.86 24.956C154.079 24.3373 154.188 23.6307 154.188 22.836ZM162.755 23.716C162.755 23.2893 162.694 22.908 162.571 22.572C162.454 22.2307 162.286 21.9427 162.067 21.708C161.849 21.4733 161.587 21.2947 161.283 21.172C160.985 21.044 160.654 20.98 160.291 20.98C159.881 20.98 159.513 21.044 159.187 21.172C158.862 21.3 158.579 21.484 158.339 21.724C158.105 21.964 157.915 22.252 157.771 22.588C157.627 22.924 157.531 23.3 157.483 23.716H162.755ZM157.443 24.204V24.356C157.443 24.9533 157.513 25.4787 157.651 25.932C157.79 26.3853 157.987 26.7667 158.243 27.076C158.499 27.38 158.809 27.6093 159.171 27.764C159.534 27.9187 159.939 27.996 160.387 27.996C160.787 27.996 161.134 27.9533 161.427 27.868C161.721 27.7773 161.966 27.6787 162.163 27.572C162.366 27.46 162.526 27.3613 162.643 27.276C162.761 27.1853 162.846 27.14 162.899 27.14C162.969 27.14 163.022 27.1667 163.059 27.22L163.267 27.476C163.139 27.636 162.969 27.7853 162.755 27.924C162.547 28.0627 162.313 28.1827 162.051 28.284C161.795 28.38 161.518 28.4573 161.219 28.516C160.926 28.5747 160.63 28.604 160.331 28.604C159.787 28.604 159.291 28.5107 158.843 28.324C158.395 28.132 158.011 27.8547 157.691 27.492C157.371 27.1293 157.123 26.6867 156.947 26.164C156.777 25.636 156.691 25.0333 156.691 24.356C156.691 23.7853 156.771 23.26 156.931 22.78C157.097 22.2947 157.331 21.8787 157.635 21.532C157.945 21.18 158.321 20.9053 158.763 20.708C159.211 20.5107 159.718 20.412 160.283 20.412C160.731 20.412 161.147 20.4893 161.531 20.644C161.915 20.7987 162.249 21.0253 162.531 21.324C162.814 21.6173 163.035 21.98 163.195 22.412C163.361 22.844 163.443 23.34 163.443 23.9C163.443 24.0173 163.427 24.0973 163.395 24.14C163.363 24.1827 163.31 24.204 163.235 24.204H157.443ZM169.891 21.524C169.848 21.5987 169.787 21.636 169.707 21.636C169.648 21.636 169.574 21.604 169.483 21.54C169.392 21.4707 169.27 21.396 169.115 21.316C168.966 21.2307 168.779 21.156 168.555 21.092C168.331 21.0227 168.059 20.988 167.739 20.988C167.451 20.988 167.187 21.0307 166.947 21.116C166.712 21.196 166.51 21.3053 166.339 21.444C166.174 21.5827 166.046 21.7453 165.955 21.932C165.864 22.1133 165.819 22.3053 165.819 22.508C165.819 22.7587 165.883 22.9667 166.011 23.132C166.139 23.2973 166.304 23.4387 166.507 23.556C166.715 23.6733 166.952 23.7747 167.219 23.86C167.486 23.9453 167.755 24.0307 168.027 24.116C168.304 24.2013 168.576 24.2973 168.843 24.404C169.11 24.5053 169.344 24.6333 169.547 24.788C169.755 24.9427 169.923 25.132 170.051 25.356C170.179 25.58 170.243 25.852 170.243 26.172C170.243 26.5187 170.182 26.8413 170.059 27.14C169.936 27.4387 169.755 27.6973 169.515 27.916C169.28 28.1347 168.99 28.308 168.643 28.436C168.296 28.564 167.899 28.628 167.451 28.628C166.891 28.628 166.408 28.54 166.003 28.364C165.598 28.1827 165.235 27.948 164.915 27.66L165.091 27.388C165.118 27.3453 165.147 27.3133 165.179 27.292C165.216 27.2707 165.264 27.26 165.323 27.26C165.392 27.26 165.475 27.3027 165.571 27.388C165.672 27.4733 165.806 27.5667 165.971 27.668C166.136 27.764 166.339 27.8547 166.579 27.94C166.824 28.0253 167.126 28.068 167.483 28.068C167.819 28.068 168.115 28.0227 168.371 27.932C168.627 27.836 168.84 27.708 169.011 27.548C169.182 27.388 169.31 27.2013 169.395 26.988C169.486 26.7693 169.531 26.54 169.531 26.3C169.531 26.0333 169.467 25.812 169.339 25.636C169.211 25.46 169.043 25.3107 168.835 25.188C168.627 25.0653 168.39 24.9613 168.123 24.876C167.862 24.7907 167.592 24.7053 167.315 24.62C167.038 24.5347 166.766 24.4413 166.499 24.34C166.238 24.2387 166.003 24.1107 165.795 23.956C165.587 23.8013 165.419 23.6147 165.291 23.396C165.163 23.172 165.099 22.8947 165.099 22.564C165.099 22.2813 165.16 22.0093 165.283 21.748C165.406 21.4867 165.579 21.2573 165.803 21.06C166.032 20.8627 166.31 20.7053 166.635 20.588C166.96 20.4707 167.326 20.412 167.731 20.412C168.216 20.412 168.646 20.4813 169.019 20.62C169.398 20.7587 169.742 20.972 170.051 21.26L169.891 21.524ZM173.16 20.54V28.5H172.4V20.54H173.16ZM173.488 17.796C173.488 17.892 173.467 17.9827 173.424 18.068C173.387 18.148 173.336 18.22 173.272 18.284C173.208 18.348 173.133 18.3987 173.048 18.436C172.963 18.4733 172.872 18.492 172.776 18.492C172.68 18.492 172.589 18.4733 172.504 18.436C172.419 18.3987 172.344 18.348 172.28 18.284C172.216 18.22 172.165 18.148 172.128 18.068C172.091 17.9827 172.072 17.892 172.072 17.796C172.072 17.7 172.091 17.6093 172.128 17.524C172.165 17.4333 172.216 17.356 172.28 17.292C172.344 17.228 172.419 17.1773 172.504 17.14C172.589 17.1027 172.68 17.084 172.776 17.084C172.872 17.084 172.963 17.1027 173.048 17.14C173.133 17.1773 173.208 17.228 173.272 17.292C173.336 17.356 173.387 17.4333 173.424 17.524C173.467 17.6093 173.488 17.7 173.488 17.796ZM178.475 24.98C178.816 24.98 179.12 24.932 179.387 24.836C179.653 24.7347 179.877 24.596 180.059 24.42C180.24 24.244 180.379 24.0333 180.475 23.788C180.571 23.5427 180.619 23.2707 180.619 22.972C180.619 22.6733 180.568 22.4013 180.467 22.156C180.371 21.9053 180.229 21.692 180.043 21.516C179.861 21.34 179.637 21.204 179.371 21.108C179.109 21.012 178.811 20.964 178.475 20.964C178.139 20.964 177.837 21.012 177.571 21.108C177.309 21.204 177.085 21.34 176.899 21.516C176.717 21.692 176.579 21.9053 176.483 22.156C176.387 22.4013 176.339 22.6733 176.339 22.972C176.339 23.2707 176.387 23.5427 176.483 23.788C176.579 24.0333 176.717 24.244 176.899 24.42C177.085 24.596 177.309 24.7347 177.571 24.836C177.837 24.932 178.139 24.98 178.475 24.98ZM181.451 29.036C181.451 28.7853 181.384 28.5853 181.251 28.436C181.123 28.2813 180.949 28.1613 180.731 28.076C180.512 27.9907 180.259 27.932 179.971 27.9C179.688 27.8627 179.389 27.836 179.075 27.82C178.765 27.804 178.453 27.788 178.139 27.772C177.824 27.756 177.528 27.724 177.251 27.676C177.048 27.756 176.861 27.8493 176.691 27.956C176.52 28.0573 176.373 28.1747 176.251 28.308C176.128 28.4413 176.032 28.5853 175.963 28.74C175.893 28.9 175.859 29.0707 175.859 29.252C175.859 29.4867 175.917 29.7027 176.035 29.9C176.157 30.1027 176.333 30.276 176.562 30.42C176.797 30.5693 177.083 30.6867 177.419 30.772C177.755 30.8573 178.141 30.9 178.579 30.9C178.984 30.9 179.36 30.8547 179.707 30.764C180.059 30.6733 180.363 30.5453 180.619 30.38C180.88 30.2147 181.083 30.0173 181.227 29.788C181.376 29.5587 181.451 29.308 181.451 29.036ZM182.283 20.892V21.156C182.283 21.2733 182.208 21.3453 182.059 21.372L180.843 21.46C180.992 21.6627 181.107 21.8893 181.187 22.14C181.267 22.3907 181.307 22.6627 181.307 22.956C181.307 23.34 181.237 23.6893 181.099 24.004C180.965 24.3133 180.773 24.58 180.523 24.804C180.277 25.0227 179.979 25.1933 179.627 25.316C179.28 25.4387 178.896 25.5 178.475 25.5C178.021 25.5 177.608 25.4307 177.235 25.292C177.011 25.42 176.832 25.572 176.699 25.748C176.571 25.9187 176.507 26.0893 176.507 26.26C176.507 26.4893 176.587 26.6653 176.747 26.788C176.912 26.9107 177.125 27.0013 177.387 27.06C177.653 27.1133 177.955 27.148 178.291 27.164C178.632 27.18 178.979 27.1987 179.331 27.22C179.683 27.236 180.027 27.268 180.363 27.316C180.704 27.364 181.005 27.4493 181.267 27.572C181.533 27.6893 181.747 27.8573 181.907 28.076C182.072 28.2893 182.155 28.5747 182.155 28.932C182.155 29.2627 182.072 29.58 181.907 29.884C181.741 30.188 181.501 30.4573 181.187 30.692C180.877 30.9267 180.501 31.1133 180.059 31.252C179.616 31.396 179.12 31.468 178.571 31.468C178.011 31.468 177.52 31.4093 177.099 31.292C176.677 31.18 176.323 31.0253 176.035 30.828C175.752 30.636 175.539 30.412 175.395 30.156C175.251 29.9 175.179 29.628 175.179 29.34C175.179 28.9187 175.317 28.5587 175.595 28.26C175.872 27.956 176.251 27.7187 176.731 27.548C176.464 27.4573 176.248 27.3267 176.083 27.156C175.923 26.98 175.843 26.7427 175.843 26.444C175.843 26.332 175.864 26.2147 175.907 26.092C175.949 25.9693 176.013 25.8493 176.099 25.732C176.184 25.6093 176.288 25.4947 176.411 25.388C176.533 25.2813 176.672 25.1853 176.827 25.1C176.448 24.8813 176.152 24.5907 175.939 24.228C175.731 23.8653 175.627 23.4413 175.627 22.956C175.627 22.572 175.693 22.2253 175.827 21.916C175.965 21.6013 176.16 21.332 176.411 21.108C176.661 20.884 176.96 20.7107 177.307 20.588C177.659 20.4653 178.048 20.404 178.475 20.404C178.827 20.404 179.149 20.4467 179.443 20.532C179.741 20.6173 180.008 20.7373 180.243 20.892H182.283ZM184.774 21.932C185.142 21.4733 185.566 21.1053 186.046 20.828C186.532 20.5507 187.07 20.412 187.662 20.412C188.1 20.412 188.484 20.4813 188.814 20.62C189.15 20.7587 189.428 20.9587 189.646 21.22C189.865 21.4813 190.03 21.796 190.142 22.164C190.254 22.532 190.31 22.948 190.31 23.412V28.5H189.542V23.412C189.542 22.6653 189.372 22.0813 189.03 21.66C188.689 21.2333 188.169 21.02 187.47 21.02C186.953 21.02 186.468 21.1533 186.014 21.42C185.566 21.6813 185.166 22.0467 184.814 22.516V28.5H184.046V20.54H184.47C184.604 20.54 184.681 20.6067 184.702 20.74L184.774 21.932ZM197.219 21.524C197.177 21.5987 197.115 21.636 197.035 21.636C196.977 21.636 196.902 21.604 196.811 21.54C196.721 21.4707 196.598 21.396 196.443 21.316C196.294 21.2307 196.107 21.156 195.883 21.092C195.659 21.0227 195.387 20.988 195.067 20.988C194.779 20.988 194.515 21.0307 194.275 21.116C194.041 21.196 193.838 21.3053 193.667 21.444C193.502 21.5827 193.374 21.7453 193.283 21.932C193.193 22.1133 193.147 22.3053 193.147 22.508C193.147 22.7587 193.211 22.9667 193.339 23.132C193.467 23.2973 193.633 23.4387 193.835 23.556C194.043 23.6733 194.281 23.7747 194.547 23.86C194.814 23.9453 195.083 24.0307 195.355 24.116C195.633 24.2013 195.905 24.2973 196.171 24.404C196.438 24.5053 196.673 24.6333 196.875 24.788C197.083 24.9427 197.251 25.132 197.379 25.356C197.507 25.58 197.571 25.852 197.571 26.172C197.571 26.5187 197.51 26.8413 197.387 27.14C197.265 27.4387 197.083 27.6973 196.843 27.916C196.609 28.1347 196.318 28.308 195.971 28.436C195.625 28.564 195.227 28.628 194.779 28.628C194.219 28.628 193.737 28.54 193.331 28.364C192.926 28.1827 192.563 27.948 192.243 27.66L192.419 27.388C192.446 27.3453 192.475 27.3133 192.507 27.292C192.545 27.2707 192.593 27.26 192.651 27.26C192.721 27.26 192.803 27.3027 192.899 27.388C193.001 27.4733 193.134 27.5667 193.299 27.668C193.465 27.764 193.667 27.8547 193.907 27.94C194.153 28.0253 194.454 28.068 194.811 28.068C195.147 28.068 195.443 28.0227 195.699 27.932C195.955 27.836 196.169 27.708 196.339 27.548C196.51 27.388 196.638 27.2013 196.723 26.988C196.814 26.7693 196.859 26.54 196.859 26.3C196.859 26.0333 196.795 25.812 196.667 25.636C196.539 25.46 196.371 25.3107 196.163 25.188C195.955 25.0653 195.718 24.9613 195.451 24.876C195.19 24.7907 194.921 24.7053 194.643 24.62C194.366 24.5347 194.094 24.4413 193.827 24.34C193.566 24.2387 193.331 24.1107 193.123 23.956C192.915 23.8013 192.747 23.6147 192.619 23.396C192.491 23.172 192.427 22.8947 192.427 22.564C192.427 22.2813 192.489 22.0093 192.611 21.748C192.734 21.4867 192.907 21.2573 193.131 21.06C193.361 20.8627 193.638 20.7053 193.963 20.588C194.289 20.4707 194.654 20.412 195.059 20.412C195.545 20.412 195.974 20.4813 196.347 20.62C196.726 20.7587 197.07 20.972 197.379 21.26L197.219 21.524Z" fill="#2D2D2D"/>
</svg>
