<svg width="34" height="34" viewBox="0 0 34 34" fill="none" xmlns="http://www.w3.org/2000/svg">
<rect x="0.5" y="0.5" width="33" height="33" rx="3.5" stroke="#606060"/>
<path d="M17.0005 13.7495C16.1385 13.7495 15.3119 14.0919 14.7024 14.7014C14.0929 15.3109 13.7505 16.1376 13.7505 16.9995C13.7505 17.8615 14.0929 18.6881 14.7024 19.2976C15.3119 19.9071 16.1385 20.2495 17.0005 20.2495C17.8624 20.2495 18.6891 19.9071 19.2986 19.2976C19.9081 18.6881 20.2505 17.8615 20.2505 16.9995C20.2505 16.1376 19.9081 15.3109 19.2986 14.7014C18.6891 14.0919 17.8624 13.7495 17.0005 13.7495Z" fill="#606060"/>
<path fill-rule="evenodd" clip-rule="evenodd" d="M11.7701 8.08128C15.2462 7.69621 18.7541 7.69621 22.2301 8.08128C24.1291 8.29328 25.6601 9.78828 25.8831 11.6943C26.2951 15.219 26.2951 18.7796 25.8831 22.3043C25.6601 24.2103 24.1291 25.7053 22.2311 25.9183C18.7548 26.3034 15.2465 26.3034 11.7701 25.9183C9.87112 25.7053 8.34012 24.2103 8.11712 22.3053C7.7051 18.7803 7.7051 15.2193 8.11712 11.6943C8.34012 9.78828 9.87112 8.29328 11.7701 8.08128ZM22.0001 10.9993C21.7349 10.9993 21.4805 11.1046 21.293 11.2922C21.1055 11.4797 21.0001 11.7341 21.0001 11.9993C21.0001 12.2645 21.1055 12.5189 21.293 12.7064C21.4805 12.8939 21.7349 12.9993 22.0001 12.9993C22.2653 12.9993 22.5197 12.8939 22.7072 12.7064C22.8948 12.5189 23.0001 12.2645 23.0001 11.9993C23.0001 11.7341 22.8948 11.4797 22.7072 11.2922C22.5197 11.1046 22.2653 10.9993 22.0001 10.9993ZM12.2501 16.9993C12.2501 15.7395 12.7506 14.5313 13.6414 13.6405C14.5322 12.7497 15.7403 12.2493 17.0001 12.2493C18.2599 12.2493 19.4681 12.7497 20.3589 13.6405C21.2497 14.5313 21.7501 15.7395 21.7501 16.9993C21.7501 18.2591 21.2497 19.4672 20.3589 20.358C19.4681 21.2488 18.2599 21.7493 17.0001 21.7493C15.7403 21.7493 14.5322 21.2488 13.6414 20.358C12.7506 19.4672 12.2501 18.2591 12.2501 16.9993Z" fill="#606060"/>
</svg>
