<svg width="34" height="34" viewBox="0 0 34 34" fill="none" xmlns="http://www.w3.org/2000/svg">
<rect x="0.5" y="0.5" width="33" height="33" rx="3.5" stroke="#606060"/>
<path d="M25.625 7.625H8.375C7.96016 7.625 7.625 7.96016 7.625 8.375V25.625C7.625 26.0398 7.96016 26.375 8.375 26.375H25.625C26.0398 26.375 26.375 26.0398 26.375 25.625V8.375C26.375 7.96016 26.0398 7.625 25.625 7.625ZM23.4594 13.0977H21.9617C20.7875 13.0977 20.5602 13.6555 20.5602 14.4758V16.2828H23.3633L22.9977 19.1117H20.5602V26.375H17.6375V19.1141H15.193V16.2828H17.6375V14.1969C17.6375 11.7758 19.1164 10.4563 21.2773 10.4563C22.3133 10.4563 23.2016 10.5336 23.4617 10.5688V13.0977H23.4594Z" fill="#606060"/>
</svg>
