<svg width="78" height="44" viewBox="0 0 70 38" fill="none" xmlns="http://www.w3.org/2000/svg">
<path d="M10.2539 25.3431C10.2539 25.1307 10.2291 24.9751 10.1796 24.876C10.1371 24.7698 10.0522 24.6955 9.92482 24.653C9.79743 24.6106 9.59574 24.5894 9.31973 24.5894C9.2985 24.5894 9.28789 24.5681 9.28789 24.5257C9.28789 24.4832 9.2985 24.462 9.31973 24.462L9.82928 24.4726C10.1407 24.4867 10.399 24.4938 10.6042 24.4938C10.7953 24.4938 11.0394 24.4867 11.3367 24.4726L11.8568 24.462C11.8781 24.462 11.8887 24.4832 11.8887 24.5257C11.8887 24.5681 11.8781 24.5894 11.8568 24.5894C11.5879 24.5894 11.3898 24.6106 11.2624 24.653C11.135 24.6884 11.0465 24.7557 10.997 24.8547C10.9545 24.9538 10.9333 25.1095 10.9333 25.3218V30.2368C10.9333 30.4491 10.9545 30.6084 10.997 30.7145C11.0465 30.8136 11.135 30.8808 11.2624 30.9162C11.3898 30.9516 11.5879 30.9693 11.8568 30.9693C11.8781 30.9693 11.8887 30.9905 11.8887 31.033C11.8887 31.0754 11.8781 31.0967 11.8568 31.0967C11.6375 31.0967 11.4641 31.0931 11.3367 31.0861L10.6042 31.0754L9.82928 31.0861C9.70189 31.0931 9.53204 31.0967 9.31973 31.0967C9.2985 31.0967 9.28789 31.0754 9.28789 31.033C9.28789 30.9905 9.2985 30.9693 9.31973 30.9693C9.59574 30.9693 9.79743 30.9516 9.92482 30.9162C10.0522 30.8808 10.1371 30.8136 10.1796 30.7145C10.2291 30.6084 10.2539 30.4491 10.2539 30.2368V25.3431ZM5.80599 27.5299H10.5511V27.7528H5.80599V27.5299ZM5.49814 25.3218C5.49814 25.1095 5.47337 24.9538 5.42383 24.8547C5.38137 24.7557 5.29644 24.6884 5.16906 24.653C5.04167 24.6106 4.84351 24.5894 4.57459 24.5894C4.56043 24.5894 4.55336 24.5681 4.55336 24.5257C4.55336 24.4832 4.56043 24.462 4.57459 24.462L5.11598 24.4726C5.41322 24.4867 5.6503 24.4938 5.82722 24.4938C6.03245 24.4938 6.29077 24.4867 6.60216 24.4726L7.1117 24.462C7.12586 24.462 7.13293 24.4832 7.13293 24.5257C7.13293 24.5681 7.12586 24.5894 7.1117 24.5894C6.84277 24.5894 6.64108 24.6106 6.50662 24.653C6.37923 24.6955 6.29077 24.7698 6.24123 24.876C6.19876 24.9751 6.17753 25.1307 6.17753 25.3431V30.2368C6.17753 30.4491 6.19876 30.6084 6.24123 30.7145C6.29077 30.8136 6.37923 30.8808 6.50662 30.9162C6.634 30.9516 6.8357 30.9693 7.1117 30.9693C7.12586 30.9693 7.13293 30.9905 7.13293 31.033C7.13293 31.0754 7.12586 31.0967 7.1117 31.0967C6.89231 31.0967 6.71893 31.0931 6.59154 31.0861L5.82722 31.0754L5.09475 31.0861C4.96736 31.0931 4.79044 31.0967 4.56397 31.0967C4.54982 31.0967 4.54274 31.0754 4.54274 31.033C4.54274 30.9905 4.54982 30.9693 4.56397 30.9693C4.8329 30.9693 5.03106 30.9516 5.15844 30.9162C5.29291 30.8808 5.38137 30.8136 5.42383 30.7145C5.47337 30.6084 5.49814 30.4491 5.49814 30.2368V25.3218ZM14.3599 30.2368C14.3599 30.4562 14.3811 30.6154 14.4236 30.7145C14.466 30.8136 14.5474 30.8808 14.6677 30.9162C14.7951 30.9516 14.9933 30.9693 15.2622 30.9693C15.2834 30.9693 15.294 30.9905 15.294 31.033C15.294 31.0754 15.2834 31.0967 15.2622 31.0967C15.0499 31.0967 14.88 31.0931 14.7526 31.0861L13.9989 31.0754L13.2665 31.0861C13.1391 31.0931 12.9657 31.0967 12.7463 31.0967C12.7251 31.0967 12.7145 31.0754 12.7145 31.033C12.7145 30.9905 12.7251 30.9693 12.7463 30.9693C13.0152 30.9693 13.2099 30.9516 13.3302 30.9162C13.4576 30.8808 13.5425 30.8136 13.5849 30.7145C13.6345 30.6084 13.6592 30.4491 13.6592 30.2368V25.3218C13.6592 25.1095 13.6345 24.9538 13.5849 24.8547C13.5425 24.7557 13.4576 24.6884 13.3302 24.653C13.2099 24.6106 13.0152 24.5894 12.7463 24.5894C12.7251 24.5894 12.7145 24.5681 12.7145 24.5257C12.7145 24.4832 12.7251 24.462 12.7463 24.462L13.2665 24.4726C13.5637 24.4867 13.8079 24.4938 13.9989 24.4938C14.2113 24.4938 14.466 24.4867 14.7633 24.4726L15.2622 24.462C15.2834 24.462 15.294 24.4832 15.294 24.5257C15.294 24.5681 15.2834 24.5894 15.2622 24.5894C15.0003 24.5894 14.8057 24.6106 14.6783 24.653C14.551 24.6955 14.466 24.7698 14.4236 24.876C14.3811 24.9751 14.3599 25.1307 14.3599 25.3431V30.2368ZM16.2179 31.0967C16.2038 31.0967 16.1967 31.0754 16.1967 31.033C16.1967 30.9905 16.2038 30.9693 16.2179 30.9693C16.4869 30.9693 16.685 30.9516 16.8124 30.9162C16.9398 30.8808 17.0247 30.8136 17.0672 30.7145C17.1167 30.6084 17.1415 30.4491 17.1415 30.2368V25.3218C17.1415 25.1095 17.1167 24.9538 17.0672 24.8547C17.0247 24.7557 16.9398 24.6884 16.8124 24.653C16.6921 24.6106 16.4975 24.5894 16.2285 24.5894C16.2144 24.5894 16.2073 24.5681 16.2073 24.5257C16.2073 24.4832 16.2144 24.462 16.2285 24.462H20.496C20.5597 24.462 20.5915 24.4938 20.5915 24.5575L20.6128 25.8632C20.6128 25.8845 20.5915 25.8986 20.5491 25.9057C20.5137 25.9057 20.496 25.8951 20.496 25.8738C20.4748 25.4988 20.3615 25.2086 20.1563 25.0034C19.9511 24.7911 19.6786 24.6849 19.3389 24.6849H18.6913C18.4507 24.6849 18.2703 24.7026 18.15 24.738C18.0296 24.7734 17.9447 24.8371 17.8952 24.9291C17.8456 25.0211 17.8209 25.1555 17.8209 25.3324V30.1944C17.8209 30.4208 17.8492 30.5871 17.9058 30.6933C17.9695 30.7924 18.0898 30.8631 18.2667 30.9056C18.4507 30.9481 18.7338 30.9693 19.116 30.9693C19.1372 30.9693 19.1478 30.9905 19.1478 31.033C19.1478 31.0754 19.1372 31.0967 19.116 31.0967C18.8258 31.0967 18.5993 31.0931 18.4366 31.0861L17.4812 31.0754L16.7593 31.0861C16.6319 31.0931 16.4515 31.0967 16.2179 31.0967ZM19.9546 28.7506C19.9546 28.4393 19.8697 28.2163 19.6998 28.0819C19.537 27.9474 19.261 27.8802 18.8718 27.8802H17.5024V27.6572H18.9037C19.2787 27.6572 19.5441 27.6006 19.6998 27.4874C19.8626 27.3671 19.944 27.176 19.944 26.9142C19.944 26.9 19.9652 26.8929 20.0077 26.8929C20.0501 26.8929 20.0714 26.9 20.0714 26.9142L20.0607 27.774C20.0607 27.9793 20.0643 28.1349 20.0714 28.2411L20.082 28.7506C20.082 28.7648 20.0607 28.7719 20.0183 28.7719C19.9758 28.7719 19.9546 28.7648 19.9546 28.7506ZM22.7124 25.704C22.7124 25.98 22.7796 26.2206 22.9141 26.4258C23.0486 26.6311 23.2113 26.8045 23.4024 26.946C23.5935 27.0805 23.8624 27.2539 24.2092 27.4662C24.5772 27.6856 24.8638 27.8696 25.069 28.0182C25.2743 28.1668 25.4477 28.3579 25.5892 28.5914C25.7378 28.8179 25.8121 29.0903 25.8121 29.4088C25.8121 29.7485 25.7272 30.0564 25.5574 30.3324C25.3875 30.6084 25.1363 30.8278 24.8037 30.9905C24.4781 31.1462 24.0853 31.2241 23.6253 31.2241C23.0804 31.2241 22.5815 31.1002 22.1285 30.8525C22.0932 30.8313 22.0684 30.8065 22.0542 30.7782C22.0472 30.7499 22.0401 30.7074 22.033 30.6508L21.895 29.2071C21.8879 29.1788 21.9021 29.1611 21.9375 29.154C21.9799 29.147 22.0047 29.1576 22.0118 29.1859C22.1179 29.6884 22.3267 30.1271 22.6381 30.5022C22.9495 30.8702 23.3599 31.0542 23.8695 31.0542C24.2233 31.0542 24.5206 30.9587 24.7612 30.7676C25.0089 30.5694 25.1327 30.2581 25.1327 29.8334C25.1327 29.515 25.062 29.239 24.9204 29.0054C24.7789 28.7719 24.6055 28.5808 24.4003 28.4322C24.2021 28.2765 23.9296 28.096 23.5829 27.8908C23.2432 27.6856 22.9742 27.5086 22.7761 27.36C22.585 27.2114 22.4222 27.0239 22.2878 26.7974C22.1533 26.5709 22.0861 26.3055 22.0861 26.0012C22.0861 25.6474 22.1781 25.3466 22.3621 25.0989C22.5532 24.8441 22.7973 24.6566 23.0946 24.5363C23.3989 24.4089 23.7209 24.3452 24.0606 24.3452C24.4781 24.3452 24.8921 24.4301 25.3026 24.6C25.4087 24.6354 25.4618 24.6955 25.4618 24.7804L25.5361 25.9906C25.5361 26.026 25.5149 26.0437 25.4724 26.0437C25.437 26.0437 25.4158 26.0295 25.4087 26.0012C25.3592 25.6332 25.2106 25.2935 24.9629 24.9821C24.7152 24.6637 24.3578 24.5044 23.8907 24.5044C23.4944 24.5044 23.1972 24.6212 22.999 24.8547C22.8079 25.0812 22.7124 25.3643 22.7124 25.704ZM28.5532 27.9651H31.3663L31.4406 28.1774H28.447L28.5532 27.9651ZM33.8079 30.9693C33.8362 30.9693 33.8503 30.9905 33.8503 31.033C33.8503 31.0754 33.8362 31.0967 33.8079 31.0967C33.6734 31.0967 33.4646 31.0896 33.1816 31.0754C32.8985 31.0613 32.6932 31.0542 32.5658 31.0542C32.4102 31.0542 32.212 31.0613 31.9714 31.0754C31.7449 31.0896 31.5715 31.0967 31.4512 31.0967C31.4229 31.0967 31.4088 31.0754 31.4088 31.033C31.4088 30.9905 31.4229 30.9693 31.4512 30.9693C31.7201 30.9693 31.9112 30.9445 32.0245 30.895C32.1448 30.8454 32.2049 30.757 32.2049 30.6296C32.2049 30.5234 32.1625 30.3748 32.0775 30.1837L29.7209 25.2051L29.9863 24.876L27.9269 29.7485C27.8278 29.9891 27.7782 30.1873 27.7782 30.343C27.7782 30.7605 28.125 30.9693 28.8186 30.9693C28.854 30.9693 28.8716 30.9905 28.8716 31.033C28.8716 31.0754 28.854 31.0967 28.8186 31.0967C28.6912 31.0967 28.5072 31.0896 28.2666 31.0754C27.9976 31.0613 27.7641 31.0542 27.5659 31.0542C27.3819 31.0542 27.1696 31.0613 26.929 31.0754C26.7167 31.0896 26.5398 31.0967 26.3982 31.0967C26.3628 31.0967 26.3451 31.0754 26.3451 31.033C26.3451 30.9905 26.3628 30.9693 26.3982 30.9693C26.5964 30.9693 26.7627 30.9339 26.8972 30.8631C27.0387 30.7853 27.1696 30.6544 27.2899 30.4704C27.4173 30.2793 27.5553 30.0068 27.7039 29.653L29.9438 24.3664C29.958 24.3452 29.9827 24.3346 30.0181 24.3346C30.0535 24.3346 30.0747 24.3452 30.0818 24.3664L32.5871 29.6424C32.8277 30.1661 33.0329 30.5199 33.2028 30.7039C33.3726 30.8808 33.5743 30.9693 33.8079 30.9693ZM37.6138 25.3218C37.6138 25.1095 37.5926 24.9538 37.5501 24.8547C37.5076 24.7557 37.4227 24.6884 37.2953 24.653C37.175 24.6106 36.9804 24.5894 36.7115 24.5894C36.6973 24.5894 36.6902 24.5681 36.6902 24.5257C36.6902 24.4832 36.6973 24.462 36.7115 24.462L37.2422 24.4726C37.5395 24.4867 37.7766 24.4938 37.9535 24.4938C38.1587 24.4938 38.4099 24.4867 38.7072 24.4726L39.2061 24.462C39.2273 24.462 39.238 24.4832 39.238 24.5257C39.238 24.5681 39.2273 24.5894 39.2061 24.5894C38.9443 24.5894 38.7496 24.6106 38.6223 24.653C38.502 24.6955 38.417 24.7698 38.3675 24.876C38.325 24.9751 38.3038 25.1307 38.3038 25.3431V30.2368C38.3038 30.4562 38.325 30.6154 38.3675 30.7145C38.4099 30.8136 38.4913 30.8808 38.6116 30.9162C38.739 30.9516 38.9372 30.9693 39.2061 30.9693C39.2273 30.9693 39.238 30.9905 39.238 31.033C39.238 31.0754 39.2273 31.0967 39.2061 31.0967C38.9938 31.0967 38.824 31.0931 38.6966 31.0861L37.9535 31.0754L37.2316 31.0861C37.1042 31.0931 36.9273 31.0967 36.7008 31.0967C36.6867 31.0967 36.6796 31.0754 36.6796 31.033C36.6796 30.9905 36.6867 30.9693 36.7008 30.9693C36.9698 30.9693 37.1644 30.9516 37.2847 30.9162C37.4121 30.8808 37.497 30.8136 37.5395 30.7145C37.589 30.6084 37.6138 30.4491 37.6138 30.2368V25.3218ZM38.5904 27.4343L39.1212 27.0097L40.6711 28.9842C41.1877 29.6565 41.5805 30.1307 41.8494 30.4067C42.1254 30.6827 42.3377 30.8454 42.4863 30.895C42.6349 30.9445 42.8508 30.9693 43.1339 30.9693C43.1551 30.9693 43.1657 30.9905 43.1657 31.033C43.1657 31.0754 43.1551 31.0967 43.1339 31.0967H41.9449C41.8883 31.0967 41.7857 31.0967 41.6371 31.0967C41.4955 31.1038 41.2938 30.9268 41.032 30.5659C40.7701 30.1979 40.5189 29.8617 40.2783 29.5574L38.5904 27.4343ZM40.5755 25.3218C40.8091 25.0883 40.9258 24.9149 40.9258 24.8017C40.9258 24.6601 40.7171 24.5894 40.2995 24.5894C40.2854 24.5894 40.2783 24.5681 40.2783 24.5257C40.2783 24.4832 40.2854 24.462 40.2995 24.462L40.756 24.4726C41.0391 24.4867 41.2974 24.4938 41.5309 24.4938C41.7645 24.4938 42.0086 24.4867 42.2634 24.4726L42.6562 24.462C42.6774 24.462 42.688 24.4832 42.688 24.5257C42.688 24.5681 42.6774 24.5894 42.6562 24.5894C42.366 24.5894 42.0582 24.653 41.7326 24.7804C41.4071 24.9078 41.1028 25.1095 40.8197 25.3855L38.1021 28.05H37.8367L40.5755 25.3218ZM49.295 25.3431C49.295 25.1307 49.2703 24.9751 49.2207 24.876C49.1783 24.7698 49.0933 24.6955 48.9659 24.653C48.8386 24.6106 48.6369 24.5894 48.3609 24.5894C48.3396 24.5894 48.329 24.5681 48.329 24.5257C48.329 24.4832 48.3396 24.462 48.3609 24.462L48.8704 24.4726C49.1818 24.4867 49.4401 24.4938 49.6453 24.4938C49.8364 24.4938 50.0806 24.4867 50.3778 24.4726L50.898 24.462C50.9192 24.462 50.9298 24.4832 50.9298 24.5257C50.9298 24.5681 50.9192 24.5894 50.898 24.5894C50.629 24.5894 50.4309 24.6106 50.3035 24.653C50.1761 24.6884 50.0876 24.7557 50.0381 24.8547C49.9956 24.9538 49.9744 25.1095 49.9744 25.3218V30.2368C49.9744 30.4491 49.9956 30.6084 50.0381 30.7145C50.0876 30.8136 50.1761 30.8808 50.3035 30.9162C50.4309 30.9516 50.629 30.9693 50.898 30.9693C50.9192 30.9693 50.9298 30.9905 50.9298 31.033C50.9298 31.0754 50.9192 31.0967 50.898 31.0967C50.6786 31.0967 50.5052 31.0931 50.3778 31.0861L49.6453 31.0754L48.8704 31.0861C48.743 31.0931 48.5732 31.0967 48.3609 31.0967C48.3396 31.0967 48.329 31.0754 48.329 31.033C48.329 30.9905 48.3396 30.9693 48.3609 30.9693C48.6369 30.9693 48.8386 30.9516 48.9659 30.9162C49.0933 30.8808 49.1783 30.8136 49.2207 30.7145C49.2703 30.6084 49.295 30.4491 49.295 30.2368V25.3431ZM44.8471 27.5299H49.5923V27.7528H44.8471V27.5299ZM44.5393 25.3218C44.5393 25.1095 44.5145 24.9538 44.465 24.8547C44.4225 24.7557 44.3376 24.6884 44.2102 24.653C44.0828 24.6106 43.8846 24.5894 43.6157 24.5894C43.6016 24.5894 43.5945 24.5681 43.5945 24.5257C43.5945 24.4832 43.6016 24.462 43.6157 24.462L44.1571 24.4726C44.4543 24.4867 44.6914 24.4938 44.8683 24.4938C45.0736 24.4938 45.3319 24.4867 45.6433 24.4726L46.1528 24.462C46.167 24.462 46.1741 24.4832 46.1741 24.5257C46.1741 24.5681 46.167 24.5894 46.1528 24.5894C45.8839 24.5894 45.6822 24.6106 45.5477 24.653C45.4204 24.6955 45.3319 24.7698 45.2823 24.876C45.2399 24.9751 45.2187 25.1307 45.2187 25.3431V30.2368C45.2187 30.4491 45.2399 30.6084 45.2823 30.7145C45.3319 30.8136 45.4204 30.8808 45.5477 30.9162C45.6751 30.9516 45.8768 30.9693 46.1528 30.9693C46.167 30.9693 46.1741 30.9905 46.1741 31.033C46.1741 31.0754 46.167 31.0967 46.1528 31.0967C45.9334 31.0967 45.76 31.0931 45.6327 31.0861L44.8683 31.0754L44.1359 31.0861C44.0085 31.0931 43.8316 31.0967 43.6051 31.0967C43.5909 31.0967 43.5839 31.0754 43.5839 31.033C43.5839 30.9905 43.5909 30.9693 43.6051 30.9693C43.874 30.9693 44.0722 30.9516 44.1996 30.9162C44.334 30.8808 44.4225 30.8136 44.465 30.7145C44.5145 30.6084 44.5393 30.4491 44.5393 30.2368V25.3218ZM53.4541 27.9651H56.2672L56.3415 28.1774H53.3479L53.4541 27.9651ZM58.7088 30.9693C58.7371 30.9693 58.7512 30.9905 58.7512 31.033C58.7512 31.0754 58.7371 31.0967 58.7088 31.0967C58.5743 31.0967 58.3655 31.0896 58.0824 31.0754C57.7994 31.0613 57.5941 31.0542 57.4667 31.0542C57.311 31.0542 57.1129 31.0613 56.8723 31.0754C56.6458 31.0896 56.4724 31.0967 56.3521 31.0967C56.3238 31.0967 56.3097 31.0754 56.3097 31.033C56.3097 30.9905 56.3238 30.9693 56.3521 30.9693C56.621 30.9693 56.8121 30.9445 56.9254 30.895C57.0457 30.8454 57.1058 30.757 57.1058 30.6296C57.1058 30.5234 57.0634 30.3748 56.9784 30.1837L54.6218 25.2051L54.8872 24.876L52.8278 29.7485C52.7287 29.9891 52.6791 30.1873 52.6791 30.343C52.6791 30.7605 53.0259 30.9693 53.7195 30.9693C53.7548 30.9693 53.7725 30.9905 53.7725 31.033C53.7725 31.0754 53.7548 31.0967 53.7195 31.0967C53.5921 31.0967 53.4081 31.0896 53.1675 31.0754C52.8985 31.0613 52.665 31.0542 52.4668 31.0542C52.2828 31.0542 52.0705 31.0613 51.8299 31.0754C51.6176 31.0896 51.4407 31.0967 51.2991 31.0967C51.2637 31.0967 51.246 31.0754 51.246 31.033C51.246 30.9905 51.2637 30.9693 51.2991 30.9693C51.4973 30.9693 51.6636 30.9339 51.798 30.8631C51.9396 30.7853 52.0705 30.6544 52.1908 30.4704C52.3182 30.2793 52.4562 30.0068 52.6048 29.653L54.8447 24.3664C54.8589 24.3452 54.8836 24.3346 54.919 24.3346C54.9544 24.3346 54.9756 24.3452 54.9827 24.3664L57.488 29.6424C57.7286 30.1661 57.9338 30.5199 58.1037 30.7039C58.2735 30.8808 58.4752 30.9693 58.7088 30.9693ZM60.016 24.7061L60.2602 24.7274V29.9396C60.2602 30.3076 60.3239 30.573 60.4513 30.7358C60.5857 30.8914 60.7981 30.9693 61.0882 30.9693C61.1094 30.9693 61.1201 30.9905 61.1201 31.033C61.1201 31.0754 61.1094 31.0967 61.0882 31.0967C60.9113 31.0967 60.7768 31.0931 60.6848 31.0861L60.154 31.0754L59.6127 31.0861C59.5136 31.0931 59.3685 31.0967 59.1774 31.0967C59.1633 31.0967 59.1562 31.0754 59.1562 31.033C59.1562 30.9905 59.1633 30.9693 59.1774 30.9693C59.4817 30.9693 59.6976 30.8914 59.825 30.7358C59.9524 30.573 60.016 30.3076 60.016 29.9396V24.7061ZM65.3663 31.2241C65.3663 31.2382 65.3486 31.2488 65.3132 31.2559C65.2778 31.263 65.253 31.2595 65.2389 31.2453L60.3557 25.3324C60.1293 25.0564 59.9205 24.8654 59.7294 24.7592C59.5454 24.646 59.3614 24.5894 59.1774 24.5894C59.1562 24.5894 59.1456 24.5681 59.1456 24.5257C59.1456 24.4832 59.1562 24.462 59.1774 24.462L59.5702 24.4726C59.6551 24.4797 59.7719 24.4832 59.9205 24.4832C60.0762 24.4832 60.2036 24.4797 60.3027 24.4726C60.4017 24.4655 60.4796 24.462 60.5362 24.462C60.5857 24.462 60.6247 24.4761 60.653 24.5044C60.6884 24.5257 60.7273 24.5752 60.7698 24.653C60.8547 24.7804 60.9431 24.9007 61.0351 25.014L65.2814 30.2262L65.3663 31.2241ZM65.3663 31.2241L65.1221 30.895V25.6297C65.1221 25.2617 65.0584 24.9963 64.931 24.8335C64.8107 24.6707 64.6055 24.5894 64.3153 24.5894C64.3012 24.5894 64.2941 24.5681 64.2941 24.5257C64.2941 24.4832 64.3012 24.462 64.3153 24.462L64.7293 24.4726C64.9417 24.4867 65.115 24.4938 65.2495 24.4938C65.3769 24.4938 65.5538 24.4867 65.7803 24.4726L66.2155 24.462C66.2368 24.462 66.2474 24.4832 66.2474 24.5257C66.2474 24.5681 66.2368 24.5894 66.2155 24.5894C65.9183 24.5894 65.7024 24.6707 65.568 24.8335C65.4335 24.9963 65.3663 25.2617 65.3663 25.6297V31.2241Z" fill="#1E1E1E"/>
<path d="M17.1226 35.1716C17.113 35.1875 17.1024 35.1997 17.0907 35.2082C17.0801 35.2156 17.0668 35.2193 17.0509 35.2193C17.0329 35.2193 17.0116 35.2103 16.9872 35.1923C16.9628 35.1742 16.932 35.1546 16.8949 35.1333C16.8588 35.111 16.8147 35.0909 16.7627 35.0728C16.7117 35.0548 16.6496 35.0458 16.5764 35.0458C16.5074 35.0458 16.4464 35.0553 16.3933 35.0744C16.3413 35.0925 16.2972 35.1174 16.2611 35.1493C16.2261 35.1811 16.1995 35.2188 16.1815 35.2623C16.1634 35.3048 16.1544 35.351 16.1544 35.4008C16.1544 35.4645 16.1698 35.5176 16.2006 35.5601C16.2324 35.6015 16.2738 35.637 16.3248 35.6668C16.3768 35.6965 16.4352 35.7225 16.5 35.7448C16.5658 35.766 16.6327 35.7883 16.7006 35.8117C16.7696 35.835 16.8365 35.8616 16.9012 35.8913C16.967 35.9199 17.0254 35.9566 17.0764 36.0012C17.1284 36.0457 17.1698 36.1004 17.2006 36.1652C17.2324 36.2299 17.2484 36.3095 17.2484 36.404C17.2484 36.5038 17.2314 36.5977 17.1974 36.6859C17.1634 36.7729 17.1135 36.8488 17.0477 36.9136C16.983 36.9783 16.9028 37.0293 16.8073 37.0664C16.7128 37.1036 16.6051 37.1222 16.484 37.1222C16.3354 37.1222 16.2006 37.0956 16.0796 37.0425C15.9586 36.9884 15.8551 36.9157 15.7691 36.8244L15.8583 36.6779C15.8667 36.6662 15.8768 36.6567 15.8885 36.6492C15.9012 36.6407 15.915 36.6365 15.9299 36.6365C15.9437 36.6365 15.9591 36.6423 15.9761 36.654C15.9941 36.6646 16.0143 36.6784 16.0366 36.6954C16.0589 36.7124 16.0844 36.731 16.113 36.7511C16.1417 36.7713 16.1741 36.7899 16.2102 36.8069C16.2473 36.8239 16.2892 36.8382 16.3359 36.8499C16.3827 36.8605 16.4352 36.8658 16.4936 36.8658C16.5668 36.8658 16.6321 36.8557 16.6894 36.8355C16.7468 36.8154 16.7951 36.7872 16.8343 36.7511C16.8747 36.714 16.9055 36.6699 16.9267 36.619C16.9479 36.568 16.9586 36.5112 16.9586 36.4486C16.9586 36.3796 16.9426 36.3233 16.9108 36.2798C16.88 36.2352 16.8391 36.1981 16.7882 36.1684C16.7372 36.1386 16.6788 36.1137 16.613 36.0935C16.5472 36.0723 16.4803 36.051 16.4124 36.0298C16.3444 36.0075 16.2776 35.982 16.2117 35.9534C16.1459 35.9247 16.0875 35.8876 16.0366 35.8419C15.9856 35.7963 15.9442 35.7395 15.9124 35.6715C15.8816 35.6025 15.8662 35.5176 15.8662 35.4168C15.8662 35.3361 15.8816 35.2581 15.9124 35.1827C15.9442 35.1073 15.9899 35.0405 16.0493 34.9821C16.1098 34.9237 16.1836 34.877 16.2707 34.8419C16.3588 34.8069 16.4596 34.7894 16.5732 34.7894C16.7006 34.7894 16.8163 34.8096 16.9203 34.8499C17.0254 34.8902 17.1178 34.9486 17.1974 35.0251L17.1226 35.1716ZM19.875 36.2496L19.5167 35.3212C19.5061 35.2936 19.4949 35.2618 19.4833 35.2257C19.4716 35.1885 19.4604 35.1493 19.4498 35.1079C19.4275 35.1938 19.4047 35.2655 19.3814 35.3228L19.0231 36.2496H19.875ZM20.5183 37.0967H20.2794C20.2518 37.0967 20.2295 37.0898 20.2126 37.076C20.1956 37.0622 20.1828 37.0447 20.1743 37.0234L19.961 36.4725H18.9371L18.7237 37.0234C18.7174 37.0425 18.7051 37.0595 18.6871 37.0744C18.6691 37.0892 18.6468 37.0967 18.6202 37.0967H18.3814L19.2938 34.8149H19.6059L20.5183 37.0967ZM23.1321 36.8371V37.0967H21.8376V34.8149H22.1449V36.8371H23.1321ZM26.495 35.9566C26.495 36.1275 26.4679 36.2846 26.4138 36.4279C26.3597 36.5701 26.2832 36.6928 26.1845 36.7957C26.0858 36.8987 25.9669 36.9788 25.8278 37.0362C25.6898 37.0924 25.537 37.1206 25.3692 37.1206C25.2015 37.1206 25.0487 37.0924 24.9106 37.0362C24.7726 36.9788 24.6543 36.8987 24.5556 36.7957C24.4568 36.6928 24.3804 36.5701 24.3263 36.4279C24.2721 36.2846 24.2451 36.1275 24.2451 35.9566C24.2451 35.7857 24.2721 35.6291 24.3263 35.4868C24.3804 35.3435 24.4568 35.2204 24.5556 35.1174C24.6543 35.0134 24.7726 34.9327 24.9106 34.8754C25.0487 34.8181 25.2015 34.7894 25.3692 34.7894C25.537 34.7894 25.6898 34.8181 25.8278 34.8754C25.9669 34.9327 26.0858 35.0134 26.1845 35.1174C26.2832 35.2204 26.3597 35.3435 26.4138 35.4868C26.4679 35.6291 26.495 35.7857 26.495 35.9566ZM26.1781 35.9566C26.1781 35.8164 26.159 35.6907 26.1208 35.5792C26.0826 35.4677 26.0285 35.3738 25.9584 35.2973C25.8883 35.2199 25.8034 35.1604 25.7036 35.119C25.6038 35.0776 25.4924 35.0569 25.3692 35.0569C25.2472 35.0569 25.1362 35.0776 25.0364 35.119C24.9367 35.1604 24.8512 35.2199 24.7801 35.2973C24.71 35.3738 24.6559 35.4677 24.6177 35.5792C24.5794 35.6907 24.5603 35.8164 24.5603 35.9566C24.5603 36.0967 24.5794 36.2225 24.6177 36.334C24.6559 36.4444 24.71 36.5383 24.7801 36.6158C24.8512 36.6922 24.9367 36.7511 25.0364 36.7925C25.1362 36.8329 25.2472 36.8531 25.3692 36.8531C25.4924 36.8531 25.6038 36.8329 25.7036 36.7925C25.8034 36.7511 25.8883 36.6922 25.9584 36.6158C26.0285 36.5383 26.0826 36.4444 26.1208 36.334C26.159 36.2225 26.1781 36.0967 26.1781 35.9566ZM29.8048 34.8149V37.0967H29.6503C29.6259 37.0967 29.6052 37.0924 29.5882 37.0839C29.5723 37.0754 29.5564 37.0611 29.5404 37.0409L28.2204 35.3212C28.2225 35.3478 28.2241 35.3738 28.2252 35.3993C28.2262 35.4247 28.2268 35.4486 28.2268 35.4709V37.0967H27.9561V34.8149H28.1153C28.1291 34.8149 28.1408 34.8159 28.1503 34.8181C28.1599 34.8191 28.1684 34.8218 28.1758 34.826C28.1833 34.8292 28.1907 34.8345 28.1981 34.8419C28.2055 34.8483 28.2135 34.8568 28.222 34.8674L29.542 36.5855C29.5399 36.5579 29.5378 36.5314 29.5357 36.5059C29.5346 36.4794 29.5341 36.4544 29.5341 36.4311V34.8149H29.8048ZM33.7188 35.9725C33.6063 36.0319 33.5214 36.1041 33.464 36.1891C33.4078 36.274 33.3797 36.3663 33.3797 36.4661C33.3797 36.5351 33.3924 36.5962 33.4179 36.6492C33.4433 36.7013 33.4768 36.7453 33.5182 36.7814C33.5596 36.8175 33.6068 36.8451 33.6599 36.8642C33.713 36.8822 33.7671 36.8913 33.8223 36.8913C33.9412 36.8913 34.0479 36.8695 34.1424 36.826C34.2379 36.7825 34.3213 36.7241 34.3924 36.6508L33.7188 35.9725ZM35.1901 37.0967H34.9147C34.8839 37.0967 34.8589 37.093 34.8398 37.0855C34.8207 37.0781 34.8 37.0627 34.7777 37.0394L34.5468 36.8069C34.447 36.9035 34.3319 36.9804 34.2013 37.0378C34.0718 37.094 33.929 37.1222 33.773 37.1222C33.688 37.1222 33.6047 37.1078 33.523 37.0792C33.4423 37.0505 33.3696 37.0091 33.3048 36.955C33.2401 36.8998 33.188 36.8329 33.1488 36.7543C33.1095 36.6758 33.0899 36.5871 33.0899 36.4884C33.0899 36.4141 33.1021 36.344 33.1265 36.2782C33.152 36.2113 33.187 36.1498 33.2316 36.0935C33.2762 36.0372 33.3287 35.9868 33.3892 35.9422C33.4497 35.8977 33.5161 35.8594 33.5883 35.8276C33.5235 35.7448 33.4757 35.6652 33.4449 35.5887C33.4142 35.5112 33.3988 35.4311 33.3988 35.3483C33.3988 35.2708 33.4126 35.1981 33.4402 35.1302C33.4688 35.0622 33.5097 35.0033 33.5628 34.9534C33.6159 34.9024 33.6801 34.8626 33.7554 34.834C33.8319 34.8043 33.9173 34.7894 34.0118 34.7894C34.0957 34.7894 34.1721 34.8032 34.2411 34.8308C34.3101 34.8573 34.3696 34.8929 34.4194 34.9375C34.4693 34.9821 34.5086 35.0341 34.5373 35.0935C34.567 35.1519 34.584 35.213 34.5882 35.2766L34.4115 35.3117C34.3765 35.3202 34.3504 35.3037 34.3335 35.2623C34.326 35.2347 34.3138 35.2061 34.2968 35.1763C34.2809 35.1466 34.2597 35.1195 34.2331 35.0951C34.2077 35.0707 34.1764 35.0505 34.1392 35.0346C34.1031 35.0187 34.0606 35.0107 34.0118 35.0107C33.9587 35.0107 33.9104 35.0192 33.8669 35.0362C33.8244 35.0532 33.7878 35.0771 33.757 35.1079C33.7273 35.1376 33.7045 35.1731 33.6886 35.2145C33.6726 35.2549 33.6647 35.2989 33.6647 35.3467C33.6647 35.3839 33.6689 35.4194 33.6774 35.4534C33.6859 35.4874 33.6992 35.5219 33.7172 35.5569C33.7363 35.5919 33.7602 35.6275 33.7889 35.6636C33.8175 35.6997 33.852 35.7379 33.8924 35.7782L34.5484 36.4454C34.5888 36.3732 34.6211 36.2984 34.6456 36.2209C34.67 36.1423 34.6859 36.0643 34.6933 35.9868C34.6955 35.9667 34.7018 35.9507 34.7124 35.9391C34.7231 35.9274 34.7379 35.9215 34.757 35.9215H34.9306C34.9295 36.0436 34.9104 36.1636 34.8733 36.2814C34.8361 36.3982 34.7825 36.508 34.7124 36.611L35.1901 37.0967ZM39.5285 35.1716C39.519 35.1875 39.5083 35.1997 39.4967 35.2082C39.4861 35.2156 39.4728 35.2193 39.4569 35.2193C39.4388 35.2193 39.4176 35.2103 39.3932 35.1923C39.3687 35.1742 39.338 35.1546 39.3008 35.1333C39.2647 35.111 39.2207 35.0909 39.1686 35.0728C39.1177 35.0548 39.0556 35.0458 38.9823 35.0458C38.9133 35.0458 38.8523 35.0553 38.7992 35.0744C38.7472 35.0925 38.7032 35.1174 38.6671 35.1493C38.632 35.1811 38.6055 35.2188 38.5874 35.2623C38.5694 35.3048 38.5604 35.351 38.5604 35.4008C38.5604 35.4645 38.5758 35.5176 38.6066 35.5601C38.6384 35.6015 38.6798 35.637 38.7308 35.6668C38.7828 35.6965 38.8412 35.7225 38.9059 35.7448C38.9717 35.766 39.0386 35.7883 39.1065 35.8117C39.1755 35.835 39.2424 35.8616 39.3072 35.8913C39.373 35.9199 39.4314 35.9566 39.4823 36.0012C39.5344 36.0457 39.5758 36.1004 39.6065 36.1652C39.6384 36.2299 39.6543 36.3095 39.6543 36.404C39.6543 36.5038 39.6373 36.5977 39.6034 36.6859C39.5694 36.7729 39.5195 36.8488 39.4537 36.9136C39.3889 36.9783 39.3088 37.0293 39.2132 37.0664C39.1188 37.1036 39.011 37.1222 38.89 37.1222C38.7414 37.1222 38.6066 37.0956 38.4855 37.0425C38.3645 36.9884 38.261 36.9157 38.175 36.8244L38.2642 36.6779C38.2727 36.6662 38.2828 36.6567 38.2945 36.6492C38.3072 36.6407 38.321 36.6365 38.3359 36.6365C38.3497 36.6365 38.3651 36.6423 38.382 36.654C38.4001 36.6646 38.4203 36.6784 38.4425 36.6954C38.4648 36.7124 38.4903 36.731 38.519 36.7511C38.5476 36.7713 38.58 36.7899 38.6161 36.8069C38.6533 36.8239 38.6952 36.8382 38.7419 36.8499C38.7886 36.8605 38.8412 36.8658 38.8995 36.8658C38.9728 36.8658 39.0381 36.8557 39.0954 36.8355C39.1527 36.8154 39.201 36.7872 39.2403 36.7511C39.2806 36.714 39.3114 36.6699 39.3327 36.619C39.3539 36.568 39.3645 36.5112 39.3645 36.4486C39.3645 36.3796 39.3486 36.3233 39.3167 36.2798C39.2859 36.2352 39.2451 36.1981 39.1941 36.1684C39.1432 36.1386 39.0848 36.1137 39.019 36.0935C38.9532 36.0723 38.8863 36.051 38.8183 36.0298C38.7504 36.0075 38.6835 35.982 38.6177 35.9534C38.5519 35.9247 38.4935 35.8876 38.4425 35.8419C38.3916 35.7963 38.3502 35.7395 38.3183 35.6715C38.2876 35.6025 38.2722 35.5176 38.2722 35.4168C38.2722 35.3361 38.2876 35.2581 38.3183 35.1827C38.3502 35.1073 38.3958 35.0405 38.4553 34.9821C38.5158 34.9237 38.5896 34.877 38.6766 34.8419C38.7647 34.8069 38.8656 34.7894 38.9792 34.7894C39.1065 34.7894 39.2223 34.8096 39.3263 34.8499C39.4314 34.8902 39.5237 34.9486 39.6034 35.0251L39.5285 35.1716ZM42.6526 35.0744H41.9137V37.0967H41.6064V35.0744H40.866V34.8149H42.6526V35.0744ZM44.8908 36.8515C44.9853 36.8515 45.0697 36.8355 45.144 36.8037C45.2183 36.7718 45.2809 36.7273 45.3319 36.6699C45.3839 36.6126 45.4232 36.5441 45.4497 36.4645C45.4773 36.3849 45.4911 36.2973 45.4911 36.2018V34.8149H45.7984V36.2018C45.7984 36.3334 45.7772 36.4555 45.7347 36.568C45.6933 36.6806 45.6334 36.7782 45.5548 36.861C45.4773 36.9428 45.3823 37.007 45.2698 37.0537C45.1573 37.1004 45.0309 37.1237 44.8908 37.1237C44.7507 37.1237 44.6244 37.1004 44.5118 37.0537C44.3993 37.007 44.3038 36.9428 44.2252 36.861C44.1467 36.7782 44.0862 36.6806 44.0437 36.568C44.0023 36.4555 43.9816 36.3334 43.9816 36.2018V34.8149H44.2889V36.2002C44.2889 36.2957 44.3022 36.3833 44.3287 36.4629C44.3563 36.5425 44.3956 36.611 44.4466 36.6683C44.4986 36.7257 44.5617 36.7708 44.636 36.8037C44.7114 36.8355 44.7963 36.8515 44.8908 36.8515ZM49.3489 35.9566C49.3489 36.1275 49.3218 36.283 49.2677 36.4231C49.2135 36.5632 49.1371 36.6832 49.0384 36.783C48.9396 36.8828 48.8207 36.9603 48.6817 37.0155C48.5437 37.0696 48.3908 37.0967 48.2231 37.0967H47.3712V34.8149H48.2231C48.3908 34.8149 48.5437 34.8425 48.6817 34.8977C48.8207 34.9518 48.9396 35.0293 49.0384 35.1302C49.1371 35.2299 49.2135 35.3499 49.2677 35.49C49.3218 35.6301 49.3489 35.7857 49.3489 35.9566ZM49.032 35.9566C49.032 35.8164 49.0129 35.6912 48.9747 35.5808C48.9364 35.4704 48.8823 35.377 48.8122 35.3005C48.7422 35.2241 48.6573 35.1657 48.5575 35.1254C48.4577 35.085 48.3462 35.0649 48.2231 35.0649H47.6801V36.8467H48.2231C48.3462 36.8467 48.4577 36.8265 48.5575 36.7862C48.6573 36.7458 48.7422 36.688 48.8122 36.6126C48.8823 36.5362 48.9364 36.4428 48.9747 36.3324C49.0129 36.222 49.032 36.0967 49.032 35.9566ZM51.1219 37.0967H50.813V34.8149H51.1219V37.0967ZM54.8329 35.9566C54.8329 36.1275 54.8058 36.2846 54.7517 36.4279C54.6976 36.5701 54.6211 36.6928 54.5224 36.7957C54.4237 36.8987 54.3048 36.9788 54.1657 37.0362C54.0277 37.0924 53.8748 37.1206 53.7071 37.1206C53.5394 37.1206 53.3865 37.0924 53.2485 37.0362C53.1105 36.9788 52.9922 36.8987 52.8934 36.7957C52.7947 36.6928 52.7183 36.5701 52.6641 36.4279C52.61 36.2846 52.5829 36.1275 52.5829 35.9566C52.5829 35.7857 52.61 35.6291 52.6641 35.4868C52.7183 35.3435 52.7947 35.2204 52.8934 35.1174C52.9922 35.0134 53.1105 34.9327 53.2485 34.8754C53.3865 34.8181 53.5394 34.7894 53.7071 34.7894C53.8748 34.7894 54.0277 34.8181 54.1657 34.8754C54.3048 34.9327 54.4237 35.0134 54.5224 35.1174C54.6211 35.2204 54.6976 35.3435 54.7517 35.4868C54.8058 35.6291 54.8329 35.7857 54.8329 35.9566ZM54.516 35.9566C54.516 35.8164 54.4969 35.6907 54.4587 35.5792C54.4205 35.4677 54.3663 35.3738 54.2963 35.2973C54.2262 35.2199 54.1413 35.1604 54.0415 35.119C53.9417 35.0776 53.8303 35.0569 53.7071 35.0569C53.585 35.0569 53.4741 35.0776 53.3743 35.119C53.2745 35.1604 53.1891 35.2199 53.118 35.2973C53.0479 35.3738 52.9938 35.4677 52.9555 35.5792C52.9173 35.6907 52.8982 35.8164 52.8982 35.9566C52.8982 36.0967 52.9173 36.2225 52.9555 36.334C52.9938 36.4444 53.0479 36.5383 53.118 36.6158C53.1891 36.6922 53.2745 36.7511 53.3743 36.7925C53.4741 36.8329 53.585 36.8531 53.7071 36.8531C53.8303 36.8531 53.9417 36.8329 54.0415 36.7925C54.1413 36.7511 54.2262 36.6922 54.2963 36.6158C54.3663 36.5383 54.4205 36.4444 54.4587 36.334C54.4969 36.2225 54.516 36.0967 54.516 35.9566Z" fill="#1E1E1E"/>
<path d="M36.531 11.8218C23.9516 13.7137 18.4411 17.2632 17.3447 19.3038C18.167 15.4494 26.3897 10.4614 34.3383 9.32775C41.5884 8.29373 48.8642 4.23615 50.7041 0.647472C50.7397 0.556197 50.7653 0.500509 50.7837 0.485352C50.7584 0.539277 50.7319 0.593321 50.7041 0.647472C50.2077 1.92153 47.7847 10.1292 36.531 11.8218Z" fill="#D5B13F"/>
<path d="M23.6 3.15649C23.6 2.49695 23.5396 2.01329 23.4186 1.7055C23.2976 1.39772 23.0657 1.18886 22.723 1.07894C22.3802 0.947029 21.856 0.881075 21.1503 0.881075C21.11 0.881075 21.0898 0.815121 21.0898 0.683213C21.0898 0.551306 21.11 0.485352 21.1503 0.485352L22.7532 0.518328C23.6807 0.562297 24.4065 0.584282 24.9308 0.584282C25.6364 0.584282 26.4732 0.562297 27.441 0.518328L29.0137 0.485352C29.054 0.485352 29.0741 0.551306 29.0741 0.683213C29.0741 0.815121 29.054 0.881075 29.0137 0.881075C28.2878 0.881075 27.7434 0.947029 27.3805 1.07894C27.0377 1.21085 26.7958 1.44169 26.6547 1.77146C26.5337 2.07924 26.4732 2.56291 26.4732 3.22245V14.0758V14.6736V15.0154V18.4249C26.4732 19.0844 26.5337 19.5791 26.6547 19.9089C26.7756 20.2166 27.0075 20.4255 27.3503 20.5354C27.7132 20.6453 28.2676 20.7003 29.0137 20.7003C29.054 20.7003 29.0741 20.7663 29.0741 20.8982C29.0741 21.0301 29.054 21.096 29.0137 21.096C28.3281 21.096 27.7938 21.085 27.4107 21.0631L24.9308 21.0301L22.723 21.0631C22.3399 21.085 21.8056 21.096 21.1201 21.096C21.0797 21.096 21.0596 21.0301 21.0596 20.8982C21.0596 20.7663 21.0797 20.7003 21.1201 20.7003C21.8459 20.7003 22.3802 20.6453 22.723 20.5354C23.0657 20.4255 23.2976 20.2166 23.4186 19.9089C23.5396 19.5791 23.6 19.0844 23.6 18.4249V15.9434L26.4732 15.0154V14.0758L23.6 15.1003V9.54993V3.15649Z" fill="#D5B03E"/>
<path d="M35.6081 3.15223C35.6081 2.49374 35.5438 2.01085 35.4151 1.70355C35.3078 1.39626 35.0826 1.18774 34.7394 1.07799C34.3963 0.946292 33.8707 0.880443 33.1629 0.880443C33.12 0.880443 33.0986 0.814595 33.0986 0.682897C33.0986 0.5512 33.12 0.485352 33.1629 0.485352L34.8681 0.518276C35.8119 0.562174 36.5626 0.584124 37.1203 0.584124C37.7638 0.584124 38.5574 0.562174 39.5012 0.518276L41.1098 0.485352C41.1742 0.485352 41.2064 0.5512 41.2064 0.682897C41.2064 0.814595 41.1742 0.880443 41.1098 0.880443C40.402 0.880443 39.8765 0.946292 39.5333 1.07799C39.2116 1.20969 38.9864 1.44016 38.8577 1.7694C38.729 2.0767 38.6646 2.55959 38.6646 3.21808V11.2399L36.953 11.6743L36.9055 12.9046L38.6646 12.61V18.3962C38.6646 19.0767 38.7183 19.5705 38.8255 19.8778C38.9542 20.1851 39.1794 20.3936 39.5012 20.5034C39.8443 20.6131 40.3806 20.668 41.1098 20.668C41.1956 20.668 41.2385 20.7339 41.2385 20.8656C41.2385 20.9973 41.1956 21.0631 41.1098 21.0631C40.4235 21.0631 39.8765 21.0521 39.469 21.0302L37.1203 20.9973L34.836 21.0302C34.4284 21.0521 33.86 21.0631 33.1308 21.0631C33.0879 21.0631 33.0664 20.9973 33.0664 20.8656C33.0664 20.7339 33.0879 20.668 33.1308 20.668C33.86 20.668 34.3855 20.6131 34.7073 20.5034C35.0505 20.3936 35.2864 20.1851 35.4151 19.8778C35.5438 19.5486 35.6081 19.0547 35.6081 18.3962V13.0544L36.9055 12.9046L36.953 11.6743L35.6081 11.8983V10.7742V3.15223ZM40.6769 11.8569L43.2577 10.6557L46.3863 14.4782C47.8449 16.5195 48.9495 17.9682 49.7002 18.8242C50.451 19.6583 51.0408 20.1741 51.4698 20.3717C51.8988 20.5692 52.4779 20.668 53.2072 20.668C53.2715 20.668 53.3037 20.7339 53.3037 20.8656C53.3037 20.9973 53.2715 21.0631 53.2072 21.0631H49.6037L48.3489 21.096C48.0486 21.096 47.7913 21.0302 47.5768 20.8985C47.3623 20.7668 47.1156 20.5253 46.8368 20.1741C46.5579 19.823 46.0432 19.1315 45.2924 18.0999L43.9733 16.2891L40.6769 11.8569Z" fill="#D5B03E"/>
</svg>
