<svg width="34" height="34" viewBox="0 0 34 34" fill="none" xmlns="http://www.w3.org/2000/svg">
<rect x="0.5" y="0.5" width="33" height="33" rx="3.5" stroke="#606060"/>
<g clip-path="url(#clip0_58_11165)">
<path d="M11.375 9.125C10.134 9.125 9.125 10.134 9.125 11.375V22.625C9.125 23.866 10.134 24.875 11.375 24.875H22.625C23.866 24.875 24.875 23.866 24.875 22.625V11.375C24.875 10.134 23.866 9.125 22.625 9.125H11.375ZM21.8199 12.0781L18.1707 16.2477L22.4633 21.9219H19.1023L16.4727 18.4801L13.4598 21.9219H11.7898L15.6922 17.4605L11.5754 12.0781H15.0207L17.4008 15.2246L20.15 12.0781H21.8199ZM20.491 20.9234L14.518 13.0238H13.523L19.5629 20.9234H20.4875H20.491Z" fill="#606060"/>
</g>
<defs>
<clipPath id="clip0_58_11165">
<rect width="15.75" height="18" fill="white" transform="translate(9.125 8)"/>
</clipPath>
</defs>
</svg>
