<svg width="34" height="34" viewBox="0 0 34 34" fill="none" xmlns="http://www.w3.org/2000/svg">
<rect x="0.5" y="0.5" width="33" height="33" rx="3.5" stroke="#606060"/>
<path fill-rule="evenodd" clip-rule="evenodd" d="M17 9C17.855 9 18.732 9.022 19.582 9.058L20.586 9.106L21.547 9.163L22.447 9.224L23.269 9.288C24.1612 9.35589 25.0008 9.73643 25.64 10.3626C26.2791 10.9888 26.6768 11.8204 26.763 12.711L26.803 13.136L26.878 14.046C26.948 14.989 27 16.017 27 17C27 17.983 26.948 19.011 26.878 19.954L26.803 20.864L26.763 21.289C26.6768 22.1798 26.2789 23.0115 25.6396 23.6377C25.0002 24.2639 24.1604 24.6443 23.268 24.712L22.448 24.775L21.548 24.837L20.586 24.894L19.582 24.942C18.7218 24.9793 17.861 24.9986 17 25C16.139 24.9986 15.2782 24.9793 14.418 24.942L13.414 24.894L12.453 24.837L11.553 24.775L10.731 24.712C9.83881 24.6441 8.9992 24.2636 8.36004 23.6374C7.72089 23.0112 7.32319 22.1796 7.237 21.289L7.197 20.864L7.122 19.954C7.04583 18.9711 7.00514 17.9858 7 17C7 16.017 7.052 14.989 7.122 14.046L7.197 13.136L7.237 12.711C7.32316 11.8206 7.72071 10.9891 8.35966 10.3629C8.99861 9.73676 9.83799 9.35612 10.73 9.288L11.551 9.224L12.451 9.163L13.413 9.106L14.417 9.058C15.2775 9.02073 16.1387 9.00139 17 9ZM15 14.575V19.425C15 19.887 15.5 20.175 15.9 19.945L20.1 17.52C20.1914 17.4674 20.2673 17.3916 20.3201 17.3003C20.3729 17.209 20.4007 17.1055 20.4007 17C20.4007 16.8945 20.3729 16.791 20.3201 16.6997C20.2673 16.6084 20.1914 16.5326 20.1 16.48L15.9 14.056C15.8088 14.0033 15.7053 13.9756 15.5999 13.9756C15.4945 13.9756 15.3911 14.0034 15.2998 14.0561C15.2086 14.1088 15.1329 14.1846 15.0802 14.2759C15.0276 14.3671 14.9999 14.4706 15 14.576V14.575Z" fill="#606060"/>
</svg>
