<svg width="66" height="66" viewBox="0 0 66 66" fill="none" xmlns="http://www.w3.org/2000/svg">
<mask id="path-1-inside-1_173_5246" fill="white">
<path d="M66 33C66 51.2254 51.2254 66 33 66C14.7746 66 0 51.2254 0 33C0 14.7746 14.7746 0 33 0C51.2254 0 66 14.7746 66 33ZM14.4757 33C14.4757 43.2307 22.7693 51.5243 33 51.5243C43.2307 51.5243 51.5243 43.2307 51.5243 33C51.5243 22.7693 43.2307 14.4757 33 14.4757C22.7693 14.4757 14.4757 22.7693 14.4757 33Z"/>
</mask>
<path d="M66 33C66 51.2254 51.2254 66 33 66C14.7746 66 0 51.2254 0 33C0 14.7746 14.7746 0 33 0C51.2254 0 66 14.7746 66 33ZM14.4757 33C14.4757 43.2307 22.7693 51.5243 33 51.5243C43.2307 51.5243 51.5243 43.2307 51.5243 33C51.5243 22.7693 43.2307 14.4757 33 14.4757C22.7693 14.4757 14.4757 22.7693 14.4757 33Z" stroke="#85B69C" stroke-width="0.819632" mask="url(#path-1-inside-1_173_5246)"/>
<path d="M35.4187 56.2318L35.7554 60.6528L35.2201 60.6935L35.0701 58.7248L32.7129 58.9044L32.8628 60.8731L32.3275 60.9138L31.9907 56.4929L32.5261 56.4521L32.6767 58.4295L35.034 58.2499L34.8834 56.2726L35.4187 56.2318Z" fill="#85B69C"/>
<path d="M25.1014 55.2353L24.0659 58.3953L23.5804 58.2362L24.6159 55.0762L25.1014 55.2353ZM23.6464 58.841C23.741 58.872 23.8121 58.931 23.8595 59.018C23.9056 59.1044 23.9138 59.1929 23.8842 59.2835C23.8545 59.374 23.7955 59.4405 23.7072 59.4829C23.6175 59.5249 23.5253 59.5304 23.4307 59.4994C23.336 59.4683 23.2657 59.4096 23.2196 59.3231C23.1721 59.2362 23.1633 59.1474 23.1929 59.0569C23.2226 58.9664 23.2823 58.9002 23.372 58.8582C23.4603 58.8157 23.5518 58.81 23.6464 58.841Z" fill="#85B69C"/>
<path d="M13.9802 51.5293L14.2622 51.2008L15.6224 52.3684L15.3403 52.697L13.9802 51.5293ZM17.0989 49.8241L14.634 52.6955C14.5099 52.84 14.3725 52.9314 14.2219 52.9694C14.0713 53.0075 13.9211 53.0041 13.7713 52.9592C13.6215 52.9144 13.4864 52.8402 13.3659 52.7368C13.2707 52.655 13.1995 52.5806 13.1524 52.5136C13.1054 52.4465 13.0727 52.3937 13.0544 52.3552L13.4538 52.116C13.4678 52.1395 13.4882 52.1712 13.5147 52.2111C13.5402 52.2501 13.5809 52.2936 13.6368 52.3416C13.7649 52.4516 13.8851 52.4987 13.9976 52.483C14.1089 52.4663 14.2181 52.3955 14.3253 52.2707L16.7113 49.4913L17.0989 49.8241Z" fill="#85B69C"/>
<path d="M8.68629 42.7617L9.00951 43.1125C8.9543 43.1728 8.90722 43.2443 8.86827 43.3271C8.82738 43.4093 8.8072 43.5037 8.80774 43.6102C8.80828 43.7167 8.84213 43.8362 8.90928 43.9688C9.00121 44.1504 9.11967 44.2805 9.26465 44.3592C9.40769 44.4372 9.54295 44.4439 9.67043 44.3794C9.78374 44.322 9.85237 44.2355 9.87631 44.1198C9.90025 44.0042 9.88977 43.8477 9.84488 43.6504L9.73006 43.1553C9.66013 42.8574 9.65855 42.6099 9.72533 42.4127C9.79082 42.2161 9.92721 42.0654 10.1345 41.9604C10.3045 41.8743 10.4812 41.8463 10.6647 41.8764C10.8475 41.9052 11.0215 41.9869 11.1868 42.1216C11.3521 42.2563 11.4931 42.4389 11.6098 42.6694C11.763 42.972 11.8241 43.2557 11.7932 43.5205C11.7623 43.7853 11.634 44.008 11.4083 44.1885L11.0811 43.8107C11.2199 43.6886 11.3002 43.5501 11.322 43.3951C11.3432 43.2388 11.3065 43.0672 11.2119 42.8805C11.1044 42.6681 10.9739 42.5222 10.8205 42.443C10.6652 42.3631 10.5238 42.3554 10.3963 42.4199C10.2933 42.4721 10.2253 42.5518 10.1923 42.6592C10.158 42.7671 10.1613 42.9046 10.2021 43.0716L10.3366 43.6247C10.4098 43.929 10.4111 44.1791 10.3404 44.375C10.2678 44.5703 10.1291 44.7198 9.92441 44.8235C9.75702 44.9082 9.58515 44.9362 9.40879 44.9074C9.23178 44.8773 9.06517 44.7991 8.90898 44.6727C8.75213 44.5451 8.62089 44.377 8.51527 44.1684C8.36661 43.8748 8.31429 43.6117 8.35829 43.3791C8.40164 43.1452 8.51097 42.9394 8.68629 42.7617Z" fill="#85B69C"/>
<path d="M9.23252 33.8768C9.24852 34.0869 9.22347 34.2806 9.15736 34.4579C9.08981 34.6353 8.98432 34.7801 8.84089 34.8924C8.69601 35.0047 8.51564 35.0691 8.29978 35.0855C8.10981 35.1 7.95298 35.0743 7.82927 35.0085C7.70412 34.9427 7.60296 34.8499 7.52579 34.7298C7.44861 34.6097 7.38772 34.4754 7.34311 34.3268C7.29696 34.1769 7.25794 34.0257 7.22606 33.8733C7.18481 33.6738 7.15295 33.5119 7.13046 33.3877C7.10642 33.2622 7.07566 33.1719 7.03818 33.1168C7.00058 33.0603 6.94077 33.0352 6.85874 33.0415L6.84147 33.0428C6.62848 33.059 6.46742 33.1299 6.35829 33.2555C6.24905 33.3796 6.20337 33.5589 6.22124 33.7935C6.23976 34.0367 6.30753 34.2233 6.42455 34.3534C6.54156 34.4834 6.66265 34.5719 6.78781 34.6188L6.65195 35.1155C6.4439 35.0445 6.27826 34.9413 6.15505 34.806C6.03029 34.6693 5.93908 34.517 5.88143 34.3492C5.82222 34.18 5.78626 34.0119 5.77355 33.845C5.76543 33.7385 5.76907 33.6152 5.78445 33.475C5.79828 33.3336 5.83912 33.1951 5.90697 33.0597C5.97471 32.9228 6.08372 32.8052 6.23401 32.7069C6.3843 32.6086 6.59112 32.5495 6.85448 32.5294L9.03906 32.363L9.07786 32.8725L8.62886 32.9067L8.63083 32.9326C8.70541 32.9616 8.78679 33.0133 8.87496 33.0877C8.96313 33.162 9.04109 33.2639 9.10885 33.3934C9.17661 33.5228 9.21783 33.684 9.23252 33.8768ZM8.76896 33.8339C8.75361 33.6325 8.7011 33.4657 8.61143 33.3335C8.52165 33.2 8.41147 33.1027 8.28089 33.0417C8.15021 32.9793 8.01579 32.9533 7.87764 32.9639L7.41136 32.9994C7.43891 33.019 7.46627 33.0647 7.49345 33.1364C7.51908 33.2069 7.54342 33.289 7.56649 33.3827C7.588 33.4752 7.60792 33.5656 7.62623 33.6539C7.64299 33.7409 7.65705 33.8115 7.66841 33.8657C7.69576 33.9967 7.73325 34.1184 7.78087 34.2305C7.82695 34.3414 7.89081 34.4292 7.97245 34.4939C8.05255 34.5572 8.15736 34.584 8.28688 34.5741C8.46389 34.5606 8.59274 34.485 8.67343 34.3471C8.75257 34.2079 8.78441 34.0369 8.76896 33.8339Z" fill="#85B69C"/>
<path d="M13.163 19.8733L9.52534 17.3385L9.83229 16.898L11.6369 18.1555L11.6666 18.1129L11.0007 15.2212L11.4017 14.6457L11.9785 17.3169L15.0394 17.1806L14.6681 17.7135L12.0959 17.7998L12.2906 18.611L13.47 19.4328L13.163 19.8733Z" fill="#85B69C"/>
<path d="M18.9137 11.0863L19.9924 12.771L19.5621 13.0465L17.1713 9.31252L17.6016 9.03702L18.4795 10.4081L18.5159 10.3847C18.489 10.1981 18.5139 10.0202 18.5907 9.85104C18.6679 9.67991 18.8165 9.52392 19.0365 9.38306C19.2274 9.26087 19.419 9.19215 19.6115 9.1769C19.8031 9.16042 19.9887 9.20529 20.1681 9.31151C20.3479 9.41572 20.5149 9.58817 20.669 9.82883L21.8083 11.6083L21.378 11.8838L20.2574 10.1335C20.1149 9.91107 19.9471 9.77604 19.7538 9.72843C19.5609 9.67882 19.363 9.719 19.16 9.84896C19.019 9.93924 18.9117 10.05 18.838 10.1811C18.7655 10.3115 18.7336 10.4544 18.7424 10.6099C18.7523 10.7647 18.8094 10.9235 18.9137 11.0863Z" fill="#85B69C"/>
<path d="M29.0769 9.23671C28.8695 9.27377 28.6743 9.26833 28.4912 9.2204C28.3079 9.17105 28.1532 9.08066 28.0271 8.94925C27.9008 8.81642 27.8186 8.64344 27.7805 8.43032C27.747 8.24278 27.7567 8.08415 27.8098 7.95445C27.8626 7.82332 27.9449 7.71333 28.0565 7.62447C28.1682 7.53561 28.2957 7.46151 28.4391 7.40217C28.5836 7.34117 28.7301 7.28714 28.8785 7.24008C29.0729 7.17897 29.2307 7.13098 29.352 7.0961C29.4745 7.05956 29.5613 7.01987 29.6123 6.97703C29.6647 6.93395 29.6837 6.87191 29.6692 6.79093L29.6661 6.77388C29.6286 6.5636 29.5418 6.41049 29.4059 6.31455C29.2715 6.21836 29.0884 6.19095 28.8568 6.23233C28.6167 6.27523 28.4379 6.36143 28.3202 6.49094C28.2026 6.62045 28.1268 6.74983 28.0927 6.87907L27.5849 6.79387C27.6346 6.57973 27.7206 6.40456 27.8428 6.26835C27.9663 6.13047 28.1086 6.0244 28.2698 5.95015C28.4322 5.87422 28.5958 5.82153 28.7606 5.79209C28.8657 5.7733 28.9888 5.76451 29.1297 5.76571C29.2719 5.76524 29.4137 5.79195 29.5553 5.84582C29.6983 5.89944 29.8263 5.99607 29.9392 6.13571C30.0521 6.27534 30.1318 6.47516 30.1782 6.73516L30.5636 8.89191L30.0606 8.98178L29.9814 8.53849L29.9558 8.54306C29.9344 8.6202 29.8912 8.70636 29.8261 8.80156C29.761 8.89676 29.6675 8.98458 29.5455 9.06502C29.4235 9.14546 29.2673 9.20269 29.0769 9.23671ZM29.0729 8.77119C29.2718 8.73565 29.4325 8.66662 29.555 8.56411C29.6788 8.46134 29.7645 8.34194 29.812 8.20589C29.861 8.06959 29.8733 7.93324 29.8489 7.79684L29.7667 7.33651C29.7499 7.36589 29.7072 7.39771 29.6386 7.43197C29.5711 7.46455 29.4919 7.49704 29.4009 7.52942C29.3111 7.56013 29.2231 7.58904 29.1371 7.61614C29.0522 7.64157 28.9834 7.66266 28.9307 7.67941C28.803 7.71982 28.6857 7.76935 28.5789 7.82802C28.4733 7.88502 28.3924 7.95739 28.3362 8.04513C28.2812 8.13119 28.2652 8.23816 28.288 8.36603C28.3192 8.54079 28.4075 8.66137 28.5528 8.72778C28.6992 8.79251 28.8726 8.80698 29.0729 8.77119Z" fill="#85B69C"/>
<path d="M37.6895 7.31276L37.261 9.26671L36.7619 9.15726L37.4742 5.90913L37.9564 6.01487L37.8451 6.52239L37.8874 6.53166C37.9997 6.38341 38.1443 6.27625 38.3214 6.21016C38.4987 6.14267 38.71 6.13582 38.9553 6.18962C39.1752 6.23785 39.3578 6.32517 39.5029 6.45157C39.6484 6.57656 39.747 6.74003 39.7988 6.94199C39.8508 7.14254 39.8466 7.38097 39.786 7.65729L39.3333 9.7212L38.8343 9.61176L39.2795 7.58167C39.3354 7.3265 39.3128 7.11319 39.2115 6.94174C39.1105 6.76888 38.9444 6.6571 38.7132 6.60639C38.5539 6.57145 38.4039 6.57477 38.2633 6.61633C38.1241 6.6582 38.004 6.73751 37.9031 6.85426C37.8021 6.97101 37.7309 7.12384 37.6895 7.31276Z" fill="#85B69C"/>
<path d="M56.4121 19.9736C56.581 19.8312 56.6651 19.6495 56.6646 19.4285C56.6642 19.2075 56.59 18.985 56.4422 18.7609C56.3342 18.597 56.2131 18.4711 56.0791 18.3832C55.9458 18.2964 55.8101 18.2493 55.6721 18.2418C55.5348 18.2355 55.4071 18.2713 55.289 18.3492C55.1902 18.4143 55.1208 18.4938 55.0807 18.5877C55.0426 18.682 55.0247 18.782 55.0269 18.8877C55.0304 18.9926 55.0441 19.0959 55.068 19.1977C55.0931 19.2987 55.1193 19.3895 55.1465 19.4701L55.2932 19.9128C55.3314 20.0258 55.3672 20.1561 55.4005 20.3036C55.4346 20.4523 55.4488 20.6063 55.4432 20.7656C55.4396 20.9253 55.4016 21.08 55.3292 21.2297C55.2568 21.3795 55.1338 21.5116 54.9603 21.626C54.7603 21.7579 54.545 21.8246 54.3144 21.8263C54.0846 21.8291 53.8562 21.7619 53.6291 21.6247C53.4028 21.4886 53.1959 21.2784 53.0084 20.9941C52.8336 20.729 52.725 20.4713 52.6827 20.2209C52.6411 19.9717 52.6603 19.7412 52.7402 19.5294C52.8209 19.3189 52.9577 19.1396 53.1506 18.9917L53.4557 19.4544C53.3239 19.5586 53.2392 19.6819 53.2017 19.8242C53.1661 19.9669 53.1678 20.1162 53.2066 20.2721C53.2475 20.4285 53.3163 20.5801 53.4133 20.7271C53.5261 20.8982 53.6551 21.0336 53.8003 21.1332C53.9467 21.232 54.0962 21.2882 54.2486 21.3018C54.4023 21.3145 54.5466 21.2764 54.6815 21.1874C54.8044 21.1064 54.8818 21.0061 54.9136 20.8866C54.9454 20.7671 54.9485 20.6354 54.9228 20.4915C54.8971 20.3477 54.8594 20.1988 54.8098 20.0448L54.6395 19.5036C54.532 19.1596 54.4997 18.8524 54.5427 18.582C54.5857 18.3116 54.7319 18.0942 54.9813 17.9297C55.1886 17.7931 55.4062 17.7299 55.6344 17.7403C55.8645 17.751 56.0851 17.8234 56.2962 17.9573C56.5093 18.0917 56.6937 18.277 56.8494 18.5131C57.0067 18.7517 57.1038 18.992 57.1406 19.234C57.1786 19.4751 57.1599 19.6984 57.0844 19.9038C57.0097 20.1104 56.8809 20.2782 56.6981 20.4074L56.4121 19.9736Z" fill="#85B69C"/>
<path d="M57.4202 27.5219C57.3803 27.315 57.3831 27.1197 57.4286 26.9361C57.4755 26.7521 57.5638 26.5962 57.6935 26.4684C57.8246 26.3402 57.9965 26.2557 58.209 26.2147C58.3961 26.1787 58.5549 26.1863 58.6853 26.2376C58.8171 26.2887 58.9282 26.3694 59.0185 26.4799C59.1089 26.5904 59.1847 26.7169 59.246 26.8594C59.3089 27.0031 59.3649 27.1488 59.414 27.2967C59.4777 27.4902 59.5278 27.6473 59.5643 27.7682C59.6025 27.8902 59.6433 27.9764 59.6869 28.0268C59.7307 28.0786 59.7929 28.0967 59.8737 28.0812L59.8907 28.0779C60.1005 28.0375 60.2524 27.9487 60.3465 27.8115C60.4409 27.6758 60.4658 27.4924 60.4213 27.2614C60.3752 27.0219 60.2866 26.8442 60.1555 26.7283C60.0244 26.6125 59.8941 26.5384 59.7644 26.506L59.8427 25.9971C60.0575 26.0439 60.2338 26.1275 60.3717 26.248C60.5112 26.3695 60.6192 26.5104 60.6956 26.6706C60.7737 26.832 60.8286 26.9948 60.8602 27.1592C60.8804 27.2641 60.8909 27.387 60.8916 27.528C60.894 27.6701 60.8692 27.8123 60.8172 27.9546C60.7655 28.0983 60.6706 28.2275 60.5325 28.3423C60.3944 28.4571 60.1957 28.5395 59.9363 28.5894L57.785 29.0038L57.6883 28.5021L58.1305 28.4169L58.1256 28.3914C58.0482 28.3711 57.9614 28.329 57.8654 28.2652C57.7693 28.2014 57.6802 28.109 57.5982 27.9881C57.5161 27.8672 57.4568 27.7118 57.4202 27.5219ZM57.8856 27.5117C57.9238 27.7101 57.995 27.8698 58.0992 27.9908C58.2036 28.1133 58.3241 28.1974 58.4608 28.2431C58.5978 28.2902 58.7343 28.3006 58.8703 28.2744L59.3295 28.186C59.2999 28.1697 59.2675 28.1274 59.2323 28.0592C59.1988 27.9922 59.1653 27.9134 59.1317 27.8228C59.0998 27.7335 59.0697 27.6459 59.0414 27.5602C59.0148 27.4757 58.9928 27.4072 58.9754 27.3547C58.9333 27.2276 58.8821 27.111 58.822 27.005C58.7636 26.9001 58.6902 26.8202 58.6017 26.7652C58.5149 26.7114 58.4077 26.6968 58.2802 26.7213C58.1058 26.7549 57.9865 26.8448 57.922 26.9909C57.8593 27.1383 57.8471 27.3118 57.8856 27.5117Z" fill="#85B69C"/>
<path d="M61.6296 37.6266L57.2864 36.7352L57.3891 36.2347L61.7324 37.1261L61.6296 37.6266Z" fill="#85B69C"/>
<path d="M54.6929 43.6849C54.8612 43.4363 55.0681 43.2582 55.3134 43.1507C55.558 43.0443 55.8222 43.0106 56.1061 43.0495C56.3893 43.0895 56.6731 43.2058 56.9575 43.3984C57.2443 43.5926 57.4595 43.8141 57.6031 44.0629C57.7458 44.3129 57.8132 44.5712 57.8053 44.8377C57.7966 45.1055 57.7081 45.3636 57.5398 45.6122C57.3715 45.8608 57.1651 46.0383 56.9205 46.1446C56.6752 46.2521 56.4103 46.2855 56.126 46.2446C55.8409 46.205 55.5549 46.088 55.268 45.8939C54.9836 45.7013 54.7706 45.4804 54.6291 45.2312C54.4867 44.9832 54.4199 44.7253 54.4286 44.4576C54.4365 44.191 54.5246 43.9335 54.6929 43.6849ZM55.073 43.9422C54.9452 44.131 54.8884 44.3191 54.9026 44.5066C54.9169 44.694 54.9831 44.8704 55.1012 45.0358C55.2193 45.2012 55.3704 45.3462 55.5545 45.4708C55.7385 45.5954 55.9299 45.6822 56.1285 45.7313C56.3271 45.7803 56.5166 45.7771 56.6972 45.7215C56.8777 45.6659 57.0319 45.5437 57.1597 45.3549C57.2876 45.1661 57.3438 44.9775 57.3283 44.7893C57.3128 44.601 57.2454 44.4238 57.1261 44.2576C57.0068 44.0915 56.8551 43.9461 56.6711 43.8215C56.487 43.6969 56.2963 43.6104 56.0989 43.5622C55.9015 43.5139 55.7131 43.518 55.5338 43.5744C55.3544 43.6307 55.2008 43.7533 55.073 43.9422Z" fill="#85B69C"/>
<path d="M52.0654 51.1798L50.9642 49.5098L51.3907 49.2285L53.2213 52.0046L52.8092 52.2763L52.5232 51.8426L52.487 51.8664C52.5149 52.0503 52.4908 52.2287 52.4147 52.4016C52.3394 52.5758 52.1969 52.732 51.9872 52.8702C51.7993 52.9942 51.6094 53.0641 51.4175 53.0799C51.2265 53.097 51.0406 53.0536 50.8598 52.9498C50.6798 52.8472 50.5119 52.6779 50.3562 52.4417L49.193 50.6777L49.6195 50.3965L50.7636 52.1315C50.9074 52.3496 51.0761 52.4822 51.2696 52.5292C51.4639 52.5774 51.6599 52.5363 51.8575 52.406C51.9936 52.3163 52.0958 52.2065 52.1641 52.0767C52.2312 51.9478 52.2582 51.8064 52.2449 51.6526C52.2317 51.4988 52.1719 51.3412 52.0654 51.1798Z" fill="#85B69C"/>
<path d="M29 35.3333C29.371 35.3333 29.925 35.7609 30.39 36.1937C30.99 36.7502 31.5135 37.4152 31.913 38.1777C32.2125 38.7493 32.5 39.4423 32.5 40M32.5 40C32.5 39.4423 32.7875 38.7487 33.087 38.1777C33.487 37.4152 34.0105 36.7502 34.6095 36.1937C35.075 35.7609 35.63 35.3333 36 35.3333M32.5 40V26" stroke="#85B69C" stroke-width="0.683027"/>
</svg>
