<svg width="227" height="44" viewBox="0 0 227 44" fill="none" xmlns="http://www.w3.org/2000/svg">
<path d="M33 13L34.3155 18.824L39.364 15.636L36.176 20.6845L42 22L36.176 23.3155L39.364 28.364L34.3155 25.176L33 31L31.6845 25.176L26.636 28.364L29.824 23.3155L24 22L29.824 20.6845L26.636 15.636L31.6845 18.824L33 13Z" fill="#C4A195"/>
<path d="M58.472 27.82L58.456 28.5H51.672V17.18H58.456V17.86H52.496V22.436H57.456V23.1H52.496V27.82H58.472ZM61.3239 16.86V28.5H60.5559V16.86H61.3239ZM69.5991 23.716C69.5991 23.2893 69.5378 22.908 69.4151 22.572C69.2978 22.2307 69.1298 21.9427 68.9111 21.708C68.6925 21.4733 68.4311 21.2947 68.1271 21.172C67.8285 21.044 67.4978 20.98 67.1351 20.98C66.7245 20.98 66.3565 21.044 66.0311 21.172C65.7058 21.3 65.4231 21.484 65.1831 21.724C64.9485 21.964 64.7591 22.252 64.6151 22.588C64.4711 22.924 64.3751 23.3 64.3271 23.716H69.5991ZM64.2871 24.204V24.356C64.2871 24.9533 64.3565 25.4787 64.4951 25.932C64.6338 26.3853 64.8311 26.7667 65.0871 27.076C65.3431 27.38 65.6525 27.6093 66.0151 27.764C66.3778 27.9187 66.7831 27.996 67.2311 27.996C67.6311 27.996 67.9778 27.9533 68.2711 27.868C68.5645 27.7773 68.8098 27.6787 69.0071 27.572C69.2098 27.46 69.3698 27.3613 69.4871 27.276C69.6045 27.1853 69.6898 27.14 69.7431 27.14C69.8125 27.14 69.8658 27.1667 69.9031 27.22L70.1111 27.476C69.9831 27.636 69.8125 27.7853 69.5991 27.924C69.3911 28.0627 69.1565 28.1827 68.8951 28.284C68.6391 28.38 68.3618 28.4573 68.0631 28.516C67.7698 28.5747 67.4738 28.604 67.1751 28.604C66.6311 28.604 66.1351 28.5107 65.6871 28.324C65.2391 28.132 64.8551 27.8547 64.5351 27.492C64.2151 27.1293 63.9671 26.6867 63.7911 26.164C63.6205 25.636 63.5351 25.0333 63.5351 24.356C63.5351 23.7853 63.6151 23.26 63.7751 22.78C63.9405 22.2947 64.1751 21.8787 64.4791 21.532C64.7885 21.18 65.1645 20.9053 65.6071 20.708C66.0551 20.5107 66.5618 20.412 67.1271 20.412C67.5751 20.412 67.9911 20.4893 68.3751 20.644C68.7591 20.7987 69.0925 21.0253 69.3751 21.324C69.6578 21.6173 69.8791 21.98 70.0391 22.412C70.2045 22.844 70.2871 23.34 70.2871 23.9C70.2871 24.0173 70.2711 24.0973 70.2391 24.14C70.2071 24.1827 70.1538 24.204 70.0791 24.204H64.2871ZM74.9589 24.98C75.3002 24.98 75.6042 24.932 75.8709 24.836C76.1375 24.7347 76.3615 24.596 76.5429 24.42C76.7242 24.244 76.8629 24.0333 76.9589 23.788C77.0549 23.5427 77.1029 23.2707 77.1029 22.972C77.1029 22.6733 77.0522 22.4013 76.9509 22.156C76.8549 21.9053 76.7135 21.692 76.5269 21.516C76.3455 21.34 76.1215 21.204 75.8549 21.108C75.5935 21.012 75.2949 20.964 74.9589 20.964C74.6229 20.964 74.3215 21.012 74.0549 21.108C73.7935 21.204 73.5695 21.34 73.3829 21.516C73.2015 21.692 73.0629 21.9053 72.9669 22.156C72.8709 22.4013 72.8229 22.6733 72.8229 22.972C72.8229 23.2707 72.8709 23.5427 72.9669 23.788C73.0629 24.0333 73.2015 24.244 73.3829 24.42C73.5695 24.596 73.7935 24.7347 74.0549 24.836C74.3215 24.932 74.6229 24.98 74.9589 24.98ZM77.9349 29.036C77.9349 28.7853 77.8682 28.5853 77.7349 28.436C77.6069 28.2813 77.4335 28.1613 77.2149 28.076C76.9962 27.9907 76.7429 27.932 76.4549 27.9C76.1722 27.8627 75.8735 27.836 75.5589 27.82C75.2495 27.804 74.9375 27.788 74.6229 27.772C74.3082 27.756 74.0122 27.724 73.7349 27.676C73.5322 27.756 73.3455 27.8493 73.1749 27.956C73.0042 28.0573 72.8575 28.1747 72.7349 28.308C72.6122 28.4413 72.5162 28.5853 72.4469 28.74C72.3775 28.9 72.3429 29.0707 72.3429 29.252C72.3429 29.4867 72.4015 29.7027 72.5189 29.9C72.6415 30.1027 72.8175 30.276 73.0469 30.42C73.2815 30.5693 73.5669 30.6867 73.9029 30.772C74.2389 30.8573 74.6255 30.9 75.0629 30.9C75.4682 30.9 75.8442 30.8547 76.1909 30.764C76.5429 30.6733 76.8469 30.5453 77.1029 30.38C77.3642 30.2147 77.5669 30.0173 77.7109 29.788C77.8602 29.5587 77.9349 29.308 77.9349 29.036ZM78.7669 20.892V21.156C78.7669 21.2733 78.6922 21.3453 78.5429 21.372L77.3269 21.46C77.4762 21.6627 77.5909 21.8893 77.6709 22.14C77.7509 22.3907 77.7909 22.6627 77.7909 22.956C77.7909 23.34 77.7215 23.6893 77.5829 24.004C77.4495 24.3133 77.2575 24.58 77.0069 24.804C76.7615 25.0227 76.4629 25.1933 76.1109 25.316C75.7642 25.4387 75.3802 25.5 74.9589 25.5C74.5055 25.5 74.0922 25.4307 73.7189 25.292C73.4949 25.42 73.3162 25.572 73.1829 25.748C73.0549 25.9187 72.9909 26.0893 72.9909 26.26C72.9909 26.4893 73.0709 26.6653 73.2309 26.788C73.3962 26.9107 73.6095 27.0013 73.8709 27.06C74.1375 27.1133 74.4389 27.148 74.7749 27.164C75.1162 27.18 75.4629 27.1987 75.8149 27.22C76.1669 27.236 76.5109 27.268 76.8469 27.316C77.1882 27.364 77.4895 27.4493 77.7509 27.572C78.0175 27.6893 78.2309 27.8573 78.3909 28.076C78.5562 28.2893 78.6389 28.5747 78.6389 28.932C78.6389 29.2627 78.5562 29.58 78.3909 29.884C78.2255 30.188 77.9855 30.4573 77.6709 30.692C77.3615 30.9267 76.9855 31.1133 76.5429 31.252C76.1002 31.396 75.6042 31.468 75.0549 31.468C74.4949 31.468 74.0042 31.4093 73.5829 31.292C73.1615 31.18 72.8069 31.0253 72.5189 30.828C72.2362 30.636 72.0229 30.412 71.8789 30.156C71.7349 29.9 71.6629 29.628 71.6629 29.34C71.6629 28.9187 71.8015 28.5587 72.0789 28.26C72.3562 27.956 72.7349 27.7187 73.2149 27.548C72.9482 27.4573 72.7322 27.3267 72.5669 27.156C72.4069 26.98 72.3269 26.7427 72.3269 26.444C72.3269 26.332 72.3482 26.2147 72.3909 26.092C72.4335 25.9693 72.4975 25.8493 72.5829 25.732C72.6682 25.6093 72.7722 25.4947 72.8949 25.388C73.0175 25.2813 73.1562 25.1853 73.3109 25.1C72.9322 24.8813 72.6362 24.5907 72.4229 24.228C72.2149 23.8653 72.1109 23.4413 72.1109 22.956C72.1109 22.572 72.1775 22.2253 72.3109 21.916C72.4495 21.6013 72.6442 21.332 72.8949 21.108C73.1455 20.884 73.4442 20.7107 73.7909 20.588C74.1429 20.4653 74.5322 20.404 74.9589 20.404C75.3109 20.404 75.6335 20.4467 75.9269 20.532C76.2255 20.6173 76.4922 20.7373 76.7269 20.892H78.7669ZM84.9868 24.652C84.2294 24.6787 83.5761 24.74 83.0268 24.836C82.4828 24.9267 82.0321 25.052 81.6748 25.212C81.3228 25.372 81.0614 25.564 80.8908 25.788C80.7201 26.0067 80.6348 26.2573 80.6348 26.54C80.6348 26.8067 80.6774 27.0387 80.7628 27.236C80.8534 27.428 80.9708 27.588 81.1148 27.716C81.2641 27.8387 81.4348 27.9293 81.6268 27.988C81.8188 28.0467 82.0188 28.076 82.2268 28.076C82.5361 28.076 82.8188 28.044 83.0748 27.98C83.3361 27.9107 83.5761 27.8173 83.7948 27.7C84.0188 27.5773 84.2268 27.4333 84.4188 27.268C84.6108 27.1027 84.8001 26.924 84.9868 26.732V24.652ZM80.3068 21.668C80.7228 21.252 81.1601 20.9373 81.6188 20.724C82.0774 20.5107 82.5974 20.404 83.1788 20.404C83.6054 20.404 83.9788 20.4733 84.2988 20.612C84.6188 20.7453 84.8828 20.94 85.0908 21.196C85.3041 21.4467 85.4641 21.7533 85.5708 22.116C85.6774 22.4733 85.7308 22.8733 85.7308 23.316V28.5H85.4268C85.2668 28.5 85.1681 28.4253 85.1308 28.276L85.0188 27.252C84.8001 27.4653 84.5814 27.6573 84.3628 27.828C84.1494 27.9987 83.9254 28.1427 83.6908 28.26C83.4561 28.3773 83.2028 28.468 82.9308 28.532C82.6588 28.596 82.3601 28.628 82.0348 28.628C81.7628 28.628 81.4988 28.588 81.2428 28.508C80.9868 28.428 80.7574 28.3053 80.5548 28.14C80.3574 27.9747 80.1974 27.764 80.0748 27.508C79.9574 27.2467 79.8988 26.9347 79.8988 26.572C79.8988 26.236 79.9948 25.924 80.1868 25.636C80.3788 25.348 80.6801 25.0973 81.0908 24.884C81.5014 24.6707 82.0268 24.5 82.6668 24.372C83.3121 24.244 84.0854 24.1693 84.9868 24.148V23.316C84.9868 22.58 84.8268 22.0147 84.5068 21.62C84.1921 21.22 83.7228 21.02 83.0988 21.02C82.7148 21.02 82.3868 21.0733 82.1148 21.18C81.8481 21.2867 81.6214 21.404 81.4348 21.532C81.2481 21.66 81.0961 21.7773 80.9788 21.884C80.8614 21.9907 80.7628 22.044 80.6828 22.044C80.6241 22.044 80.5761 22.0307 80.5388 22.004C80.5014 21.9773 80.4694 21.9427 80.4428 21.9L80.3068 21.668ZM89.0088 21.932C89.3768 21.4733 89.8008 21.1053 90.2808 20.828C90.7661 20.5507 91.3048 20.412 91.8968 20.412C92.3341 20.412 92.7181 20.4813 93.0488 20.62C93.3848 20.7587 93.6621 20.9587 93.8808 21.22C94.0994 21.4813 94.2648 21.796 94.3768 22.164C94.4888 22.532 94.5448 22.948 94.5448 23.412V28.5H93.7768V23.412C93.7768 22.6653 93.6061 22.0813 93.2648 21.66C92.9234 21.2333 92.4034 21.02 91.7048 21.02C91.1874 21.02 90.7021 21.1533 90.2488 21.42C89.8008 21.6813 89.4008 22.0467 89.0488 22.516V28.5H88.2808V20.54H88.7048C88.8381 20.54 88.9154 20.6067 88.9368 20.74L89.0088 21.932ZM99.1443 28.628C98.6056 28.628 98.1843 28.4787 97.8803 28.18C97.5816 27.8813 97.4323 27.42 97.4323 26.796V21.356H96.2883C96.2296 21.356 96.1816 21.34 96.1443 21.308C96.1069 21.276 96.0883 21.2307 96.0883 21.172V20.876L97.4483 20.78L97.6403 17.932C97.6509 17.884 97.6723 17.8413 97.7043 17.804C97.7363 17.7667 97.7816 17.748 97.8403 17.748H98.2003V20.788H100.712V21.356H98.2003V26.756C98.2003 26.9747 98.2269 27.164 98.2803 27.324C98.3389 27.4787 98.4163 27.6067 98.5123 27.708C98.6136 27.8093 98.7309 27.884 98.8643 27.932C98.9976 27.98 99.1416 28.004 99.2963 28.004C99.4883 28.004 99.6536 27.9773 99.7923 27.924C99.9309 27.8653 100.051 27.804 100.152 27.74C100.254 27.6707 100.336 27.6093 100.4 27.556C100.464 27.4973 100.515 27.468 100.552 27.468C100.595 27.468 100.638 27.4947 100.68 27.548L100.888 27.884C100.686 28.108 100.427 28.2893 100.112 28.428C99.8029 28.5613 99.4803 28.628 99.1443 28.628ZM110.82 27.844C111.812 27.844 112.562 27.6307 113.068 27.204C113.58 26.772 113.836 26.1667 113.836 25.388C113.836 25.0307 113.767 24.7107 113.628 24.428C113.495 24.14 113.3 23.8973 113.044 23.7C112.788 23.4973 112.474 23.3427 112.1 23.236C111.727 23.1293 111.303 23.076 110.828 23.076H107.98V27.844H110.82ZM107.98 17.828V22.476H110.428C110.951 22.476 111.396 22.4093 111.764 22.276C112.138 22.1427 112.442 21.9667 112.676 21.748C112.916 21.5293 113.092 21.2813 113.204 21.004C113.316 20.7267 113.372 20.4413 113.372 20.148C113.372 19.3853 113.13 18.8093 112.644 18.42C112.164 18.0253 111.42 17.828 110.412 17.828H107.98ZM110.412 17.18C111.058 17.18 111.618 17.244 112.092 17.372C112.567 17.5 112.959 17.6893 113.268 17.94C113.578 18.1853 113.807 18.4867 113.956 18.844C114.106 19.2013 114.18 19.6067 114.18 20.06C114.18 20.3587 114.127 20.6467 114.02 20.924C113.919 21.2013 113.77 21.4573 113.572 21.692C113.38 21.9267 113.14 22.132 112.852 22.308C112.57 22.4787 112.244 22.6093 111.876 22.7C112.767 22.828 113.45 23.124 113.924 23.588C114.404 24.0467 114.644 24.652 114.644 25.404C114.644 25.884 114.559 26.316 114.388 26.7C114.218 27.084 113.97 27.4093 113.644 27.676C113.319 27.9427 112.919 28.148 112.444 28.292C111.97 28.4307 111.431 28.5 110.828 28.5H107.156V17.18H110.412ZM117.431 22.46C117.553 22.1347 117.692 21.8467 117.847 21.596C118.007 21.34 118.188 21.124 118.391 20.948C118.599 20.772 118.828 20.6387 119.079 20.548C119.335 20.452 119.617 20.404 119.927 20.404C120.092 20.404 120.255 20.42 120.415 20.452C120.575 20.4787 120.716 20.5293 120.839 20.604L120.775 21.132C120.748 21.2173 120.697 21.26 120.623 21.26C120.559 21.26 120.46 21.2413 120.327 21.204C120.199 21.1667 120.028 21.148 119.815 21.148C119.505 21.148 119.231 21.196 118.991 21.292C118.756 21.3827 118.543 21.5213 118.351 21.708C118.164 21.8947 117.999 22.1267 117.855 22.404C117.716 22.676 117.588 22.9907 117.471 23.348V28.5H116.703V20.54H117.111C117.201 20.54 117.265 20.5587 117.303 20.596C117.34 20.6333 117.364 20.6973 117.375 20.788L117.431 22.46ZM123.207 20.54V28.5H122.447V20.54H123.207ZM123.535 17.796C123.535 17.892 123.514 17.9827 123.471 18.068C123.434 18.148 123.383 18.22 123.319 18.284C123.255 18.348 123.18 18.3987 123.095 18.436C123.01 18.4733 122.919 18.492 122.823 18.492C122.727 18.492 122.636 18.4733 122.551 18.436C122.466 18.3987 122.391 18.348 122.327 18.284C122.263 18.22 122.212 18.148 122.175 18.068C122.138 17.9827 122.119 17.892 122.119 17.796C122.119 17.7 122.138 17.6093 122.175 17.524C122.212 17.4333 122.263 17.356 122.327 17.292C122.391 17.228 122.466 17.1773 122.551 17.14C122.636 17.1027 122.727 17.084 122.823 17.084C122.919 17.084 123.01 17.1027 123.095 17.14C123.18 17.1773 123.255 17.228 123.319 17.292C123.383 17.356 123.434 17.4333 123.471 17.524C123.514 17.6093 123.535 17.7 123.535 17.796ZM131.353 22.252C131.049 21.7933 130.711 21.4707 130.337 21.284C129.969 21.0973 129.548 21.004 129.073 21.004C128.604 21.004 128.193 21.0893 127.841 21.26C127.489 21.4307 127.193 21.6733 126.953 21.988C126.719 22.2973 126.54 22.6707 126.417 23.108C126.3 23.54 126.241 24.0173 126.241 24.54C126.241 25.724 126.457 26.596 126.889 27.156C127.327 27.7107 127.956 27.988 128.777 27.988C129.3 27.988 129.777 27.852 130.209 27.58C130.641 27.308 131.023 26.9267 131.353 26.436V22.252ZM132.113 16.86V28.5H131.697C131.559 28.5 131.479 28.4307 131.457 28.292L131.377 27.036C131.025 27.516 130.615 27.8973 130.145 28.18C129.676 28.4627 129.148 28.604 128.561 28.604C127.58 28.604 126.817 28.2653 126.273 27.588C125.729 26.9107 125.457 25.8947 125.457 24.54C125.457 23.9587 125.532 23.4173 125.681 22.916C125.836 22.4093 126.06 21.972 126.353 21.604C126.647 21.2307 127.007 20.9373 127.433 20.724C127.865 20.5107 128.361 20.404 128.921 20.404C129.46 20.404 129.927 20.5027 130.321 20.7C130.716 20.8973 131.06 21.1907 131.353 21.58V16.86H132.113ZM139.19 24.652C138.433 24.6787 137.779 24.74 137.23 24.836C136.686 24.9267 136.235 25.052 135.878 25.212C135.526 25.372 135.265 25.564 135.094 25.788C134.923 26.0067 134.838 26.2573 134.838 26.54C134.838 26.8067 134.881 27.0387 134.966 27.236C135.057 27.428 135.174 27.588 135.318 27.716C135.467 27.8387 135.638 27.9293 135.83 27.988C136.022 28.0467 136.222 28.076 136.43 28.076C136.739 28.076 137.022 28.044 137.278 27.98C137.539 27.9107 137.779 27.8173 137.998 27.7C138.222 27.5773 138.43 27.4333 138.622 27.268C138.814 27.1027 139.003 26.924 139.19 26.732V24.652ZM134.51 21.668C134.926 21.252 135.363 20.9373 135.822 20.724C136.281 20.5107 136.801 20.404 137.382 20.404C137.809 20.404 138.182 20.4733 138.502 20.612C138.822 20.7453 139.086 20.94 139.294 21.196C139.507 21.4467 139.667 21.7533 139.774 22.116C139.881 22.4733 139.934 22.8733 139.934 23.316V28.5H139.63C139.47 28.5 139.371 28.4253 139.334 28.276L139.222 27.252C139.003 27.4653 138.785 27.6573 138.566 27.828C138.353 27.9987 138.129 28.1427 137.894 28.26C137.659 28.3773 137.406 28.468 137.134 28.532C136.862 28.596 136.563 28.628 136.238 28.628C135.966 28.628 135.702 28.588 135.446 28.508C135.19 28.428 134.961 28.3053 134.758 28.14C134.561 27.9747 134.401 27.764 134.278 27.508C134.161 27.2467 134.102 26.9347 134.102 26.572C134.102 26.236 134.198 25.924 134.39 25.636C134.582 25.348 134.883 25.0973 135.294 24.884C135.705 24.6707 136.23 24.5 136.87 24.372C137.515 24.244 138.289 24.1693 139.19 24.148V23.316C139.19 22.58 139.03 22.0147 138.71 21.62C138.395 21.22 137.926 21.02 137.302 21.02C136.918 21.02 136.59 21.0733 136.318 21.18C136.051 21.2867 135.825 21.404 135.638 21.532C135.451 21.66 135.299 21.7773 135.182 21.884C135.065 21.9907 134.966 22.044 134.886 22.044C134.827 22.044 134.779 22.0307 134.742 22.004C134.705 21.9773 134.673 21.9427 134.646 21.9L134.51 21.668ZM143.324 16.86V28.5H142.556V16.86H143.324ZM157.595 17.876H153.619V28.5H152.795V17.876H148.795V17.18H157.595V17.876ZM159.768 21.884C160.136 21.436 160.554 21.0787 161.024 20.812C161.498 20.5453 162.029 20.412 162.616 20.412C163.053 20.412 163.437 20.4813 163.768 20.62C164.104 20.7587 164.381 20.9587 164.6 21.22C164.818 21.4813 164.984 21.796 165.096 22.164C165.208 22.532 165.264 22.948 165.264 23.412V28.5H164.496V23.412C164.496 22.6653 164.325 22.0813 163.984 21.66C163.642 21.2333 163.122 21.02 162.424 21.02C161.906 21.02 161.421 21.1533 160.968 21.42C160.52 21.6813 160.12 22.0467 159.768 22.516V28.5H159V16.86H159.768V21.884ZM173.38 23.716C173.38 23.2893 173.319 22.908 173.196 22.572C173.079 22.2307 172.911 21.9427 172.692 21.708C172.474 21.4733 172.212 21.2947 171.908 21.172C171.61 21.044 171.279 20.98 170.916 20.98C170.506 20.98 170.138 21.044 169.812 21.172C169.487 21.3 169.204 21.484 168.964 21.724C168.73 21.964 168.54 22.252 168.396 22.588C168.252 22.924 168.156 23.3 168.108 23.716H173.38ZM168.068 24.204V24.356C168.068 24.9533 168.138 25.4787 168.276 25.932C168.415 26.3853 168.612 26.7667 168.868 27.076C169.124 27.38 169.434 27.6093 169.796 27.764C170.159 27.9187 170.564 27.996 171.012 27.996C171.412 27.996 171.759 27.9533 172.052 27.868C172.346 27.7773 172.591 27.6787 172.788 27.572C172.991 27.46 173.151 27.3613 173.268 27.276C173.386 27.1853 173.471 27.14 173.524 27.14C173.594 27.14 173.647 27.1667 173.684 27.22L173.892 27.476C173.764 27.636 173.594 27.7853 173.38 27.924C173.172 28.0627 172.938 28.1827 172.676 28.284C172.42 28.38 172.143 28.4573 171.844 28.516C171.551 28.5747 171.255 28.604 170.956 28.604C170.412 28.604 169.916 28.5107 169.468 28.324C169.02 28.132 168.636 27.8547 168.316 27.492C167.996 27.1293 167.748 26.6867 167.572 26.164C167.402 25.636 167.316 25.0333 167.316 24.356C167.316 23.7853 167.396 23.26 167.556 22.78C167.722 22.2947 167.956 21.8787 168.26 21.532C168.57 21.18 168.946 20.9053 169.388 20.708C169.836 20.5107 170.343 20.412 170.908 20.412C171.356 20.412 171.772 20.4893 172.156 20.644C172.54 20.7987 172.874 21.0253 173.156 21.324C173.439 21.6173 173.66 21.98 173.82 22.412C173.986 22.844 174.068 23.34 174.068 23.9C174.068 24.0173 174.052 24.0973 174.02 24.14C173.988 24.1827 173.935 24.204 173.86 24.204H168.068ZM176.14 28.5V20.54H176.564C176.697 20.54 176.775 20.6067 176.796 20.74L176.868 21.892C177.177 21.4493 177.532 21.092 177.932 20.82C178.332 20.548 178.783 20.412 179.284 20.412C179.865 20.412 180.329 20.58 180.676 20.916C181.028 21.252 181.265 21.7187 181.388 22.316C181.484 21.9907 181.617 21.708 181.788 21.468C181.964 21.228 182.164 21.0307 182.388 20.876C182.612 20.716 182.855 20.5987 183.116 20.524C183.383 20.4493 183.655 20.412 183.932 20.412C184.327 20.412 184.681 20.4787 184.996 20.612C185.311 20.74 185.577 20.932 185.796 21.188C186.015 21.444 186.183 21.7587 186.3 22.132C186.417 22.5053 186.476 22.932 186.476 23.412V28.5H185.716V23.412C185.716 22.6333 185.548 22.0413 185.212 21.636C184.876 21.2253 184.396 21.02 183.772 21.02C183.495 21.02 183.228 21.0707 182.972 21.172C182.721 21.2733 182.497 21.4253 182.3 21.628C182.108 21.8253 181.953 22.0733 181.836 22.372C181.724 22.6707 181.668 23.0173 181.668 23.412V28.5H180.9V23.412C180.9 22.6387 180.745 22.0467 180.436 21.636C180.132 21.2253 179.684 21.02 179.092 21.02C178.66 21.02 178.26 21.148 177.892 21.404C177.524 21.66 177.196 22.0147 176.908 22.468V28.5H176.14ZM194.599 23.716C194.599 23.2893 194.538 22.908 194.415 22.572C194.298 22.2307 194.13 21.9427 193.911 21.708C193.692 21.4733 193.431 21.2947 193.127 21.172C192.828 21.044 192.498 20.98 192.135 20.98C191.724 20.98 191.356 21.044 191.031 21.172C190.706 21.3 190.423 21.484 190.183 21.724C189.948 21.964 189.759 22.252 189.615 22.588C189.471 22.924 189.375 23.3 189.327 23.716H194.599ZM189.287 24.204V24.356C189.287 24.9533 189.356 25.4787 189.495 25.932C189.634 26.3853 189.831 26.7667 190.087 27.076C190.343 27.38 190.652 27.6093 191.015 27.764C191.378 27.9187 191.783 27.996 192.231 27.996C192.631 27.996 192.978 27.9533 193.271 27.868C193.564 27.7773 193.81 27.6787 194.007 27.572C194.21 27.46 194.37 27.3613 194.487 27.276C194.604 27.1853 194.69 27.14 194.743 27.14C194.812 27.14 194.866 27.1667 194.903 27.22L195.111 27.476C194.983 27.636 194.812 27.7853 194.599 27.924C194.391 28.0627 194.156 28.1827 193.895 28.284C193.639 28.38 193.362 28.4573 193.063 28.516C192.77 28.5747 192.474 28.604 192.175 28.604C191.631 28.604 191.135 28.5107 190.687 28.324C190.239 28.132 189.855 27.8547 189.535 27.492C189.215 27.1293 188.967 26.6867 188.791 26.164C188.62 25.636 188.535 25.0333 188.535 24.356C188.535 23.7853 188.615 23.26 188.775 22.78C188.94 22.2947 189.175 21.8787 189.479 21.532C189.788 21.18 190.164 20.9053 190.607 20.708C191.055 20.5107 191.562 20.412 192.127 20.412C192.575 20.412 192.991 20.4893 193.375 20.644C193.759 20.7987 194.092 21.0253 194.375 21.324C194.658 21.6173 194.879 21.98 195.039 22.412C195.204 22.844 195.287 23.34 195.287 23.9C195.287 24.0173 195.271 24.0973 195.239 24.14C195.207 24.1827 195.154 24.204 195.079 24.204H189.287ZM201.735 21.524C201.692 21.5987 201.631 21.636 201.551 21.636C201.492 21.636 201.418 21.604 201.327 21.54C201.236 21.4707 201.114 21.396 200.959 21.316C200.81 21.2307 200.623 21.156 200.399 21.092C200.175 21.0227 199.903 20.988 199.583 20.988C199.295 20.988 199.031 21.0307 198.791 21.116C198.556 21.196 198.354 21.3053 198.183 21.444C198.018 21.5827 197.89 21.7453 197.799 21.932C197.708 22.1133 197.663 22.3053 197.663 22.508C197.663 22.7587 197.727 22.9667 197.855 23.132C197.983 23.2973 198.148 23.4387 198.351 23.556C198.559 23.6733 198.796 23.7747 199.063 23.86C199.33 23.9453 199.599 24.0307 199.871 24.116C200.148 24.2013 200.42 24.2973 200.687 24.404C200.954 24.5053 201.188 24.6333 201.391 24.788C201.599 24.9427 201.767 25.132 201.895 25.356C202.023 25.58 202.087 25.852 202.087 26.172C202.087 26.5187 202.026 26.8413 201.903 27.14C201.78 27.4387 201.599 27.6973 201.359 27.916C201.124 28.1347 200.834 28.308 200.487 28.436C200.14 28.564 199.743 28.628 199.295 28.628C198.735 28.628 198.252 28.54 197.847 28.364C197.442 28.1827 197.079 27.948 196.759 27.66L196.935 27.388C196.962 27.3453 196.991 27.3133 197.023 27.292C197.06 27.2707 197.108 27.26 197.167 27.26C197.236 27.26 197.319 27.3027 197.415 27.388C197.516 27.4733 197.65 27.5667 197.815 27.668C197.98 27.764 198.183 27.8547 198.423 27.94C198.668 28.0253 198.97 28.068 199.327 28.068C199.663 28.068 199.959 28.0227 200.215 27.932C200.471 27.836 200.684 27.708 200.855 27.548C201.026 27.388 201.154 27.2013 201.239 26.988C201.33 26.7693 201.375 26.54 201.375 26.3C201.375 26.0333 201.311 25.812 201.183 25.636C201.055 25.46 200.887 25.3107 200.679 25.188C200.471 25.0653 200.234 24.9613 199.967 24.876C199.706 24.7907 199.436 24.7053 199.159 24.62C198.882 24.5347 198.61 24.4413 198.343 24.34C198.082 24.2387 197.847 24.1107 197.639 23.956C197.431 23.8013 197.263 23.6147 197.135 23.396C197.007 23.172 196.943 22.8947 196.943 22.564C196.943 22.2813 197.004 22.0093 197.127 21.748C197.25 21.4867 197.423 21.2573 197.647 21.06C197.876 20.8627 198.154 20.7053 198.479 20.588C198.804 20.4707 199.17 20.412 199.575 20.412C200.06 20.412 200.49 20.4813 200.863 20.62C201.242 20.7587 201.586 20.972 201.895 21.26L201.735 21.524Z" fill="#2D2D2D"/>
</svg>
