<svg width="210" height="44" viewBox="0 0 210 44" fill="none" xmlns="http://www.w3.org/2000/svg">
<path d="M33 13L34.3155 18.824L39.364 15.636L36.176 20.6845L42 22L36.176 23.3155L39.364 28.364L34.3155 25.176L33 31L31.6845 25.176L26.636 28.364L29.824 23.3155L24 22L29.824 20.6845L26.636 15.636L31.6845 18.824L33 13Z" fill="#C4A195"/>
<path d="M57.168 18.556C57.12 18.6467 57.0507 18.692 56.96 18.692C56.8907 18.692 56.8 18.644 56.688 18.548C56.5813 18.4467 56.4347 18.3373 56.248 18.22C56.0613 18.0973 55.8267 17.9853 55.544 17.884C55.2667 17.7827 54.9227 17.732 54.512 17.732C54.1013 17.732 53.7387 17.7907 53.424 17.908C53.1147 18.0253 52.8533 18.1853 52.64 18.388C52.432 18.5907 52.272 18.8253 52.16 19.092C52.0533 19.3587 52 19.6387 52 19.932C52 20.316 52.08 20.6333 52.24 20.884C52.4053 21.1347 52.6213 21.348 52.888 21.524C53.1547 21.7 53.456 21.8493 53.792 21.972C54.1333 22.0893 54.4827 22.2067 54.84 22.324C55.1973 22.4413 55.544 22.572 55.88 22.716C56.2213 22.8547 56.5253 23.0307 56.792 23.244C57.0587 23.4573 57.272 23.7213 57.432 24.036C57.5973 24.3453 57.68 24.732 57.68 25.196C57.68 25.6707 57.5973 26.1187 57.432 26.54C57.272 26.956 57.0373 27.3187 56.728 27.628C56.4187 27.9373 56.04 28.1827 55.592 28.364C55.144 28.54 54.632 28.628 54.056 28.628C53.3093 28.628 52.6667 28.4973 52.128 28.236C51.5893 27.9693 51.1173 27.6067 50.712 27.148L50.936 26.796C51 26.716 51.0747 26.676 51.16 26.676C51.208 26.676 51.2693 26.708 51.344 26.772C51.4187 26.836 51.5093 26.916 51.616 27.012C51.7227 27.1027 51.8507 27.204 52 27.316C52.1493 27.4227 52.3227 27.524 52.52 27.62C52.7173 27.7107 52.944 27.788 53.2 27.852C53.456 27.916 53.7467 27.948 54.072 27.948C54.52 27.948 54.92 27.8813 55.272 27.748C55.624 27.6093 55.92 27.4227 56.16 27.188C56.4053 26.9533 56.592 26.676 56.72 26.356C56.848 26.0307 56.912 25.684 56.912 25.316C56.912 24.916 56.8293 24.588 56.664 24.332C56.504 24.0707 56.2907 23.8547 56.024 23.684C55.7573 23.508 55.4533 23.3613 55.112 23.244C54.776 23.1267 54.4293 23.012 54.072 22.9C53.7147 22.788 53.3653 22.6627 53.024 22.524C52.688 22.3853 52.3867 22.2093 52.12 21.996C51.8533 21.7773 51.6373 21.508 51.472 21.188C51.312 20.8627 51.232 20.4573 51.232 19.972C51.232 19.5933 51.304 19.228 51.448 18.876C51.592 18.524 51.8027 18.2147 52.08 17.948C52.3573 17.676 52.6987 17.46 53.104 17.3C53.5147 17.1347 53.9813 17.052 54.504 17.052C55.0907 17.052 55.616 17.1453 56.08 17.332C56.5493 17.5187 56.976 17.804 57.36 18.188L57.168 18.556ZM61.6755 28.628C61.1368 28.628 60.7155 28.4787 60.4115 28.18C60.1128 27.8813 59.9635 27.42 59.9635 26.796V21.356H58.8195C58.7608 21.356 58.7128 21.34 58.6755 21.308C58.6382 21.276 58.6195 21.2307 58.6195 21.172V20.876L59.9795 20.78L60.1715 17.932C60.1822 17.884 60.2035 17.8413 60.2355 17.804C60.2675 17.7667 60.3128 17.748 60.3715 17.748H60.7315V20.788H63.2435V21.356H60.7315V26.756C60.7315 26.9747 60.7582 27.164 60.8115 27.324C60.8702 27.4787 60.9475 27.6067 61.0435 27.708C61.1448 27.8093 61.2622 27.884 61.3955 27.932C61.5288 27.98 61.6728 28.004 61.8275 28.004C62.0195 28.004 62.1848 27.9773 62.3235 27.924C62.4622 27.8653 62.5822 27.804 62.6835 27.74C62.7848 27.6707 62.8675 27.6093 62.9315 27.556C62.9955 27.4973 63.0462 27.468 63.0835 27.468C63.1262 27.468 63.1688 27.4947 63.2115 27.548L63.4195 27.884C63.2168 28.108 62.9582 28.2893 62.6435 28.428C62.3342 28.5613 62.0115 28.628 61.6755 28.628ZM71.1599 20.54V28.5H70.7359C70.6025 28.5 70.5252 28.4307 70.5039 28.292L70.4319 27.108C70.0639 27.5667 69.6372 27.9347 69.1519 28.212C68.6719 28.4893 68.1359 28.628 67.5439 28.628C67.1012 28.628 66.7145 28.5587 66.3839 28.42C66.0532 28.2813 65.7785 28.0813 65.5599 27.82C65.3412 27.5587 65.1759 27.244 65.0639 26.876C64.9519 26.508 64.8959 26.092 64.8959 25.628V20.54H65.6639V25.628C65.6639 26.3747 65.8345 26.9613 66.1759 27.388C66.5172 27.8093 67.0372 28.02 67.7359 28.02C68.2532 28.02 68.7359 27.8893 69.1839 27.628C69.6372 27.3613 70.0399 26.9933 70.3919 26.524V20.54H71.1599ZM74.5088 21.932C74.8768 21.4733 75.3008 21.1053 75.7808 20.828C76.2661 20.5507 76.8048 20.412 77.3968 20.412C77.8341 20.412 78.2181 20.4813 78.5488 20.62C78.8848 20.7587 79.1621 20.9587 79.3808 21.22C79.5994 21.4813 79.7648 21.796 79.8768 22.164C79.9888 22.532 80.0448 22.948 80.0448 23.412V28.5H79.2768V23.412C79.2768 22.6653 79.1061 22.0813 78.7648 21.66C78.4234 21.2333 77.9034 21.02 77.2048 21.02C76.6874 21.02 76.2021 21.1533 75.7488 21.42C75.3008 21.6813 74.9008 22.0467 74.5488 22.516V28.5H73.7808V20.54H74.2048C74.3381 20.54 74.4154 20.6067 74.4368 20.74L74.5088 21.932ZM83.3056 21.932C83.6736 21.4733 84.0976 21.1053 84.5776 20.828C85.063 20.5507 85.6016 20.412 86.1936 20.412C86.631 20.412 87.015 20.4813 87.3456 20.62C87.6816 20.7587 87.959 20.9587 88.1776 21.22C88.3963 21.4813 88.5616 21.796 88.6736 22.164C88.7856 22.532 88.8416 22.948 88.8416 23.412V28.5H88.0736V23.412C88.0736 22.6653 87.903 22.0813 87.5616 21.66C87.2203 21.2333 86.7003 21.02 86.0016 21.02C85.4843 21.02 84.999 21.1533 84.5456 21.42C84.0976 21.6813 83.6976 22.0467 83.3456 22.516V28.5H82.5776V20.54H83.0016C83.135 20.54 83.2123 20.6067 83.2336 20.74L83.3056 21.932ZM92.2225 20.54V28.5H91.4625V20.54H92.2225ZM92.5505 17.796C92.5505 17.892 92.5292 17.9827 92.4865 18.068C92.4492 18.148 92.3985 18.22 92.3345 18.284C92.2705 18.348 92.1958 18.3987 92.1105 18.436C92.0252 18.4733 91.9345 18.492 91.8385 18.492C91.7425 18.492 91.6518 18.4733 91.5665 18.436C91.4812 18.3987 91.4065 18.348 91.3425 18.284C91.2785 18.22 91.2278 18.148 91.1905 18.068C91.1532 17.9827 91.1345 17.892 91.1345 17.796C91.1345 17.7 91.1532 17.6093 91.1905 17.524C91.2278 17.4333 91.2785 17.356 91.3425 17.292C91.4065 17.228 91.4812 17.1773 91.5665 17.14C91.6518 17.1027 91.7425 17.084 91.8385 17.084C91.9345 17.084 92.0252 17.1027 92.1105 17.14C92.1958 17.1773 92.2705 17.228 92.3345 17.292C92.3985 17.356 92.4492 17.4333 92.4865 17.524C92.5292 17.6093 92.5505 17.7 92.5505 17.796ZM95.665 21.932C96.033 21.4733 96.457 21.1053 96.937 20.828C97.4223 20.5507 97.961 20.412 98.553 20.412C98.9903 20.412 99.3743 20.4813 99.705 20.62C100.041 20.7587 100.318 20.9587 100.537 21.22C100.756 21.4813 100.921 21.796 101.033 22.164C101.145 22.532 101.201 22.948 101.201 23.412V28.5H100.433V23.412C100.433 22.6653 100.262 22.0813 99.921 21.66C99.5797 21.2333 99.0597 21.02 98.361 21.02C97.8437 21.02 97.3583 21.1533 96.905 21.42C96.457 21.6813 96.057 22.0467 95.705 22.516V28.5H94.937V20.54H95.361C95.4943 20.54 95.5717 20.6067 95.593 20.74L95.665 21.932ZM106.334 24.98C106.675 24.98 106.979 24.932 107.246 24.836C107.513 24.7347 107.737 24.596 107.918 24.42C108.099 24.244 108.238 24.0333 108.334 23.788C108.43 23.5427 108.478 23.2707 108.478 22.972C108.478 22.6733 108.427 22.4013 108.326 22.156C108.23 21.9053 108.089 21.692 107.902 21.516C107.721 21.34 107.497 21.204 107.23 21.108C106.969 21.012 106.67 20.964 106.334 20.964C105.998 20.964 105.697 21.012 105.43 21.108C105.169 21.204 104.945 21.34 104.758 21.516C104.577 21.692 104.438 21.9053 104.342 22.156C104.246 22.4013 104.198 22.6733 104.198 22.972C104.198 23.2707 104.246 23.5427 104.342 23.788C104.438 24.0333 104.577 24.244 104.758 24.42C104.945 24.596 105.169 24.7347 105.43 24.836C105.697 24.932 105.998 24.98 106.334 24.98ZM109.31 29.036C109.31 28.7853 109.243 28.5853 109.11 28.436C108.982 28.2813 108.809 28.1613 108.59 28.076C108.371 27.9907 108.118 27.932 107.83 27.9C107.547 27.8627 107.249 27.836 106.934 27.82C106.625 27.804 106.313 27.788 105.998 27.772C105.683 27.756 105.387 27.724 105.11 27.676C104.907 27.756 104.721 27.8493 104.55 27.956C104.379 28.0573 104.233 28.1747 104.11 28.308C103.987 28.4413 103.891 28.5853 103.822 28.74C103.753 28.9 103.718 29.0707 103.718 29.252C103.718 29.4867 103.777 29.7027 103.894 29.9C104.017 30.1027 104.193 30.276 104.422 30.42C104.657 30.5693 104.942 30.6867 105.278 30.772C105.614 30.8573 106.001 30.9 106.438 30.9C106.843 30.9 107.219 30.8547 107.566 30.764C107.918 30.6733 108.222 30.5453 108.478 30.38C108.739 30.2147 108.942 30.0173 109.086 29.788C109.235 29.5587 109.31 29.308 109.31 29.036ZM110.142 20.892V21.156C110.142 21.2733 110.067 21.3453 109.918 21.372L108.702 21.46C108.851 21.6627 108.966 21.8893 109.046 22.14C109.126 22.3907 109.166 22.6627 109.166 22.956C109.166 23.34 109.097 23.6893 108.958 24.004C108.825 24.3133 108.633 24.58 108.382 24.804C108.137 25.0227 107.838 25.1933 107.486 25.316C107.139 25.4387 106.755 25.5 106.334 25.5C105.881 25.5 105.467 25.4307 105.094 25.292C104.87 25.42 104.691 25.572 104.558 25.748C104.43 25.9187 104.366 26.0893 104.366 26.26C104.366 26.4893 104.446 26.6653 104.606 26.788C104.771 26.9107 104.985 27.0013 105.246 27.06C105.513 27.1133 105.814 27.148 106.15 27.164C106.491 27.18 106.838 27.1987 107.19 27.22C107.542 27.236 107.886 27.268 108.222 27.316C108.563 27.364 108.865 27.4493 109.126 27.572C109.393 27.6893 109.606 27.8573 109.766 28.076C109.931 28.2893 110.014 28.5747 110.014 28.932C110.014 29.2627 109.931 29.58 109.766 29.884C109.601 30.188 109.361 30.4573 109.046 30.692C108.737 30.9267 108.361 31.1133 107.918 31.252C107.475 31.396 106.979 31.468 106.43 31.468C105.87 31.468 105.379 31.4093 104.958 31.292C104.537 31.18 104.182 31.0253 103.894 30.828C103.611 30.636 103.398 30.412 103.254 30.156C103.11 29.9 103.038 29.628 103.038 29.34C103.038 28.9187 103.177 28.5587 103.454 28.26C103.731 27.956 104.11 27.7187 104.59 27.548C104.323 27.4573 104.107 27.3267 103.942 27.156C103.782 26.98 103.702 26.7427 103.702 26.444C103.702 26.332 103.723 26.2147 103.766 26.092C103.809 25.9693 103.873 25.8493 103.958 25.732C104.043 25.6093 104.147 25.4947 104.27 25.388C104.393 25.2813 104.531 25.1853 104.686 25.1C104.307 24.8813 104.011 24.5907 103.798 24.228C103.59 23.8653 103.486 23.4413 103.486 22.956C103.486 22.572 103.553 22.2253 103.686 21.916C103.825 21.6013 104.019 21.332 104.27 21.108C104.521 20.884 104.819 20.7107 105.166 20.588C105.518 20.4653 105.907 20.404 106.334 20.404C106.686 20.404 107.009 20.4467 107.302 20.532C107.601 20.6173 107.867 20.7373 108.102 20.892H110.142ZM120.274 27.844C121.266 27.844 122.015 27.6307 122.522 27.204C123.034 26.772 123.29 26.1667 123.29 25.388C123.29 25.0307 123.22 24.7107 123.082 24.428C122.948 24.14 122.754 23.8973 122.498 23.7C122.242 23.4973 121.927 23.3427 121.554 23.236C121.18 23.1293 120.756 23.076 120.282 23.076H117.434V27.844H120.274ZM117.434 17.828V22.476H119.882C120.404 22.476 120.85 22.4093 121.218 22.276C121.591 22.1427 121.895 21.9667 122.13 21.748C122.37 21.5293 122.546 21.2813 122.658 21.004C122.77 20.7267 122.826 20.4413 122.826 20.148C122.826 19.3853 122.583 18.8093 122.098 18.42C121.618 18.0253 120.874 17.828 119.866 17.828H117.434ZM119.866 17.18C120.511 17.18 121.071 17.244 121.546 17.372C122.02 17.5 122.412 17.6893 122.722 17.94C123.031 18.1853 123.26 18.4867 123.41 18.844C123.559 19.2013 123.634 19.6067 123.634 20.06C123.634 20.3587 123.58 20.6467 123.474 20.924C123.372 21.2013 123.223 21.4573 123.026 21.692C122.834 21.9267 122.594 22.132 122.306 22.308C122.023 22.4787 121.698 22.6093 121.33 22.7C122.22 22.828 122.903 23.124 123.378 23.588C123.858 24.0467 124.098 24.652 124.098 25.404C124.098 25.884 124.012 26.316 123.842 26.7C123.671 27.084 123.423 27.4093 123.098 27.676C122.772 27.9427 122.372 28.148 121.898 28.292C121.423 28.4307 120.884 28.5 120.282 28.5H116.61V17.18H119.866ZM130.674 24.652C129.917 24.6787 129.264 24.74 128.714 24.836C128.17 24.9267 127.72 25.052 127.362 25.212C127.01 25.372 126.749 25.564 126.578 25.788C126.408 26.0067 126.322 26.2573 126.322 26.54C126.322 26.8067 126.365 27.0387 126.45 27.236C126.541 27.428 126.658 27.588 126.802 27.716C126.952 27.8387 127.122 27.9293 127.314 27.988C127.506 28.0467 127.706 28.076 127.914 28.076C128.224 28.076 128.506 28.044 128.762 27.98C129.024 27.9107 129.264 27.8173 129.482 27.7C129.706 27.5773 129.914 27.4333 130.106 27.268C130.298 27.1027 130.488 26.924 130.674 26.732V24.652ZM125.994 21.668C126.41 21.252 126.848 20.9373 127.306 20.724C127.765 20.5107 128.285 20.404 128.866 20.404C129.293 20.404 129.666 20.4733 129.986 20.612C130.306 20.7453 130.57 20.94 130.778 21.196C130.992 21.4467 131.152 21.7533 131.258 22.116C131.365 22.4733 131.418 22.8733 131.418 23.316V28.5H131.114C130.954 28.5 130.856 28.4253 130.818 28.276L130.706 27.252C130.488 27.4653 130.269 27.6573 130.05 27.828C129.837 27.9987 129.613 28.1427 129.378 28.26C129.144 28.3773 128.89 28.468 128.618 28.532C128.346 28.596 128.048 28.628 127.722 28.628C127.45 28.628 127.186 28.588 126.93 28.508C126.674 28.428 126.445 28.3053 126.242 28.14C126.045 27.9747 125.885 27.764 125.762 27.508C125.645 27.2467 125.586 26.9347 125.586 26.572C125.586 26.236 125.682 25.924 125.874 25.636C126.066 25.348 126.368 25.0973 126.778 24.884C127.189 24.6707 127.714 24.5 128.354 24.372C129 24.244 129.773 24.1693 130.674 24.148V23.316C130.674 22.58 130.514 22.0147 130.194 21.62C129.88 21.22 129.41 21.02 128.786 21.02C128.402 21.02 128.074 21.0733 127.802 21.18C127.536 21.2867 127.309 21.404 127.122 21.532C126.936 21.66 126.784 21.7773 126.666 21.884C126.549 21.9907 126.45 22.044 126.37 22.044C126.312 22.044 126.264 22.0307 126.226 22.004C126.189 21.9773 126.157 21.9427 126.13 21.9L125.994 21.668ZM139.32 21.604C139.294 21.6307 139.267 21.6547 139.24 21.676C139.219 21.692 139.187 21.7 139.144 21.7C139.091 21.7 139.019 21.6653 138.928 21.596C138.838 21.5213 138.715 21.4413 138.56 21.356C138.406 21.2707 138.211 21.1933 137.976 21.124C137.747 21.0493 137.467 21.012 137.136 21.012C136.678 21.012 136.27 21.0947 135.912 21.26C135.56 21.42 135.262 21.652 135.016 21.956C134.771 22.26 134.584 22.628 134.456 23.06C134.334 23.492 134.272 23.9773 134.272 24.516C134.272 25.076 134.336 25.572 134.464 26.004C134.598 26.436 134.784 26.8013 135.024 27.1C135.264 27.3933 135.555 27.6173 135.896 27.772C136.238 27.9267 136.616 28.004 137.032 28.004C137.416 28.004 137.736 27.9587 137.992 27.868C138.254 27.7773 138.467 27.6787 138.632 27.572C138.803 27.4653 138.936 27.3667 139.032 27.276C139.128 27.1853 139.208 27.14 139.272 27.14C139.336 27.14 139.39 27.1667 139.432 27.22L139.632 27.476C139.51 27.636 139.355 27.7853 139.168 27.924C138.982 28.0627 138.771 28.1827 138.536 28.284C138.302 28.3853 138.046 28.4627 137.768 28.516C137.496 28.5747 137.211 28.604 136.912 28.604C136.406 28.604 135.942 28.5133 135.52 28.332C135.104 28.1453 134.744 27.8787 134.44 27.532C134.142 27.18 133.907 26.7507 133.736 26.244C133.571 25.7373 133.488 25.1613 133.488 24.516C133.488 23.908 133.568 23.3533 133.728 22.852C133.888 22.3507 134.123 21.9187 134.432 21.556C134.742 21.1933 135.118 20.9133 135.56 20.716C136.008 20.5133 136.52 20.412 137.096 20.412C137.614 20.412 138.072 20.4947 138.472 20.66C138.872 20.8253 139.222 21.0493 139.52 21.332L139.32 21.604ZM142.283 16.86V23.956H142.651C142.726 23.956 142.795 23.9453 142.859 23.924C142.928 23.9027 143.003 23.852 143.083 23.772L146.275 20.74C146.328 20.676 146.387 20.628 146.451 20.596C146.515 20.5587 146.595 20.54 146.691 20.54H147.363L143.851 23.876C143.755 23.988 143.651 24.076 143.539 24.14C143.624 24.1827 143.696 24.2333 143.755 24.292C143.819 24.3453 143.88 24.4093 143.939 24.484L147.627 28.5H146.963C146.888 28.5 146.819 28.4893 146.755 28.468C146.696 28.4413 146.64 28.3907 146.587 28.316L143.243 24.732C143.2 24.684 143.158 24.644 143.115 24.612C143.078 24.58 143.038 24.556 142.995 24.54C142.952 24.5187 142.902 24.5053 142.843 24.5C142.79 24.4893 142.723 24.484 142.643 24.484H142.283V28.5H141.515V16.86H142.283ZM154.103 22.252C153.799 21.7933 153.461 21.4707 153.087 21.284C152.719 21.0973 152.298 21.004 151.823 21.004C151.354 21.004 150.943 21.0893 150.591 21.26C150.239 21.4307 149.943 21.6733 149.703 21.988C149.469 22.2973 149.29 22.6707 149.167 23.108C149.05 23.54 148.991 24.0173 148.991 24.54C148.991 25.724 149.207 26.596 149.639 27.156C150.077 27.7107 150.706 27.988 151.527 27.988C152.05 27.988 152.527 27.852 152.959 27.58C153.391 27.308 153.773 26.9267 154.103 26.436V22.252ZM154.863 16.86V28.5H154.447C154.309 28.5 154.229 28.4307 154.207 28.292L154.127 27.036C153.775 27.516 153.365 27.8973 152.895 28.18C152.426 28.4627 151.898 28.604 151.311 28.604C150.33 28.604 149.567 28.2653 149.023 27.588C148.479 26.9107 148.207 25.8947 148.207 24.54C148.207 23.9587 148.282 23.4173 148.431 22.916C148.586 22.4093 148.81 21.972 149.103 21.604C149.397 21.2307 149.757 20.9373 150.183 20.724C150.615 20.5107 151.111 20.404 151.671 20.404C152.21 20.404 152.677 20.5027 153.071 20.7C153.466 20.8973 153.81 21.1907 154.103 21.58V16.86H154.863ZM158.212 22.46C158.335 22.1347 158.473 21.8467 158.628 21.596C158.788 21.34 158.969 21.124 159.172 20.948C159.38 20.772 159.609 20.6387 159.86 20.548C160.116 20.452 160.399 20.404 160.708 20.404C160.873 20.404 161.036 20.42 161.196 20.452C161.356 20.4787 161.497 20.5293 161.62 20.604L161.556 21.132C161.529 21.2173 161.479 21.26 161.404 21.26C161.34 21.26 161.241 21.2413 161.108 21.204C160.98 21.1667 160.809 21.148 160.596 21.148C160.287 21.148 160.012 21.196 159.772 21.292C159.537 21.3827 159.324 21.5213 159.132 21.708C158.945 21.8947 158.78 22.1267 158.636 22.404C158.497 22.676 158.369 22.9907 158.252 23.348V28.5H157.484V20.54H157.892C157.983 20.54 158.047 20.5587 158.084 20.596C158.121 20.6333 158.145 20.6973 158.156 20.788L158.212 22.46ZM165.839 20.412C166.41 20.412 166.919 20.5107 167.367 20.708C167.82 20.9 168.202 21.1747 168.511 21.532C168.82 21.8893 169.055 22.3213 169.215 22.828C169.38 23.3293 169.463 23.892 169.463 24.516C169.463 25.14 169.38 25.7027 169.215 26.204C169.055 26.7053 168.82 27.1347 168.511 27.492C168.202 27.8493 167.82 28.124 167.367 28.316C166.919 28.508 166.41 28.604 165.839 28.604C165.268 28.604 164.756 28.508 164.303 28.316C163.855 28.124 163.474 27.8493 163.159 27.492C162.85 27.1347 162.612 26.7053 162.447 26.204C162.287 25.7027 162.207 25.14 162.207 24.516C162.207 23.892 162.287 23.3293 162.447 22.828C162.612 22.3213 162.85 21.8893 163.159 21.532C163.474 21.1747 163.855 20.9 164.303 20.708C164.756 20.5107 165.268 20.412 165.839 20.412ZM165.839 28.004C166.314 28.004 166.727 27.924 167.079 27.764C167.436 27.5987 167.732 27.364 167.967 27.06C168.207 26.756 168.386 26.3907 168.503 25.964C168.62 25.532 168.679 25.0493 168.679 24.516C168.679 23.988 168.62 23.508 168.503 23.076C168.386 22.644 168.207 22.276 167.967 21.972C167.732 21.6627 167.436 21.4253 167.079 21.26C166.727 21.0947 166.314 21.012 165.839 21.012C165.364 21.012 164.948 21.0947 164.591 21.26C164.239 21.4253 163.943 21.6627 163.703 21.972C163.468 22.276 163.29 22.644 163.167 23.076C163.05 23.508 162.991 23.988 162.991 24.516C162.991 25.0493 163.05 25.532 163.167 25.964C163.29 26.3907 163.468 26.756 163.703 27.06C163.943 27.364 164.239 27.5987 164.591 27.764C164.948 27.924 165.364 28.004 165.839 28.004ZM172.377 26.764C172.532 26.9933 172.692 27.188 172.857 27.348C173.028 27.5027 173.206 27.6307 173.393 27.732C173.58 27.828 173.777 27.8973 173.985 27.94C174.198 27.9827 174.422 28.004 174.657 28.004C175.126 28.004 175.537 27.9187 175.889 27.748C176.241 27.5773 176.534 27.3373 176.769 27.028C177.009 26.7133 177.188 26.34 177.305 25.908C177.428 25.4707 177.489 24.9907 177.489 24.468C177.489 23.284 177.27 22.4147 176.833 21.86C176.396 21.3 175.769 21.02 174.953 21.02C174.425 21.02 173.948 21.156 173.521 21.428C173.094 21.7 172.713 22.0787 172.377 22.564V26.764ZM172.345 21.972C172.697 21.492 173.108 21.1107 173.577 20.828C174.052 20.5453 174.582 20.404 175.169 20.404C176.145 20.404 176.905 20.7427 177.449 21.42C177.998 22.0973 178.273 23.1133 178.273 24.468C178.273 25.0493 178.196 25.5933 178.041 26.1C177.892 26.6013 177.668 27.0387 177.369 27.412C177.076 27.78 176.713 28.0707 176.281 28.284C175.854 28.4973 175.361 28.604 174.801 28.604C174.262 28.604 173.796 28.5053 173.401 28.308C173.006 28.1107 172.665 27.82 172.377 27.436V31.316H171.609V20.54H172.033C172.166 20.54 172.244 20.6067 172.265 20.74L172.345 21.972ZM184.813 21.524C184.77 21.5987 184.709 21.636 184.629 21.636C184.57 21.636 184.496 21.604 184.405 21.54C184.314 21.4707 184.192 21.396 184.037 21.316C183.888 21.2307 183.701 21.156 183.477 21.092C183.253 21.0227 182.981 20.988 182.661 20.988C182.373 20.988 182.109 21.0307 181.869 21.116C181.634 21.196 181.432 21.3053 181.261 21.444C181.096 21.5827 180.968 21.7453 180.877 21.932C180.786 22.1133 180.741 22.3053 180.741 22.508C180.741 22.7587 180.805 22.9667 180.933 23.132C181.061 23.2973 181.226 23.4387 181.429 23.556C181.637 23.6733 181.874 23.7747 182.141 23.86C182.408 23.9453 182.677 24.0307 182.949 24.116C183.226 24.2013 183.498 24.2973 183.765 24.404C184.032 24.5053 184.266 24.6333 184.469 24.788C184.677 24.9427 184.845 25.132 184.973 25.356C185.101 25.58 185.165 25.852 185.165 26.172C185.165 26.5187 185.104 26.8413 184.981 27.14C184.858 27.4387 184.677 27.6973 184.437 27.916C184.202 28.1347 183.912 28.308 183.565 28.436C183.218 28.564 182.821 28.628 182.373 28.628C181.813 28.628 181.33 28.54 180.925 28.364C180.52 28.1827 180.157 27.948 179.837 27.66L180.013 27.388C180.04 27.3453 180.069 27.3133 180.101 27.292C180.138 27.2707 180.186 27.26 180.245 27.26C180.314 27.26 180.397 27.3027 180.493 27.388C180.594 27.4733 180.728 27.5667 180.893 27.668C181.058 27.764 181.261 27.8547 181.501 27.94C181.746 28.0253 182.048 28.068 182.405 28.068C182.741 28.068 183.037 28.0227 183.293 27.932C183.549 27.836 183.762 27.708 183.933 27.548C184.104 27.388 184.232 27.2013 184.317 26.988C184.408 26.7693 184.453 26.54 184.453 26.3C184.453 26.0333 184.389 25.812 184.261 25.636C184.133 25.46 183.965 25.3107 183.757 25.188C183.549 25.0653 183.312 24.9613 183.045 24.876C182.784 24.7907 182.514 24.7053 182.237 24.62C181.96 24.5347 181.688 24.4413 181.421 24.34C181.16 24.2387 180.925 24.1107 180.717 23.956C180.509 23.8013 180.341 23.6147 180.213 23.396C180.085 23.172 180.021 22.8947 180.021 22.564C180.021 22.2813 180.082 22.0093 180.205 21.748C180.328 21.4867 180.501 21.2573 180.725 21.06C180.954 20.8627 181.232 20.7053 181.557 20.588C181.882 20.4707 182.248 20.412 182.653 20.412C183.138 20.412 183.568 20.4813 183.941 20.62C184.32 20.7587 184.664 20.972 184.973 21.26L184.813 21.524Z" fill="#2D2D2D"/>
</svg>
