<svg width="183" height="44" viewBox="0 0 183 44" fill="none" xmlns="http://www.w3.org/2000/svg">
<path d="M33 13L34.3155 18.824L39.364 15.636L36.176 20.6845L42 22L36.176 23.3155L39.364 28.364L34.3155 25.176L33 31L31.6845 25.176L26.636 28.364L29.824 23.3155L24 22L29.824 20.6845L26.636 15.636L31.6845 18.824L33 13Z" fill="#C4A195"/>
<path d="M61.728 22.836C61.728 23.7107 61.5973 24.5053 61.336 25.22C61.0747 25.9293 60.7067 26.5373 60.232 27.044C59.7573 27.5453 59.1867 27.9347 58.52 28.212C57.8587 28.484 57.128 28.62 56.328 28.62C55.528 28.62 54.7973 28.484 54.136 28.212C53.4747 27.9347 52.9067 27.5453 52.432 27.044C51.9573 26.5373 51.5893 25.9293 51.328 25.22C51.0667 24.5053 50.936 23.7107 50.936 22.836C50.936 21.9667 51.0667 21.1773 51.328 20.468C51.5893 19.7533 51.9573 19.1453 52.432 18.644C52.9067 18.1373 53.4747 17.7453 54.136 17.468C54.7973 17.1907 55.528 17.052 56.328 17.052C57.128 17.052 57.8587 17.1907 58.52 17.468C59.1867 17.74 59.7573 18.1293 60.232 18.636C60.7067 19.1427 61.0747 19.7533 61.336 20.468C61.5973 21.1773 61.728 21.9667 61.728 22.836ZM60.88 22.836C60.88 22.0467 60.7707 21.3373 60.552 20.708C60.3333 20.0787 60.024 19.5453 59.624 19.108C59.224 18.6707 58.744 18.3373 58.184 18.108C57.624 17.8733 57.0053 17.756 56.328 17.756C55.656 17.756 55.04 17.8733 54.48 18.108C53.92 18.3373 53.4373 18.6707 53.032 19.108C52.632 19.5453 52.32 20.0787 52.096 20.708C51.8773 21.3373 51.768 22.0467 51.768 22.836C51.768 23.6307 51.8773 24.3427 52.096 24.972C52.32 25.596 52.632 26.1267 53.032 26.564C53.4373 27.0013 53.92 27.3347 54.48 27.564C55.04 27.7933 55.656 27.908 56.328 27.908C57.0053 27.908 57.624 27.7933 58.184 27.564C58.744 27.3347 59.224 27.0013 59.624 26.564C60.024 26.1267 60.3333 25.596 60.552 24.972C60.7707 24.3427 60.88 23.6307 60.88 22.836ZM64.5088 21.932C64.8768 21.4733 65.3008 21.1053 65.7808 20.828C66.2661 20.5507 66.8048 20.412 67.3968 20.412C67.8341 20.412 68.2181 20.4813 68.5488 20.62C68.8848 20.7587 69.1621 20.9587 69.3808 21.22C69.5994 21.4813 69.7648 21.796 69.8768 22.164C69.9888 22.532 70.0448 22.948 70.0448 23.412V28.5H69.2768V23.412C69.2768 22.6653 69.1061 22.0813 68.7648 21.66C68.4234 21.2333 67.9034 21.02 67.2048 21.02C66.6874 21.02 66.2021 21.1533 65.7488 21.42C65.3008 21.6813 64.9008 22.0467 64.5488 22.516V28.5H63.7808V20.54H64.2048C64.3381 20.54 64.4154 20.6067 64.4368 20.74L64.5088 21.932ZM72.3696 23.428H76.0896V24.076H72.3696V23.428ZM85.2508 17.876H81.2748V28.5H80.4508V17.876H76.4508V17.18H85.2508V17.876ZM85.5869 22.46C85.7095 22.1347 85.8482 21.8467 86.0029 21.596C86.1629 21.34 86.3442 21.124 86.5469 20.948C86.7549 20.772 86.9842 20.6387 87.2349 20.548C87.4909 20.452 87.7735 20.404 88.0829 20.404C88.2482 20.404 88.4109 20.42 88.5709 20.452C88.7309 20.4787 88.8722 20.5293 88.9949 20.604L88.9309 21.132C88.9042 21.2173 88.8535 21.26 88.7789 21.26C88.7149 21.26 88.6162 21.2413 88.4829 21.204C88.3549 21.1667 88.1842 21.148 87.9709 21.148C87.6615 21.148 87.3869 21.196 87.1469 21.292C86.9122 21.3827 86.6989 21.5213 86.5069 21.708C86.3202 21.8947 86.1549 22.1267 86.0109 22.404C85.8722 22.676 85.7442 22.9907 85.6269 23.348V28.5H84.8589V20.54H85.2669C85.3575 20.54 85.4215 20.5587 85.4589 20.596C85.4962 20.6333 85.5202 20.6973 85.5309 20.788L85.5869 22.46ZM95.646 23.716C95.646 23.2893 95.5847 22.908 95.462 22.572C95.3447 22.2307 95.1767 21.9427 94.958 21.708C94.7393 21.4733 94.478 21.2947 94.174 21.172C93.8753 21.044 93.5447 20.98 93.182 20.98C92.7713 20.98 92.4033 21.044 92.078 21.172C91.7527 21.3 91.47 21.484 91.23 21.724C90.9953 21.964 90.806 22.252 90.662 22.588C90.518 22.924 90.422 23.3 90.374 23.716H95.646ZM90.334 24.204V24.356C90.334 24.9533 90.4033 25.4787 90.542 25.932C90.6807 26.3853 90.878 26.7667 91.134 27.076C91.39 27.38 91.6993 27.6093 92.062 27.764C92.4247 27.9187 92.83 27.996 93.278 27.996C93.678 27.996 94.0247 27.9533 94.318 27.868C94.6113 27.7773 94.8567 27.6787 95.054 27.572C95.2567 27.46 95.4167 27.3613 95.534 27.276C95.6513 27.1853 95.7367 27.14 95.79 27.14C95.8593 27.14 95.9127 27.1667 95.95 27.22L96.158 27.476C96.03 27.636 95.8593 27.7853 95.646 27.924C95.438 28.0627 95.2033 28.1827 94.942 28.284C94.686 28.38 94.4087 28.4573 94.11 28.516C93.8167 28.5747 93.5207 28.604 93.222 28.604C92.678 28.604 92.182 28.5107 91.734 28.324C91.286 28.132 90.902 27.8547 90.582 27.492C90.262 27.1293 90.014 26.6867 89.838 26.164C89.6673 25.636 89.582 25.0333 89.582 24.356C89.582 23.7853 89.662 23.26 89.822 22.78C89.9873 22.2947 90.222 21.8787 90.526 21.532C90.8353 21.18 91.2113 20.9053 91.654 20.708C92.102 20.5107 92.6087 20.412 93.174 20.412C93.622 20.412 94.038 20.4893 94.422 20.644C94.806 20.7987 95.1393 21.0253 95.422 21.324C95.7047 21.6173 95.926 21.98 96.086 22.412C96.2513 22.844 96.334 23.34 96.334 23.9C96.334 24.0173 96.318 24.0973 96.286 24.14C96.254 24.1827 96.2007 24.204 96.126 24.204H90.334ZM99.1338 21.932C99.5018 21.4733 99.9258 21.1053 100.406 20.828C100.891 20.5507 101.43 20.412 102.022 20.412C102.459 20.412 102.843 20.4813 103.174 20.62C103.51 20.7587 103.787 20.9587 104.006 21.22C104.224 21.4813 104.39 21.796 104.502 22.164C104.614 22.532 104.67 22.948 104.67 23.412V28.5H103.902V23.412C103.902 22.6653 103.731 22.0813 103.39 21.66C103.048 21.2333 102.528 21.02 101.83 21.02C101.312 21.02 100.827 21.1533 100.374 21.42C99.9258 21.6813 99.5258 22.0467 99.1738 22.516V28.5H98.4058V20.54H98.8298C98.9631 20.54 99.0404 20.6067 99.0618 20.74L99.1338 21.932ZM112.635 22.252C112.331 21.7933 111.992 21.4707 111.619 21.284C111.251 21.0973 110.829 21.004 110.355 21.004C109.885 21.004 109.475 21.0893 109.123 21.26C108.771 21.4307 108.475 21.6733 108.235 21.988C108 22.2973 107.821 22.6707 107.699 23.108C107.581 23.54 107.523 24.0173 107.523 24.54C107.523 25.724 107.739 26.596 108.171 27.156C108.608 27.7107 109.237 27.988 110.059 27.988C110.581 27.988 111.059 27.852 111.491 27.58C111.923 27.308 112.304 26.9267 112.635 26.436V22.252ZM113.395 16.86V28.5H112.979C112.84 28.5 112.76 28.4307 112.739 28.292L112.659 27.036C112.307 27.516 111.896 27.8973 111.427 28.18C110.957 28.4627 110.429 28.604 109.843 28.604C108.861 28.604 108.099 28.2653 107.555 27.588C107.011 26.9107 106.739 25.8947 106.739 24.54C106.739 23.9587 106.813 23.4173 106.963 22.916C107.117 22.4093 107.341 21.972 107.635 21.604C107.928 21.2307 108.288 20.9373 108.715 20.724C109.147 20.5107 109.643 20.404 110.203 20.404C110.741 20.404 111.208 20.5027 111.603 20.7C111.997 20.8973 112.341 21.1907 112.635 21.58V16.86H113.395ZM126.903 27.804V28.5H120.719V17.18H121.543V27.804H126.903ZM130.823 20.412C131.394 20.412 131.903 20.5107 132.351 20.708C132.805 20.9 133.186 21.1747 133.495 21.532C133.805 21.8893 134.039 22.3213 134.199 22.828C134.365 23.3293 134.447 23.892 134.447 24.516C134.447 25.14 134.365 25.7027 134.199 26.204C134.039 26.7053 133.805 27.1347 133.495 27.492C133.186 27.8493 132.805 28.124 132.351 28.316C131.903 28.508 131.394 28.604 130.823 28.604C130.253 28.604 129.741 28.508 129.287 28.316C128.839 28.124 128.458 27.8493 128.143 27.492C127.834 27.1347 127.597 26.7053 127.431 26.204C127.271 25.7027 127.191 25.14 127.191 24.516C127.191 23.892 127.271 23.3293 127.431 22.828C127.597 22.3213 127.834 21.8893 128.143 21.532C128.458 21.1747 128.839 20.9 129.287 20.708C129.741 20.5107 130.253 20.412 130.823 20.412ZM130.823 28.004C131.298 28.004 131.711 27.924 132.063 27.764C132.421 27.5987 132.717 27.364 132.951 27.06C133.191 26.756 133.37 26.3907 133.487 25.964C133.605 25.532 133.663 25.0493 133.663 24.516C133.663 23.988 133.605 23.508 133.487 23.076C133.37 22.644 133.191 22.276 132.951 21.972C132.717 21.6627 132.421 21.4253 132.063 21.26C131.711 21.0947 131.298 21.012 130.823 21.012C130.349 21.012 129.933 21.0947 129.575 21.26C129.223 21.4253 128.927 21.6627 128.687 21.972C128.453 22.276 128.274 22.644 128.151 23.076C128.034 23.508 127.975 23.988 127.975 24.516C127.975 25.0493 128.034 25.532 128.151 25.964C128.274 26.3907 128.453 26.756 128.687 27.06C128.927 27.364 129.223 27.5987 129.575 27.764C129.933 27.924 130.349 28.004 130.823 28.004ZM139.745 20.412C140.316 20.412 140.825 20.5107 141.273 20.708C141.727 20.9 142.108 21.1747 142.417 21.532C142.727 21.8893 142.961 22.3213 143.121 22.828C143.287 23.3293 143.369 23.892 143.369 24.516C143.369 25.14 143.287 25.7027 143.121 26.204C142.961 26.7053 142.727 27.1347 142.417 27.492C142.108 27.8493 141.727 28.124 141.273 28.316C140.825 28.508 140.316 28.604 139.745 28.604C139.175 28.604 138.663 28.508 138.209 28.316C137.761 28.124 137.38 27.8493 137.065 27.492C136.756 27.1347 136.519 26.7053 136.353 26.204C136.193 25.7027 136.113 25.14 136.113 24.516C136.113 23.892 136.193 23.3293 136.353 22.828C136.519 22.3213 136.756 21.8893 137.065 21.532C137.38 21.1747 137.761 20.9 138.209 20.708C138.663 20.5107 139.175 20.412 139.745 20.412ZM139.745 28.004C140.22 28.004 140.633 27.924 140.985 27.764C141.343 27.5987 141.639 27.364 141.873 27.06C142.113 26.756 142.292 26.3907 142.409 25.964C142.527 25.532 142.585 25.0493 142.585 24.516C142.585 23.988 142.527 23.508 142.409 23.076C142.292 22.644 142.113 22.276 141.873 21.972C141.639 21.6627 141.343 21.4253 140.985 21.26C140.633 21.0947 140.22 21.012 139.745 21.012C139.271 21.012 138.855 21.0947 138.497 21.26C138.145 21.4253 137.849 21.6627 137.609 21.972C137.375 22.276 137.196 22.644 137.073 23.076C136.956 23.508 136.897 23.988 136.897 24.516C136.897 25.0493 136.956 25.532 137.073 25.964C137.196 26.3907 137.375 26.756 137.609 27.06C137.849 27.364 138.145 27.5987 138.497 27.764C138.855 27.924 139.271 28.004 139.745 28.004ZM146.283 16.86V23.956H146.651C146.726 23.956 146.795 23.9453 146.859 23.924C146.928 23.9027 147.003 23.852 147.083 23.772L150.275 20.74C150.328 20.676 150.387 20.628 150.451 20.596C150.515 20.5587 150.595 20.54 150.691 20.54H151.363L147.851 23.876C147.755 23.988 147.651 24.076 147.539 24.14C147.624 24.1827 147.696 24.2333 147.755 24.292C147.819 24.3453 147.88 24.4093 147.939 24.484L151.627 28.5H150.963C150.888 28.5 150.819 28.4893 150.755 28.468C150.696 28.4413 150.64 28.3907 150.587 28.316L147.243 24.732C147.2 24.684 147.158 24.644 147.115 24.612C147.078 24.58 147.038 24.556 146.995 24.54C146.952 24.5187 146.902 24.5053 146.843 24.5C146.79 24.4893 146.723 24.484 146.643 24.484H146.283V28.5H145.515V16.86H146.283ZM157.501 21.524C157.458 21.5987 157.397 21.636 157.317 21.636C157.258 21.636 157.183 21.604 157.093 21.54C157.002 21.4707 156.879 21.396 156.725 21.316C156.575 21.2307 156.389 21.156 156.165 21.092C155.941 21.0227 155.669 20.988 155.349 20.988C155.061 20.988 154.797 21.0307 154.557 21.116C154.322 21.196 154.119 21.3053 153.949 21.444C153.783 21.5827 153.655 21.7453 153.565 21.932C153.474 22.1133 153.429 22.3053 153.429 22.508C153.429 22.7587 153.493 22.9667 153.621 23.132C153.749 23.2973 153.914 23.4387 154.117 23.556C154.325 23.6733 154.562 23.7747 154.829 23.86C155.095 23.9453 155.365 24.0307 155.637 24.116C155.914 24.2013 156.186 24.2973 156.453 24.404C156.719 24.5053 156.954 24.6333 157.157 24.788C157.365 24.9427 157.533 25.132 157.661 25.356C157.789 25.58 157.853 25.852 157.853 26.172C157.853 26.5187 157.791 26.8413 157.669 27.14C157.546 27.4387 157.365 27.6973 157.125 27.916C156.89 28.1347 156.599 28.308 156.253 28.436C155.906 28.564 155.509 28.628 155.061 28.628C154.501 28.628 154.018 28.54 153.613 28.364C153.207 28.1827 152.845 27.948 152.525 27.66L152.701 27.388C152.727 27.3453 152.757 27.3133 152.789 27.292C152.826 27.2707 152.874 27.26 152.933 27.26C153.002 27.26 153.085 27.3027 153.181 27.388C153.282 27.4733 153.415 27.5667 153.581 27.668C153.746 27.764 153.949 27.8547 154.189 27.94C154.434 28.0253 154.735 28.068 155.093 28.068C155.429 28.068 155.725 28.0227 155.981 27.932C156.237 27.836 156.45 27.708 156.621 27.548C156.791 27.388 156.919 27.2013 157.005 26.988C157.095 26.7693 157.141 26.54 157.141 26.3C157.141 26.0333 157.077 25.812 156.949 25.636C156.821 25.46 156.653 25.3107 156.445 25.188C156.237 25.0653 155.999 24.9613 155.733 24.876C155.471 24.7907 155.202 24.7053 154.925 24.62C154.647 24.5347 154.375 24.4413 154.109 24.34C153.847 24.2387 153.613 24.1107 153.405 23.956C153.197 23.8013 153.029 23.6147 152.901 23.396C152.773 23.172 152.709 22.8947 152.709 22.564C152.709 22.2813 152.77 22.0093 152.893 21.748C153.015 21.4867 153.189 21.2573 153.413 21.06C153.642 20.8627 153.919 20.7053 154.245 20.588C154.57 20.4707 154.935 20.412 155.341 20.412C155.826 20.412 156.255 20.4813 156.629 20.62C157.007 20.7587 157.351 20.972 157.661 21.26L157.501 21.524Z" fill="#2D2D2D"/>
</svg>
