<svg width="231" height="44" viewBox="0 0 231 44" fill="none" xmlns="http://www.w3.org/2000/svg">
<path d="M33 13L34.3155 18.824L39.364 15.636L36.176 20.6845L42 22L36.176 23.3155L39.364 28.364L34.3155 25.176L33 31L31.6845 25.176L26.636 28.364L29.824 23.3155L24 22L29.824 20.6845L26.636 15.636L31.6845 18.824L33 13Z" fill="#C4A195"/>
<path d="M60.28 17.18L55.608 28.5H54.88L50.208 17.18H50.856C50.9307 17.18 50.992 17.2013 51.04 17.244C51.088 17.2813 51.1253 17.332 51.152 17.396L55.008 26.788C55.0507 26.9053 55.0933 27.0307 55.136 27.164C55.1787 27.2973 55.2187 27.4333 55.256 27.572C55.288 27.4333 55.3227 27.2973 55.36 27.164C55.3973 27.0307 55.44 26.9053 55.488 26.788L59.336 17.396C59.3573 17.3373 59.3947 17.2867 59.448 17.244C59.5013 17.2013 59.5653 17.18 59.64 17.18H60.28ZM66.271 23.716C66.271 23.2893 66.2097 22.908 66.087 22.572C65.9697 22.2307 65.8017 21.9427 65.583 21.708C65.3643 21.4733 65.103 21.2947 64.799 21.172C64.5003 21.044 64.1697 20.98 63.807 20.98C63.3963 20.98 63.0283 21.044 62.703 21.172C62.3777 21.3 62.095 21.484 61.855 21.724C61.6203 21.964 61.431 22.252 61.287 22.588C61.143 22.924 61.047 23.3 60.999 23.716H66.271ZM60.959 24.204V24.356C60.959 24.9533 61.0283 25.4787 61.167 25.932C61.3057 26.3853 61.503 26.7667 61.759 27.076C62.015 27.38 62.3243 27.6093 62.687 27.764C63.0497 27.9187 63.455 27.996 63.903 27.996C64.303 27.996 64.6497 27.9533 64.943 27.868C65.2363 27.7773 65.4817 27.6787 65.679 27.572C65.8817 27.46 66.0417 27.3613 66.159 27.276C66.2763 27.1853 66.3617 27.14 66.415 27.14C66.4843 27.14 66.5377 27.1667 66.575 27.22L66.783 27.476C66.655 27.636 66.4843 27.7853 66.271 27.924C66.063 28.0627 65.8283 28.1827 65.567 28.284C65.311 28.38 65.0337 28.4573 64.735 28.516C64.4417 28.5747 64.1457 28.604 63.847 28.604C63.303 28.604 62.807 28.5107 62.359 28.324C61.911 28.132 61.527 27.8547 61.207 27.492C60.887 27.1293 60.639 26.6867 60.463 26.164C60.2923 25.636 60.207 25.0333 60.207 24.356C60.207 23.7853 60.287 23.26 60.447 22.78C60.6123 22.2947 60.847 21.8787 61.151 21.532C61.4603 21.18 61.8363 20.9053 62.279 20.708C62.727 20.5107 63.2337 20.412 63.799 20.412C64.247 20.412 64.663 20.4893 65.047 20.644C65.431 20.7987 65.7643 21.0253 66.047 21.324C66.3297 21.6173 66.551 21.98 66.711 22.412C66.8763 22.844 66.959 23.34 66.959 23.9C66.959 24.0173 66.943 24.0973 66.911 24.14C66.879 24.1827 66.8257 24.204 66.751 24.204H60.959ZM69.7588 22.46C69.8814 22.1347 70.0201 21.8467 70.1748 21.596C70.3348 21.34 70.5161 21.124 70.7188 20.948C70.9268 20.772 71.1561 20.6387 71.4068 20.548C71.6628 20.452 71.9454 20.404 72.2548 20.404C72.4201 20.404 72.5828 20.42 72.7428 20.452C72.9028 20.4787 73.0441 20.5293 73.1668 20.604L73.1028 21.132C73.0761 21.2173 73.0254 21.26 72.9508 21.26C72.8868 21.26 72.7881 21.2413 72.6548 21.204C72.5268 21.1667 72.3561 21.148 72.1428 21.148C71.8334 21.148 71.5588 21.196 71.3188 21.292C71.0841 21.3827 70.8708 21.5213 70.6788 21.708C70.4921 21.8947 70.3268 22.1267 70.1828 22.404C70.0441 22.676 69.9161 22.9907 69.7988 23.348V28.5H69.0308V20.54H69.4388C69.5294 20.54 69.5934 20.5587 69.6308 20.596C69.6681 20.6333 69.6921 20.6973 69.7028 20.788L69.7588 22.46ZM78.9693 21.524C78.9266 21.5987 78.8653 21.636 78.7853 21.636C78.7266 21.636 78.6519 21.604 78.5613 21.54C78.4706 21.4707 78.3479 21.396 78.1933 21.316C78.0439 21.2307 77.8573 21.156 77.6333 21.092C77.4093 21.0227 77.1373 20.988 76.8173 20.988C76.5293 20.988 76.2653 21.0307 76.0253 21.116C75.7906 21.196 75.5879 21.3053 75.4173 21.444C75.2519 21.5827 75.1239 21.7453 75.0333 21.932C74.9426 22.1133 74.8973 22.3053 74.8973 22.508C74.8973 22.7587 74.9613 22.9667 75.0893 23.132C75.2173 23.2973 75.3826 23.4387 75.5853 23.556C75.7933 23.6733 76.0306 23.7747 76.2973 23.86C76.5639 23.9453 76.8333 24.0307 77.1053 24.116C77.3826 24.2013 77.6546 24.2973 77.9213 24.404C78.1879 24.5053 78.4226 24.6333 78.6253 24.788C78.8333 24.9427 79.0013 25.132 79.1293 25.356C79.2573 25.58 79.3213 25.852 79.3213 26.172C79.3213 26.5187 79.2599 26.8413 79.1373 27.14C79.0146 27.4387 78.8333 27.6973 78.5933 27.916C78.3586 28.1347 78.0679 28.308 77.7213 28.436C77.3746 28.564 76.9773 28.628 76.5293 28.628C75.9693 28.628 75.4866 28.54 75.0813 28.364C74.6759 28.1827 74.3133 27.948 73.9933 27.66L74.1693 27.388C74.1959 27.3453 74.2253 27.3133 74.2573 27.292C74.2946 27.2707 74.3426 27.26 74.4013 27.26C74.4706 27.26 74.5533 27.3027 74.6493 27.388C74.7506 27.4733 74.8839 27.5667 75.0493 27.668C75.2146 27.764 75.4173 27.8547 75.6573 27.94C75.9026 28.0253 76.2039 28.068 76.5613 28.068C76.8973 28.068 77.1933 28.0227 77.4493 27.932C77.7053 27.836 77.9186 27.708 78.0893 27.548C78.2599 27.388 78.3879 27.2013 78.4733 26.988C78.5639 26.7693 78.6093 26.54 78.6093 26.3C78.6093 26.0333 78.5453 25.812 78.4173 25.636C78.2893 25.46 78.1213 25.3107 77.9133 25.188C77.7053 25.0653 77.4679 24.9613 77.2013 24.876C76.9399 24.7907 76.6706 24.7053 76.3933 24.62C76.1159 24.5347 75.8439 24.4413 75.5773 24.34C75.3159 24.2387 75.0813 24.1107 74.8733 23.956C74.6653 23.8013 74.4973 23.6147 74.3693 23.396C74.2413 23.172 74.1773 22.8947 74.1773 22.564C74.1773 22.2813 74.2386 22.0093 74.3613 21.748C74.4839 21.4867 74.6573 21.2573 74.8813 21.06C75.1106 20.8627 75.3879 20.7053 75.7133 20.588C76.0386 20.4707 76.4039 20.412 76.8093 20.412C77.2946 20.412 77.7239 20.4813 78.0973 20.62C78.4759 20.7587 78.8199 20.972 79.1293 21.26L78.9693 21.524ZM85.8461 24.652C85.0888 24.6787 84.4355 24.74 83.8861 24.836C83.3421 24.9267 82.8915 25.052 82.5341 25.212C82.1821 25.372 81.9208 25.564 81.7501 25.788C81.5795 26.0067 81.4941 26.2573 81.4941 26.54C81.4941 26.8067 81.5368 27.0387 81.6221 27.236C81.7128 27.428 81.8301 27.588 81.9741 27.716C82.1235 27.8387 82.2941 27.9293 82.4861 27.988C82.6781 28.0467 82.8781 28.076 83.0861 28.076C83.3955 28.076 83.6781 28.044 83.9341 27.98C84.1955 27.9107 84.4355 27.8173 84.6541 27.7C84.8781 27.5773 85.0861 27.4333 85.2781 27.268C85.4701 27.1027 85.6595 26.924 85.8461 26.732V24.652ZM81.1661 21.668C81.5821 21.252 82.0195 20.9373 82.4781 20.724C82.9368 20.5107 83.4568 20.404 84.0381 20.404C84.4648 20.404 84.8381 20.4733 85.1581 20.612C85.4781 20.7453 85.7421 20.94 85.9501 21.196C86.1635 21.4467 86.3235 21.7533 86.4301 22.116C86.5368 22.4733 86.5901 22.8733 86.5901 23.316V28.5H86.2861C86.1261 28.5 86.0275 28.4253 85.9901 28.276L85.8781 27.252C85.6595 27.4653 85.4408 27.6573 85.2221 27.828C85.0088 27.9987 84.7848 28.1427 84.5501 28.26C84.3155 28.3773 84.0621 28.468 83.7901 28.532C83.5181 28.596 83.2195 28.628 82.8941 28.628C82.6221 28.628 82.3581 28.588 82.1021 28.508C81.8461 28.428 81.6168 28.3053 81.4141 28.14C81.2168 27.9747 81.0568 27.764 80.9341 27.508C80.8168 27.2467 80.7581 26.9347 80.7581 26.572C80.7581 26.236 80.8541 25.924 81.0461 25.636C81.2381 25.348 81.5395 25.0973 81.9501 24.884C82.3608 24.6707 82.8861 24.5 83.5261 24.372C84.1715 24.244 84.9448 24.1693 85.8461 24.148V23.316C85.8461 22.58 85.6861 22.0147 85.3661 21.62C85.0515 21.22 84.5821 21.02 83.9581 21.02C83.5741 21.02 83.2461 21.0733 82.9741 21.18C82.7075 21.2867 82.4808 21.404 82.2941 21.532C82.1075 21.66 81.9555 21.7773 81.8381 21.884C81.7208 21.9907 81.6221 22.044 81.5421 22.044C81.4835 22.044 81.4355 22.0307 81.3981 22.004C81.3608 21.9773 81.3288 21.9427 81.3021 21.9L81.1661 21.668ZM95.6544 28.5H94.8864V21.356H90.2784V26.756C90.2784 26.9747 90.305 27.164 90.3584 27.324C90.417 27.4787 90.4944 27.6067 90.5904 27.708C90.6917 27.8093 90.809 27.884 90.9424 27.932C91.0757 27.98 91.2197 28.004 91.3744 28.004C91.5664 28.004 91.7317 27.9773 91.8704 27.924C92.009 27.8653 92.129 27.804 92.2304 27.74C92.3317 27.6707 92.4144 27.6093 92.4784 27.556C92.5424 27.4973 92.593 27.468 92.6304 27.468C92.673 27.468 92.7157 27.4947 92.7584 27.548L92.9664 27.884C92.7637 28.108 92.505 28.2893 92.1904 28.428C91.881 28.5613 91.5584 28.628 91.2224 28.628C90.6837 28.628 90.2624 28.4787 89.9584 28.18C89.6597 27.8813 89.5104 27.42 89.5104 26.796V21.356H88.3664C88.3077 21.356 88.2597 21.34 88.2224 21.308C88.185 21.276 88.1664 21.2307 88.1664 21.172V20.876L89.5264 20.78L89.7184 17.932C89.729 17.884 89.7504 17.8413 89.7824 17.804C89.8144 17.7667 89.8597 17.748 89.9184 17.748H90.2784V20.788H95.6544V28.5ZM96.0064 17.7C96.0064 17.796 95.985 17.8867 95.9424 17.972C95.905 18.052 95.8517 18.124 95.7824 18.188C95.7184 18.252 95.6437 18.3027 95.5584 18.34C95.473 18.3773 95.3824 18.396 95.2864 18.396C95.1904 18.396 95.0997 18.3773 95.0144 18.34C94.929 18.3027 94.8544 18.252 94.7904 18.188C94.7264 18.124 94.6757 18.052 94.6384 17.972C94.601 17.8867 94.5824 17.796 94.5824 17.7C94.5824 17.604 94.601 17.5133 94.6384 17.428C94.6757 17.3373 94.7264 17.26 94.7904 17.196C94.8544 17.132 94.929 17.0813 95.0144 17.044C95.0997 17.0067 95.1904 16.988 95.2864 16.988C95.3824 16.988 95.473 17.0067 95.5584 17.044C95.6437 17.0813 95.7184 17.132 95.7824 17.196C95.8517 17.26 95.905 17.3373 95.9424 17.428C95.985 17.5133 96.0064 17.604 96.0064 17.7ZM99.1989 16.86V28.5H98.4309V16.86H99.1989ZM107.474 23.716C107.474 23.2893 107.413 22.908 107.29 22.572C107.173 22.2307 107.005 21.9427 106.786 21.708C106.567 21.4733 106.306 21.2947 106.002 21.172C105.703 21.044 105.373 20.98 105.01 20.98C104.599 20.98 104.231 21.044 103.906 21.172C103.581 21.3 103.298 21.484 103.058 21.724C102.823 21.964 102.634 22.252 102.49 22.588C102.346 22.924 102.25 23.3 102.202 23.716H107.474ZM102.162 24.204V24.356C102.162 24.9533 102.231 25.4787 102.37 25.932C102.509 26.3853 102.706 26.7667 102.962 27.076C103.218 27.38 103.527 27.6093 103.89 27.764C104.253 27.9187 104.658 27.996 105.106 27.996C105.506 27.996 105.853 27.9533 106.146 27.868C106.439 27.7773 106.685 27.6787 106.882 27.572C107.085 27.46 107.245 27.3613 107.362 27.276C107.479 27.1853 107.565 27.14 107.618 27.14C107.687 27.14 107.741 27.1667 107.778 27.22L107.986 27.476C107.858 27.636 107.687 27.7853 107.474 27.924C107.266 28.0627 107.031 28.1827 106.77 28.284C106.514 28.38 106.237 28.4573 105.938 28.516C105.645 28.5747 105.349 28.604 105.05 28.604C104.506 28.604 104.01 28.5107 103.562 28.324C103.114 28.132 102.73 27.8547 102.41 27.492C102.09 27.1293 101.842 26.6867 101.666 26.164C101.495 25.636 101.41 25.0333 101.41 24.356C101.41 23.7853 101.49 23.26 101.65 22.78C101.815 22.2947 102.05 21.8787 102.354 21.532C102.663 21.18 103.039 20.9053 103.482 20.708C103.93 20.5107 104.437 20.412 105.002 20.412C105.45 20.412 105.866 20.4893 106.25 20.644C106.634 20.7987 106.967 21.0253 107.25 21.324C107.533 21.6173 107.754 21.98 107.914 22.412C108.079 22.844 108.162 23.34 108.162 23.9C108.162 24.0173 108.146 24.0973 108.114 24.14C108.082 24.1827 108.029 24.204 107.954 24.204H102.162ZM120.434 18.556C120.386 18.6467 120.316 18.692 120.226 18.692C120.156 18.692 120.066 18.644 119.954 18.548C119.847 18.4467 119.7 18.3373 119.514 18.22C119.327 18.0973 119.092 17.9853 118.81 17.884C118.532 17.7827 118.188 17.732 117.778 17.732C117.367 17.732 117.004 17.7907 116.69 17.908C116.38 18.0253 116.119 18.1853 115.906 18.388C115.698 18.5907 115.538 18.8253 115.426 19.092C115.319 19.3587 115.266 19.6387 115.266 19.932C115.266 20.316 115.346 20.6333 115.506 20.884C115.671 21.1347 115.887 21.348 116.154 21.524C116.42 21.7 116.722 21.8493 117.058 21.972C117.399 22.0893 117.748 22.2067 118.106 22.324C118.463 22.4413 118.81 22.572 119.146 22.716C119.487 22.8547 119.791 23.0307 120.058 23.244C120.324 23.4573 120.538 23.7213 120.698 24.036C120.863 24.3453 120.946 24.732 120.946 25.196C120.946 25.6707 120.863 26.1187 120.698 26.54C120.538 26.956 120.303 27.3187 119.994 27.628C119.684 27.9373 119.306 28.1827 118.858 28.364C118.41 28.54 117.898 28.628 117.322 28.628C116.575 28.628 115.932 28.4973 115.394 28.236C114.855 27.9693 114.383 27.6067 113.978 27.148L114.202 26.796C114.266 26.716 114.34 26.676 114.426 26.676C114.474 26.676 114.535 26.708 114.61 26.772C114.684 26.836 114.775 26.916 114.882 27.012C114.988 27.1027 115.116 27.204 115.266 27.316C115.415 27.4227 115.588 27.524 115.786 27.62C115.983 27.7107 116.21 27.788 116.466 27.852C116.722 27.916 117.012 27.948 117.338 27.948C117.786 27.948 118.186 27.8813 118.538 27.748C118.89 27.6093 119.186 27.4227 119.426 27.188C119.671 26.9533 119.858 26.676 119.986 26.356C120.114 26.0307 120.178 25.684 120.178 25.316C120.178 24.916 120.095 24.588 119.93 24.332C119.77 24.0707 119.556 23.8547 119.29 23.684C119.023 23.508 118.719 23.3613 118.378 23.244C118.042 23.1267 117.695 23.012 117.338 22.9C116.98 22.788 116.631 22.6627 116.29 22.524C115.954 22.3853 115.652 22.2093 115.386 21.996C115.119 21.7773 114.903 21.508 114.738 21.188C114.578 20.8627 114.498 20.4573 114.498 19.972C114.498 19.5933 114.57 19.228 114.714 18.876C114.858 18.524 115.068 18.2147 115.346 17.948C115.623 17.676 115.964 17.46 116.37 17.3C116.78 17.1347 117.247 17.052 117.77 17.052C118.356 17.052 118.882 17.1453 119.346 17.332C119.815 17.5187 120.242 17.804 120.626 18.188L120.434 18.556ZM124.941 28.628C124.402 28.628 123.981 28.4787 123.677 28.18C123.378 27.8813 123.229 27.42 123.229 26.796V21.356H122.085C122.026 21.356 121.978 21.34 121.941 21.308C121.904 21.276 121.885 21.2307 121.885 21.172V20.876L123.245 20.78L123.437 17.932C123.448 17.884 123.469 17.8413 123.501 17.804C123.533 17.7667 123.578 17.748 123.637 17.748H123.997V20.788H126.509V21.356H123.997V26.756C123.997 26.9747 124.024 27.164 124.077 27.324C124.136 27.4787 124.213 27.6067 124.309 27.708C124.41 27.8093 124.528 27.884 124.661 27.932C124.794 27.98 124.938 28.004 125.093 28.004C125.285 28.004 125.45 27.9773 125.589 27.924C125.728 27.8653 125.848 27.804 125.949 27.74C126.05 27.6707 126.133 27.6093 126.197 27.556C126.261 27.4973 126.312 27.468 126.349 27.468C126.392 27.468 126.434 27.4947 126.477 27.548L126.685 27.884C126.482 28.108 126.224 28.2893 125.909 28.428C125.6 28.5613 125.277 28.628 124.941 28.628ZM134.682 20.54L130.106 31.06C130.074 31.1347 130.031 31.196 129.978 31.244C129.93 31.292 129.858 31.316 129.762 31.316H129.218L130.618 28.204L127.25 20.54H127.882C127.962 20.54 128.026 20.5613 128.074 20.604C128.122 20.6413 128.154 20.684 128.17 20.732L130.85 26.924C130.882 27.004 130.908 27.0867 130.93 27.172C130.956 27.252 130.98 27.3347 131.002 27.42C131.028 27.3347 131.055 27.252 131.082 27.172C131.114 27.0867 131.146 27.004 131.178 26.924L133.826 20.732C133.852 20.6733 133.89 20.628 133.938 20.596C133.986 20.5587 134.039 20.54 134.098 20.54H134.682ZM137.121 16.86V28.5H136.353V16.86H137.121ZM145.396 23.716C145.396 23.2893 145.335 22.908 145.212 22.572C145.095 22.2307 144.927 21.9427 144.708 21.708C144.489 21.4733 144.228 21.2947 143.924 21.172C143.625 21.044 143.295 20.98 142.932 20.98C142.521 20.98 142.153 21.044 141.828 21.172C141.503 21.3 141.22 21.484 140.98 21.724C140.745 21.964 140.556 22.252 140.412 22.588C140.268 22.924 140.172 23.3 140.124 23.716H145.396ZM140.084 24.204V24.356C140.084 24.9533 140.153 25.4787 140.292 25.932C140.431 26.3853 140.628 26.7667 140.884 27.076C141.14 27.38 141.449 27.6093 141.812 27.764C142.175 27.9187 142.58 27.996 143.028 27.996C143.428 27.996 143.775 27.9533 144.068 27.868C144.361 27.7773 144.607 27.6787 144.804 27.572C145.007 27.46 145.167 27.3613 145.284 27.276C145.401 27.1853 145.487 27.14 145.54 27.14C145.609 27.14 145.663 27.1667 145.7 27.22L145.908 27.476C145.78 27.636 145.609 27.7853 145.396 27.924C145.188 28.0627 144.953 28.1827 144.692 28.284C144.436 28.38 144.159 28.4573 143.86 28.516C143.567 28.5747 143.271 28.604 142.972 28.604C142.428 28.604 141.932 28.5107 141.484 28.324C141.036 28.132 140.652 27.8547 140.332 27.492C140.012 27.1293 139.764 26.6867 139.588 26.164C139.417 25.636 139.332 25.0333 139.332 24.356C139.332 23.7853 139.412 23.26 139.572 22.78C139.737 22.2947 139.972 21.8787 140.276 21.532C140.585 21.18 140.961 20.9053 141.404 20.708C141.852 20.5107 142.359 20.412 142.924 20.412C143.372 20.412 143.788 20.4893 144.172 20.644C144.556 20.7987 144.889 21.0253 145.172 21.324C145.455 21.6173 145.676 21.98 145.836 22.412C146.001 22.844 146.084 23.34 146.084 23.9C146.084 24.0173 146.068 24.0973 146.036 24.14C146.004 24.1827 145.951 24.204 145.876 24.204H140.084ZM162.916 22.836C162.916 23.7107 162.785 24.5053 162.524 25.22C162.262 25.9293 161.894 26.5373 161.42 27.044C160.945 27.5453 160.374 27.9347 159.708 28.212C159.046 28.484 158.316 28.62 157.516 28.62C156.716 28.62 155.985 28.484 155.324 28.212C154.662 27.9347 154.094 27.5453 153.62 27.044C153.145 26.5373 152.777 25.9293 152.516 25.22C152.254 24.5053 152.124 23.7107 152.124 22.836C152.124 21.9667 152.254 21.1773 152.516 20.468C152.777 19.7533 153.145 19.1453 153.62 18.644C154.094 18.1373 154.662 17.7453 155.324 17.468C155.985 17.1907 156.716 17.052 157.516 17.052C158.316 17.052 159.046 17.1907 159.708 17.468C160.374 17.74 160.945 18.1293 161.42 18.636C161.894 19.1427 162.262 19.7533 162.524 20.468C162.785 21.1773 162.916 21.9667 162.916 22.836ZM162.068 22.836C162.068 22.0467 161.958 21.3373 161.74 20.708C161.521 20.0787 161.212 19.5453 160.812 19.108C160.412 18.6707 159.932 18.3373 159.372 18.108C158.812 17.8733 158.193 17.756 157.516 17.756C156.844 17.756 156.228 17.8733 155.668 18.108C155.108 18.3373 154.625 18.6707 154.22 19.108C153.82 19.5453 153.508 20.0787 153.284 20.708C153.065 21.3373 152.956 22.0467 152.956 22.836C152.956 23.6307 153.065 24.3427 153.284 24.972C153.508 25.596 153.82 26.1267 154.22 26.564C154.625 27.0013 155.108 27.3347 155.668 27.564C156.228 27.7933 156.844 27.908 157.516 27.908C158.193 27.908 158.812 27.7933 159.372 27.564C159.932 27.3347 160.412 27.0013 160.812 26.564C161.212 26.1267 161.521 25.596 161.74 24.972C161.958 24.3427 162.068 23.6307 162.068 22.836ZM165.736 26.764C165.891 26.9933 166.051 27.188 166.216 27.348C166.387 27.5027 166.566 27.6307 166.752 27.732C166.939 27.828 167.136 27.8973 167.344 27.94C167.558 27.9827 167.782 28.004 168.016 28.004C168.486 28.004 168.896 27.9187 169.248 27.748C169.6 27.5773 169.894 27.3373 170.128 27.028C170.368 26.7133 170.547 26.34 170.664 25.908C170.787 25.4707 170.848 24.9907 170.848 24.468C170.848 23.284 170.63 22.4147 170.192 21.86C169.755 21.3 169.128 21.02 168.312 21.02C167.784 21.02 167.307 21.156 166.88 21.428C166.454 21.7 166.072 22.0787 165.736 22.564V26.764ZM165.704 21.972C166.056 21.492 166.467 21.1107 166.936 20.828C167.411 20.5453 167.942 20.404 168.528 20.404C169.504 20.404 170.264 20.7427 170.808 21.42C171.358 22.0973 171.632 23.1133 171.632 24.468C171.632 25.0493 171.555 25.5933 171.4 26.1C171.251 26.6013 171.027 27.0387 170.728 27.412C170.435 27.78 170.072 28.0707 169.64 28.284C169.214 28.4973 168.72 28.604 168.16 28.604C167.622 28.604 167.155 28.5053 166.76 28.308C166.366 28.1107 166.024 27.82 165.736 27.436V31.316H164.968V20.54H165.392C165.526 20.54 165.603 20.6067 165.624 20.74L165.704 21.972ZM180.311 28.5H179.543V21.356H174.935V26.756C174.935 26.9747 174.961 27.164 175.015 27.324C175.073 27.4787 175.151 27.6067 175.247 27.708C175.348 27.8093 175.465 27.884 175.599 27.932C175.732 27.98 175.876 28.004 176.031 28.004C176.223 28.004 176.388 27.9773 176.527 27.924C176.665 27.8653 176.785 27.804 176.887 27.74C176.988 27.6707 177.071 27.6093 177.135 27.556C177.199 27.4973 177.249 27.468 177.287 27.468C177.329 27.468 177.372 27.4947 177.415 27.548L177.623 27.884C177.42 28.108 177.161 28.2893 176.847 28.428C176.537 28.5613 176.215 28.628 175.879 28.628C175.34 28.628 174.919 28.4787 174.615 28.18C174.316 27.8813 174.167 27.42 174.167 26.796V21.356H173.023C172.964 21.356 172.916 21.34 172.879 21.308C172.841 21.276 172.823 21.2307 172.823 21.172V20.876L174.183 20.78L174.375 17.932C174.385 17.884 174.407 17.8413 174.439 17.804C174.471 17.7667 174.516 17.748 174.575 17.748H174.935V20.788H180.311V28.5ZM180.663 17.7C180.663 17.796 180.641 17.8867 180.599 17.972C180.561 18.052 180.508 18.124 180.439 18.188C180.375 18.252 180.3 18.3027 180.215 18.34C180.129 18.3773 180.039 18.396 179.943 18.396C179.847 18.396 179.756 18.3773 179.671 18.34C179.585 18.3027 179.511 18.252 179.447 18.188C179.383 18.124 179.332 18.052 179.295 17.972C179.257 17.8867 179.239 17.796 179.239 17.7C179.239 17.604 179.257 17.5133 179.295 17.428C179.332 17.3373 179.383 17.26 179.447 17.196C179.511 17.132 179.585 17.0813 179.671 17.044C179.756 17.0067 179.847 16.988 179.943 16.988C180.039 16.988 180.129 17.0067 180.215 17.044C180.3 17.0813 180.375 17.132 180.439 17.196C180.508 17.26 180.561 17.3373 180.599 17.428C180.641 17.5133 180.663 17.604 180.663 17.7ZM186.167 20.412C186.738 20.412 187.247 20.5107 187.695 20.708C188.148 20.9 188.53 21.1747 188.839 21.532C189.148 21.8893 189.383 22.3213 189.543 22.828C189.708 23.3293 189.791 23.892 189.791 24.516C189.791 25.14 189.708 25.7027 189.543 26.204C189.383 26.7053 189.148 27.1347 188.839 27.492C188.53 27.8493 188.148 28.124 187.695 28.316C187.247 28.508 186.738 28.604 186.167 28.604C185.596 28.604 185.084 28.508 184.631 28.316C184.183 28.124 183.802 27.8493 183.487 27.492C183.178 27.1347 182.94 26.7053 182.775 26.204C182.615 25.7027 182.535 25.14 182.535 24.516C182.535 23.892 182.615 23.3293 182.775 22.828C182.94 22.3213 183.178 21.8893 183.487 21.532C183.802 21.1747 184.183 20.9 184.631 20.708C185.084 20.5107 185.596 20.412 186.167 20.412ZM186.167 28.004C186.642 28.004 187.055 27.924 187.407 27.764C187.764 27.5987 188.06 27.364 188.295 27.06C188.535 26.756 188.714 26.3907 188.831 25.964C188.948 25.532 189.007 25.0493 189.007 24.516C189.007 23.988 188.948 23.508 188.831 23.076C188.714 22.644 188.535 22.276 188.295 21.972C188.06 21.6627 187.764 21.4253 187.407 21.26C187.055 21.0947 186.642 21.012 186.167 21.012C185.692 21.012 185.276 21.0947 184.919 21.26C184.567 21.4253 184.271 21.6627 184.031 21.972C183.796 22.276 183.618 22.644 183.495 23.076C183.378 23.508 183.319 23.988 183.319 24.516C183.319 25.0493 183.378 25.532 183.495 25.964C183.618 26.3907 183.796 26.756 184.031 27.06C184.271 27.364 184.567 27.5987 184.919 27.764C185.276 27.924 185.692 28.004 186.167 28.004ZM192.665 21.932C193.033 21.4733 193.457 21.1053 193.937 20.828C194.422 20.5507 194.961 20.412 195.553 20.412C195.99 20.412 196.374 20.4813 196.705 20.62C197.041 20.7587 197.318 20.9587 197.537 21.22C197.756 21.4813 197.921 21.796 198.033 22.164C198.145 22.532 198.201 22.948 198.201 23.412V28.5H197.433V23.412C197.433 22.6653 197.262 22.0813 196.921 21.66C196.58 21.2333 196.06 21.02 195.361 21.02C194.844 21.02 194.358 21.1533 193.905 21.42C193.457 21.6813 193.057 22.0467 192.705 22.516V28.5H191.937V20.54H192.361C192.494 20.54 192.572 20.6067 192.593 20.74L192.665 21.932ZM205.11 21.524C205.067 21.5987 205.006 21.636 204.926 21.636C204.867 21.636 204.793 21.604 204.702 21.54C204.611 21.4707 204.489 21.396 204.334 21.316C204.185 21.2307 203.998 21.156 203.774 21.092C203.55 21.0227 203.278 20.988 202.958 20.988C202.67 20.988 202.406 21.0307 202.166 21.116C201.931 21.196 201.729 21.3053 201.558 21.444C201.393 21.5827 201.265 21.7453 201.174 21.932C201.083 22.1133 201.038 22.3053 201.038 22.508C201.038 22.7587 201.102 22.9667 201.23 23.132C201.358 23.2973 201.523 23.4387 201.726 23.556C201.934 23.6733 202.171 23.7747 202.438 23.86C202.705 23.9453 202.974 24.0307 203.246 24.116C203.523 24.2013 203.795 24.2973 204.062 24.404C204.329 24.5053 204.563 24.6333 204.766 24.788C204.974 24.9427 205.142 25.132 205.27 25.356C205.398 25.58 205.462 25.852 205.462 26.172C205.462 26.5187 205.401 26.8413 205.278 27.14C205.155 27.4387 204.974 27.6973 204.734 27.916C204.499 28.1347 204.209 28.308 203.862 28.436C203.515 28.564 203.118 28.628 202.67 28.628C202.11 28.628 201.627 28.54 201.222 28.364C200.817 28.1827 200.454 27.948 200.134 27.66L200.31 27.388C200.337 27.3453 200.366 27.3133 200.398 27.292C200.435 27.2707 200.483 27.26 200.542 27.26C200.611 27.26 200.694 27.3027 200.79 27.388C200.891 27.4733 201.025 27.5667 201.19 27.668C201.355 27.764 201.558 27.8547 201.798 27.94C202.043 28.0253 202.345 28.068 202.702 28.068C203.038 28.068 203.334 28.0227 203.59 27.932C203.846 27.836 204.059 27.708 204.23 27.548C204.401 27.388 204.529 27.2013 204.614 26.988C204.705 26.7693 204.75 26.54 204.75 26.3C204.75 26.0333 204.686 25.812 204.558 25.636C204.43 25.46 204.262 25.3107 204.054 25.188C203.846 25.0653 203.609 24.9613 203.342 24.876C203.081 24.7907 202.811 24.7053 202.534 24.62C202.257 24.5347 201.985 24.4413 201.718 24.34C201.457 24.2387 201.222 24.1107 201.014 23.956C200.806 23.8013 200.638 23.6147 200.51 23.396C200.382 23.172 200.318 22.8947 200.318 22.564C200.318 22.2813 200.379 22.0093 200.502 21.748C200.625 21.4867 200.798 21.2573 201.022 21.06C201.251 20.8627 201.529 20.7053 201.854 20.588C202.179 20.4707 202.545 20.412 202.95 20.412C203.435 20.412 203.865 20.4813 204.238 20.62C204.617 20.7587 204.961 20.972 205.27 21.26L205.11 21.524Z" fill="#2D2D2D"/>
</svg>
